<?xml version="1.0" encoding="utf-8"?>
<!-- Generator: Adobe Illustrator 16.0.0, SVG Export Plug-In . SVG Version: 6.00 Build 0)  -->
<!DOCTYPE svg PUBLIC "-//W3C//DTD SVG 1.1//EN" "http://www.w3.org/Graphics/SVG/1.1/DTD/svg11.dtd">
<svg version="1.1" id="Capa_1" xmlns="http://www.w3.org/2000/svg" xmlns:xlink="http://www.w3.org/1999/xlink" x="0px" y="0px" width="800px" height="500px" viewBox="0 0 800 500" enable-background="new 0 0 800 500" xml:space="preserve">
	<g>
		<g id="add-deselected_v2">
			<path fill-rule="evenodd" clip-rule="evenodd" d="M190.721,464.72h-5.542v-5.541
				c0-0.438-0.354-0.791-0.792-0.791h-1.583c-0.437,0-0.792,0.354-0.792,0.791v5.541h-5.542c-0.437,0-0.791,0.354-0.791,0.791v1.585
				c0,0.436,0.354,0.791,0.791,0.791h5.542v5.542c0,0.437,0.355,0.792,0.792,0.792h1.583c0.438,0,0.792-0.355,0.792-0.792v-5.542
				h5.542c0.438,0,0.792-0.355,0.792-0.791v-1.585C191.513,465.074,191.159,464.72,190.721,464.72z
			M183.596,452.054c-7.87,0-14.251,6.378-14.251,14.25c0,7.87,6.381,14.251,14.251,14.251s14.251-6.381,14.251-14.251
				C197.847,458.432,191.466,452.054,183.596,452.054z
			M183.596,478.972c-6.997,0-12.667-5.672-12.667-12.668
				c0-6.995,5.671-12.667,12.667-12.667c6.996,0,12.667,5.672,12.667,12.667C196.263,473.3,190.592,478.972,183.596,478.972z"/>
		</g>
	</g>
</svg>
