<?xml version="1.0" encoding="utf-8"?>
<!-- Generator: Adobe Illustrator 16.0.0, SVG Export Plug-In . SVG Version: 6.00 Build 0)  -->
<!DOCTYPE svg PUBLIC "-//W3C//DTD SVG 1.1//EN" "http://www.w3.org/Graphics/SVG/1.1/DTD/svg11.dtd">
<svg version="1.1" id="Capa_1" xmlns="http://www.w3.org/2000/svg" xmlns:xlink="http://www.w3.org/1999/xlink" x="0px" y="0px" width="800px" height="500px" viewBox="0 0 800 500" enable-background="new 0 0 800 500" xml:space="preserve">
	<g>
		<g id="add-selected_v2">
			<path fill-rule="evenodd" clip-rule="evenodd" d="M113.253,454.245
				c-7.971,0-14.432,6.462-14.432,14.434c0,7.973,6.461,14.434,14.432,14.434c7.97,0,14.431-6.461,14.431-14.434
				C127.685,460.707,121.223,454.245,113.253,454.245z
			M119.769,469.543c0,0.349-0.282,0.628-0.628,0.628h-4.399v4.397
				c0,0.347-0.28,0.628-0.628,0.628h-1.256c-0.348,0-0.629-0.281-0.629-0.628v-4.397h-4.398c-0.347,0-0.628-0.279-0.628-0.628v-1.256
				c0-0.346,0.282-0.63,0.628-0.63h4.398v-4.396c0-0.348,0.281-0.63,0.629-0.63h1.256c0.348,0,0.628,0.282,0.628,0.63v4.396h4.399
				c0.346,0,0.628,0.284,0.628,0.63V469.543z"/>
		</g>
	</g>
</svg>
