<?xml version="1.0" encoding="utf-8"?>
<!-- Generator: Adobe Illustrator 16.0.0, SVG Export Plug-In . SVG Version: 6.00 Build 0)  -->
<!DOCTYPE svg PUBLIC "-//W3C//DTD SVG 1.1//EN" "http://www.w3.org/Graphics/SVG/1.1/DTD/svg11.dtd">
<svg width="29" height="29" xmlns="http://www.w3.org/2000/svg">
 <g>
  <title>Layer 1</title>
  <g id="svg_1">
   <g id="add-deselected_v2">
    <path id="svg_2" style="fill:#fff" d="m21.37601,12.66602h-5.54201v-5.54102c0,-0.43799 -0.35399,-0.79099 -0.79199,-0.79099h-1.58301c-0.437,0 -0.79199,0.354 -0.79199,0.79099v5.54102h-5.54201c-0.437,0 -0.791,0.354 -0.791,0.79099v1.58502c0,0.436 0.354,0.79099 0.791,0.79099h5.54201v5.54199c0,0.43701 0.355,0.79202 0.79199,0.79202h1.58301c0.438,0 0.79199,-0.35501 0.79199,-0.79202v-5.54199h5.54201c0.438,0 0.79199,-0.35498 0.79199,-0.79099v-1.58502c0.00002,-0.43698 -0.35399,-0.79099 -0.79199,-0.79099zm-7.125,-12.66602c-7.87001,0 -14.25101,6.37799 -14.25101,14.25c0,7.87 6.381,14.25101 14.25101,14.25101s14.25099,-6.38101 14.25099,-14.25101c0.00002,-7.87198 -6.38098,-14.25 -14.25099,-14.25zm0,26.918c-6.99701,0 -12.66701,-5.672 -12.66701,-12.668c0,-6.995 5.67101,-12.66699 12.66701,-12.66699c6.996,0 12.66699,5.672 12.66699,12.66699c0.00002,6.996 -5.67099,12.668 -12.66699,12.668z" clip-rule="evenodd" fill-rule="evenodd"/>
   </g>
  </g>
 </g>
</svg>
