<?xml version="1.0" encoding="utf-8"?>
<!-- Generator: Adobe Illustrator 16.0.0, SVG Export Plug-In . SVG Version: 6.00 Build 0)  -->
<!DOCTYPE svg PUBLIC "-//W3C//DTD SVG 1.1//EN" "http://www.w3.org/Graphics/SVG/1.1/DTD/svg11.dtd">
<svg width="38" height="21" xmlns="http://www.w3.org/2000/svg">
 <g>
  <title>Layer 1</title>
  <g id="svg_23">
   <g id="add-friend">
    <path id="svg_24" style="fill:#ccc" d="m16.399994,20.73999c0.755005,0 2.734001,-0.618988 2.734001,-1.382996v-1.382996v-1.382996c-3.964996,-3.687988 -15.170998,-3.687988 -19.133995,0v1.382996v1.382996c0,0.764008 1.977997,1.382996 2.732994,1.382996h13.667l0,0zm-10.933998,-15.209991c0,3.054993 1.835999,5.529999 4.100998,5.529999s4.100006,-2.475983 4.100006,-5.529999c0,-3.057007 -1.836006,-5.529999 -4.100006,-5.529999s-4.100998,2.472992 -4.100998,5.529999zm31.434998,2.71701h-5.162994v-5.160004c0,-0.40799 -0.330002,-0.735016 -0.738007,-0.735016h-1.473999c-0.406998,0 -0.737,0.327026 -0.737,0.735016v5.160004h-5.162994c-0.407005,0 -0.737,0.330994 -0.737,0.738983v1.473999c0,0.407013 0.329994,0.736023 0.737,0.736023h5.162994v5.16098c0,0.407013 0.330002,0.738007 0.737,0.738007h1.475006c0.40799,0 0.737991,-0.330994 0.737991,-0.738007v-5.16098h5.16301c0.406998,0 0.737991,-0.32901 0.737991,-0.736023v-1.473999c-0.000992,-0.40799 -0.332001,-0.738983 -0.738998,-0.738983z" clip-rule="evenodd" fill-rule="evenodd"/>
   </g>
  </g>
 </g>
</svg>
