<?xml version="1.0" encoding="utf-8"?>
<!-- Generator: Adobe Illustrator 16.0.0, SVG Export Plug-In . SVG Version: 6.00 Build 0)  -->
<!DOCTYPE svg PUBLIC "-//W3C//DTD SVG 1.1//EN" "http://www.w3.org/Graphics/SVG/1.1/DTD/svg11.dtd">
<svg version="1.1" id="Capa_1" xmlns="http://www.w3.org/2000/svg" xmlns:xlink="http://www.w3.org/1999/xlink" x="0px" y="0px" width="800px" height="500px" viewBox="0 0 800 500" enable-background="new 0 0 800 500" xml:space="preserve">
	<g>
		<g id="add-v3">
			<path fill-rule="evenodd" clip-rule="evenodd" d="M117.641,368.008c8.577,0,15.529-6.951,15.529-15.528c0-8.576-6.953-15.53-15.529-15.53s-15.53,6.954-15.53,15.53
				C102.11,361.057,109.064,368.008,117.641,368.008z
			M107.363,351.446c0-0.567,0.46-1.026,1.027-1.026h7.188v-7.186
				c0-0.567,0.461-1.025,1.028-1.025h2.054c0.567,0,1.026,0.458,1.026,1.025v7.186h7.189c0.567,0,1.027,0.459,1.027,1.026v2.055
				c0,0.565-0.46,1.025-1.027,1.025h-7.189v7.186c0,0.567-0.459,1.026-1.026,1.026h-2.054c-0.567,0-1.028-0.459-1.028-1.026v-7.186
				h-7.188c-0.567,0-1.027-0.46-1.027-1.025V351.446z"/>
		</g>
	</g>
</svg>
