<?xml version="1.0" encoding="utf-8"?>
<!-- Generator: Adobe Illustrator 16.0.0, SVG Export Plug-In . SVG Version: 6.00 Build 0)  -->
<!DOCTYPE svg PUBLIC "-//W3C//DTD SVG 1.1//EN" "http://www.w3.org/Graphics/SVG/1.1/DTD/svg11.dtd">
<svg version="1.1" id="Capa_1" xmlns="http://www.w3.org/2000/svg" xmlns:xlink="http://www.w3.org/1999/xlink" x="0px" y="0px" width="800px" height="500px" viewBox="0 0 800 500" enable-background="new 0 0 800 500" xml:space="preserve">
	<g>
		<g id="add-friend">
			<path fill-rule="evenodd" clip-rule="evenodd" d="M113.574,443.606c0.755,0,2.734-0.619,2.734-1.383v-1.383v-1.383
				c-3.965-3.688-15.171-3.688-19.134,0v1.383v1.383c0,0.764,1.978,1.383,2.733,1.383H113.574z
			M102.64,428.396c0,3.055,1.836,5.53,4.101,5.53s4.1-2.476,4.1-5.53
				c0-3.057-1.836-5.53-4.1-5.53S102.64,425.339,102.64,428.396z
			M134.075,431.113h-5.163v-5.16c0-0.408-0.33-0.735-0.738-0.735H126.7
				c-0.407,0-0.737,0.327-0.737,0.735v5.16H120.8c-0.407,0-0.737,0.331-0.737,0.739v1.474c0,0.407,0.33,0.736,0.737,0.736h5.163
				v5.161c0,0.407,0.33,0.738,0.737,0.738h1.475c0.408,0,0.738-0.331,0.738-0.738v-5.161h5.163c0.407,0,0.738-0.329,0.738-0.736
				v-1.474C134.813,431.444,134.482,431.113,134.075,431.113z"/>
		</g>
	</g>
</svg>
