<?xml version="1.0" encoding="utf-8"?>
<!-- Generator: Adobe Illustrator 16.0.0, SVG Export Plug-In . SVG Version: 6.00 Build 0)  -->
<!DOCTYPE svg PUBLIC "-//W3C//DTD SVG 1.1//EN" "http://www.w3.org/Graphics/SVG/1.1/DTD/svg11.dtd">
<svg version="1.1" id="Capa_1" xmlns="http://www.w3.org/2000/svg" xmlns:xlink="http://www.w3.org/1999/xlink" x="0px" y="0px" width="800px" height="500px" viewBox="0 0 800 500" enable-background="new 0 0 800 500" xml:space="preserve">
	<g>
		<g id="camara">
			<path fill-rule="evenodd" clip-rule="evenodd" d="M220.606,168.48h-1.25
				c-0.743,0-1.455,0.3-1.983,0.833l-8.346,4.997v-2.939c0-2.395-1.896-4.335-4.236-4.335h-26.831c-2.336,0-4.236,1.945-4.236,4.335
				v23.125c0,2.396,1.896,4.335,4.236,4.335h26.831c2.339,0,4.236-1.94,4.236-4.335v-2.898l8.346,4.998
				c0.529,0.534,1.241,0.833,1.983,0.833h1.25c1.561,0,2.825-1.294,2.825-2.891v-23.166
				C223.431,169.775,222.167,168.48,220.606,168.48z
			M205.462,193.917c0,0.758-0.602,1.373-1.341,1.373h-25.489
				c-0.74,0-1.342-0.615-1.342-1.373v-21.968c0-0.759,0.601-1.374,1.342-1.374h25.489c0.739,0,1.341,0.616,1.341,1.374V193.917z
			M220.606,194.537h-1.25h-0.162l-10.638-7.268v-8.672l10.638-7.227h0.162h1.25V194.537z"/>
		</g>
	</g>
</svg>
