<?xml version="1.0" encoding="UTF-8"?>
<!DOCTYPE svg PUBLIC "-//W3C//DTD SVG 1.1//EN" "http://www.w3.org/Graphics/SVG/1.1/DTD/svg11.dtd">
<!-- Creator: CorelDRAW X6 -->
<svg width="100" height="100" xmlns="http://www.w3.org/2000/svg">
 <g>
  <title>Layer 1</title>
  <g id="Layer_x0020_1">
   <metadata transform="translate(-1,0) translate(1,0) scale(0.7533866763114929,0.860480010509491) translate(-1,0) translate(1.3273396492004395,0) scale(0.755911111831665,0.7367051243782043) translate(-1.3273396492004395,0) translate(1.7559467554092407,0) scale(0.3998876214027405,0.6237590312957764) translate(-1.7559467554092407,0) translate(4.3911004066467285,0) scale(0.9925058484077454,0.4745076894760132) translate(-4.3911004066467285,0) translate(4.424256324768066,0) scale(0.4016045331954956,0.4792495667934418) translate(-4.424256324768066,0) translate(0,0) scale(0.683901309967041,0.4353499412536621) translate(0,0) translate(0,0) scale(0.45876288414001465,0.6457765698432922) translate(0,0) translate(0,0) scale(0.3595505654811859,0.4177215099334717) translate(0,0) translate(-1.4210854715202004e-14,0) scale(1.0416666269302368,0.9898989796638489) translate(1.4210854715202004e-14,0) translate(0,0) scale(1,1.0204081535339355) translate(0,0) " id="CorelCorpID_0Corel-Layer"/>
   <g id="_156684304">
    <path id="svg_10" d="m68.51199,0c-17.40799,0 -31.47733,14.06933 -31.47733,31.47734c0,3.70132 0.736,7.40267 1.856,11.11467l-38.89067,38.89066l0,18.51733l18.51733,0l0,-11.11468l11.11467,0l0,-11.11465l11.11467,0l16.66134,-16.672c3.33866,1.10933 7.04,1.85601 11.11467,1.85601c17.40799,0 31.47733,-14.06934 31.47733,-31.47734c0,-17.408 -14.06934,-31.47734 -31.47733,-31.47734l-0.01068,0zm9.26935,33.33334l0,0c-6.29334,0 -11.11468,-4.81067 -11.11468,-11.11468c0,-6.29333 4.81068,-11.11467 11.11468,-11.11467c6.29333,0 11.11467,4.81067 11.11467,11.11467c0,6.29333 -4.81067,11.11468 -11.11467,11.11468z" class="fil0"/>
   </g>
  </g>
 </g>
</svg>