<?xml version="1.0" encoding="utf-8"?>
<!-- Generator: Adobe Illustrator 16.0.0, SVG Export Plug-In . SVG Version: 6.00 Build 0)  -->
<!DOCTYPE svg PUBLIC "-//W3C//DTD SVG 1.1//EN" "http://www.w3.org/Graphics/SVG/1.1/DTD/svg11.dtd">
<svg version="1.1" id="Capa_1" xmlns="http://www.w3.org/2000/svg" xmlns:xlink="http://www.w3.org/1999/xlink" x="0px" y="0px" width="800px" height="500px" viewBox="0 0 800 500" enable-background="new 0 0 800 500" xml:space="preserve">
	<g>
		<g id="commented">
			<path fill-rule="evenodd" clip-rule="evenodd" d="M42.109,148.957h18.786
				c0.398,0,0.723-0.332,0.723-0.74v-1.479c0-0.408-0.324-0.739-0.723-0.739H42.109c-0.398,0-0.722,0.332-0.722,0.739v1.479
				C41.387,148.625,41.71,148.957,42.109,148.957z
			M42.109,143.041h18.786
				c0.398,0,0.723-0.332,0.723-0.74v-1.479c0-0.409-0.324-0.74-0.723-0.74H42.109c-0.398,0-0.722,0.331-0.722,0.74v1.479
				C41.387,142.709,41.71,143.041,42.109,143.041z
			M50.538,156.352h12.524c2.394,0,4.335-1.987,4.335-4.438v-14.79c0-2.451-1.941-4.438-4.335-4.438H39.941
				c-2.395,0-4.335,1.987-4.335,4.438v14.79c0,2.451,1.941,4.438,4.335,4.438h1.445v7.395L50.538,156.352z
			M38.497,150.436v-11.832
				c0-1.634,1.293-2.958,2.89-2.958h20.23c1.596,0,2.89,1.324,2.89,2.958v11.832c0,1.634-1.293,2.958-2.89,2.958H49.575l-5.299,4.636
				v-4.636h-2.89C39.791,153.394,38.497,152.07,38.497,150.436z"/>
		</g>
	</g>
</svg>
