<svg width="32" height="31" xmlns="http://www.w3.org/2000/svg">
 <g>
  <title>Layer 1</title>
  <g id="svg_20">
   <g id="commented">
    <path fill-rule="evenodd" clip-rule="evenodd" style="fill:#fff" d="m14.931995,23.666h12.523998c2.394005,0 4.334999,-1.987 4.334999,-4.438004v-14.789993c0,-2.451004 -1.940994,-4.438004 -4.334999,-4.438004h-23.120995c-2.395,0 -4.334999,1.987 -4.334999,4.438004v14.789993c0,2.451004 1.940998,4.438004 4.334999,4.438004h1.445v7.395004l9.151997,-7.395004zm-12.040997,-5.916v-11.832001c0,-1.634003 1.292999,-2.957993 2.889999,-2.957993h20.23c1.596001,0 2.890003,1.32399 2.890003,2.957993v11.832001c0,1.634003 -1.293003,2.958008 -2.890003,2.958008h-12.042l-5.299,4.635986v-4.635986h-2.889999c-1.595001,-0.000015 -2.889,-1.324005 -2.889,-2.958008z" id="svg_21"/>
   </g>
  </g>
 </g>
</svg>
