<?xml version="1.0" encoding="utf-8"?>
<!-- Generator: Adobe Illustrator 16.0.0, SVG Export Plug-In . SVG Version: 6.00 Build 0)  -->
<!DOCTYPE svg PUBLIC "-//W3C//DTD SVG 1.1//EN" "http://www.w3.org/Graphics/SVG/1.1/DTD/svg11.dtd">
<svg version="1.1" id="Capa_1" xmlns="http://www.w3.org/2000/svg" xmlns:xlink="http://www.w3.org/1999/xlink" x="0px" y="0px" width="800px" height="500px" viewBox="0 0 800 500" enable-background="new 0 0 800 500" xml:space="preserve">
	<g>
		<g id="dont-like">
			<path fill-rule="evenodd" clip-rule="evenodd" d="M65.678,320.083l-8.842-1.299
				l-3.844-7.882c-0.404-0.828-1.271-1.36-2.222-1.36c-0.951,0-1.817,0.532-2.222,1.36l-3.843,7.882l-8.843,1.299
				c-0.909,0.135-1.664,0.747-1.956,1.585c-0.293,0.84-0.072,1.765,0.57,2.396l6.479,6.394l-1.502,8.864
				c-0.152,0.896,0.24,1.788,1.008,2.312c0.421,0.288,0.918,0.432,1.413,0.432c0.408,0,0.817-0.099,1.188-0.293l7.709-4.101
				l7.709,4.101c0.372,0.194,0.78,0.293,1.186,0.293c0.497,0,0.992-0.144,1.415-0.432c0.768-0.523,1.159-1.416,1.006-2.312
				l-1.503-8.864l6.481-6.394c0.642-0.632,0.861-1.557,0.57-2.396C67.341,320.83,66.587,320.218,65.678,320.083z"/>
		</g>
	</g>
</svg>
