<?xml version="1.0" encoding="UTF-8"?>
<!DOCTYPE svg PUBLIC "-//W3C//DTD SVG 1.1//EN" "http://www.w3.org/Graphics/SVG/1.1/DTD/svg11.dtd">
<!-- Creator: CorelDRAW X6 -->
<svg width="136" height="100" xmlns="http://www.w3.org/2000/svg">
 <g>
  <title>Layer 1</title>
  <g id="Layer_x0020_1">
   <metadata transform="translate(-4,0) translate(4,0) translate(0,0) scale(0.9214769005775452,0.9215328693389893) translate(0,0) translate(0,0) scale(0.8942166566848755,0.9056705832481384) translate(0,0) translate(0,0) scale(0.8543689250946045,0.8787517547607422) translate(0,0) translate(0,0) scale(0.88006991147995,0.8719746470451355) translate(0,0) translate(0,0) scale(0.8553833961486816,0.8643320202827454) translate(0,0) translate(0,0) scale(0.7724105715751648,0.8424369692802429) translate(0,0) translate(0,0) scale(0.8517739176750183,0.827217698097229) translate(0,0) translate(0,0) scale(0.7063183784484863,0.8574504852294922) translate(0,0) translate(0,0) scale(0.7861069440841675,0.7689602971076965) translate(0,0) translate(0,0) scale(0.5282899141311646,0.6603527069091797) translate(0,0) translate(0,0) scale(0.6028881072998047,0.41444113850593567) translate(0,0) translate(0,0) scale(0.5508982539176941,0.4105011820793152) translate(0,0) translate(0,0) scale(0.3876813054084778,0.5465116500854492) translate(0,0) translate(0,0) scale(1.27102792263031,1) translate(0,0) translate(0,0) scale(1,1.0531915426254272) translate(0,0) translate(0,0) scale(1,1.0101009607315063) translate(0,0) " id="CorelCorpID_0Corel-Layer"/>
   <g id="_159961392">
    <path id="svg_6" d="m116.14825,0l-96.29642,0c-10.96369,0 -19.85182,8.82548 -19.85182,19.70803l0,60.58395c0,10.88255 8.88813,19.70802 19.85182,19.70802l96.29642,0c10.96368,0 19.85181,-8.82547 19.85181,-19.70802l0,-60.58395c0,-10.88255 -8.88814,-19.70803 -19.85181,-19.70803zm8.00097,79.99337l0,0c0,4.41272 -3.54856,7.94624 -8.00097,7.94624l-96.29642,0c-4.45243,0 -8.00099,-3.53352 -8.00099,-7.94624l0,-60.28534c0,-4.41274 3.54855,-7.94625 8.00099,-7.94625l96.29642,0c4.45241,0 8.00097,3.53351 8.00097,7.94625l0,60.28534z" class="fil0"/>
   </g>
   <g id="_159960864">
    <path id="svg_7" d="m48.59177,43.23159c2.66142,-2.05708 4.45244,-5.29198 4.45244,-9.1241c0,-6.1712 -5.03828,-11.46317 -11.54955,-11.46317c-6.2267,0 -11.54955,4.99337 -11.54955,11.46317c0,3.5335 1.77428,6.76842 4.45244,8.82548c-5.62413,2.65429 -9.47397,8.22826 -9.47397,14.69808l0,14.69807c0,2.35567 2.07557,4.41274 4.45243,4.41274l24.00296,0c2.37686,0 3.84984,-2.05707 3.84984,-4.41274l0,-14.69807c0.58584,-6.17121 -2.9627,-11.76179 -8.58683,-14.41607l-0.05022,0.01661z" class="fil0"/>
   </g>
   <g id="_159960768">
    <path id="svg_8" d="m67.55646,36.46317l24.5888,0c3.26402,0 6.2267,-2.65428 6.2267,-6.1712c0,-3.53351 -2.66138,-6.1712 -6.2267,-6.1712l-24.5888,0c-3.264,0 -6.22672,2.65428 -6.22672,6.1712c0,3.53351 2.66142,6.1712 6.22672,6.1712z" class="fil0"/>
   </g>
   <g id="_159962040">
    <path id="svg_9" d="m104.29739,43.8288l-36.74094,0c-3.264,0 -6.22672,2.65429 -6.22672,6.1712c0,3.5335 2.66142,6.1712 6.22672,6.1712l37.04224,0c3.26399,0 6.22671,-2.65428 6.22671,-6.1712c0,-3.53351 -2.96272,-6.1712 -6.51127,-6.1712l-0.01674,0z" class="fil0"/>
   </g>
   <g id="_159961584">
    <path id="svg_10" d="m104.29739,63.23822l-36.74094,0c-3.54855,0 -6.22672,2.9363 -6.22672,6.1712c0,3.23489 2.66142,6.1712 6.22672,6.1712l37.04224,0c3.26399,0 6.22671,-2.65428 6.22671,-6.1712c0,-3.53351 -2.96272,-6.1712 -6.51127,-6.1712l-0.01674,0z" class="fil0"/>
   </g>
  </g>
 </g>
</svg>