<?xml version="1.0" encoding="utf-8"?>
<!-- Generator: Adobe Illustrator 16.0.0, SVG Export Plug-In . SVG Version: 6.00 Build 0)  -->
<!DOCTYPE svg PUBLIC "-//W3C//DTD SVG 1.1//EN" "http://www.w3.org/Graphics/SVG/1.1/DTD/svg11.dtd">
<svg version="1.1" id="Capa_1" xmlns="http://www.w3.org/2000/svg" xmlns:xlink="http://www.w3.org/1999/xlink" x="0px" y="0px" width="33px" height="22px" viewBox="0 0 33 22" enable-background="new 0 0 33 22" xml:space="preserve">
	<g>
		<g id="white-eye">
			<path id="svg_6" style="fill:#fff" d="m16.627003,0c-9.181999,0 -16.627003,8.687988 -16.627003,10.777008c0,2.182983 7.445004,10.781006 16.627003,10.781006c9.182999,0 16.625996,-8.598999 16.625996,-10.781006c0.000008,-2.178009 -7.442997,-10.777008 -16.625996,-10.777008zm0,20.46698c-8.542,0 -15.466,-7.751007 -15.466,-9.717987c0,-1.884003 6.924,-9.71701 15.466,-9.71701c8.542,0 15.466,7.752991 15.466,9.71701c0,1.96701 -6.924,9.717987 -15.466,9.717987zm0,-15.799988c-3.464001,0 -6.272999,2.709991 -6.272999,6.054993c0,3.346008 2.808998,6.058014 6.272999,6.058014c3.464001,0 6.271999,-2.712006 6.271999,-6.058014c0,-3.346008 -2.807999,-6.054993 -6.271999,-6.054993zm0,10.899994c-2.771999,0 -5.019001,-2.170013 -5.019001,-4.846008c0,-2.674988 2.247002,-4.845001 5.019001,-4.845001c2.771,0 5.019001,2.170013 5.019001,4.845001c0,2.676025 -2.248001,4.846008 -5.019001,4.846008z" clip-rule="evenodd" fill-rule="evenodd"/>
		</g>
	</g>
</svg>
