<?xml version="1.0" encoding="utf-8"?>
<!-- Generator: Adobe Illustrator 16.0.0, SVG Export Plug-In . SVG Version: 6.00 Build 0)  -->
<!DOCTYPE svg PUBLIC "-//W3C//DTD SVG 1.1//EN" "http://www.w3.org/Graphics/SVG/1.1/DTD/svg11.dtd">
<svg version="1.1" id="Capa_1" xmlns="http://www.w3.org/2000/svg" xmlns:xlink="http://www.w3.org/1999/xlink" x="0px" y="0px" width="800px" height="500px" viewBox="0 0 800 500" enable-background="new 0 0 800 500" xml:space="preserve">
	<g>
		<g id="facebook">
			<path fill-rule="evenodd" clip-rule="evenodd" d="M182.162,117.341c-2.437,0-4.412,1.953-4.412,4.361v25.625
				c0,2.409,1.975,4.361,4.412,4.361h26.619c2.437,0,4.413-1.952,4.413-4.361v-25.625c0-2.409-1.976-4.361-4.413-4.361H182.162z
			M206.443,133.132l-0.413,4.77h-4.333v13.779h-5.944v-13.779H192.7v-4.77h3.054v-2.95c0-4.042,1.94-6.305,6.81-6.305
				c1.693,0,2.932,0.243,4.54,0.566l-0.742,4.567c-0.826-0.161-1.939-0.283-2.643-0.283c-1.898,0-2.021,0.809-2.021,2.102v2.304
				H206.443z"/>
		</g>
	</g>
</svg>
