<?xml version="1.0" encoding="utf-8"?>
<!-- Generator: Adobe Illustrator 16.0.0, SVG Export Plug-In . SVG Version: 6.00 Build 0)  -->
<!DOCTYPE svg PUBLIC "-//W3C//DTD SVG 1.1//EN" "http://www.w3.org/Graphics/SVG/1.1/DTD/svg11.dtd">
<svg width="43" height="39" xmlns="http://www.w3.org/2000/svg">
 <g>
  <title>Layer 1</title>
  <g id="svg_3">
   <g id="link">
    <path id="svg_4" d="m26.32999,22.901c-1.07899,1.078 -2.82899,1.078 -3.907,0l-2.246,-2.245c-1.60199,-1.60001 -4.283,0.795 -2.588,2.489c0.93401,0.933 2.686,2.686 2.686,2.686c2.157,2.155 5.655,2.155 7.81299,0l12.5,-12.49701c2.158,-2.15599 2.158,-5.65199 0,-7.81l-3.37,-3.368c-2.15599,-2.15601 -5.655,-2.15601 -7.812,0c0,0 -2.89799,2.896 -4.493,4.491c-1.347,1.347 1.084,3.896 2.53999,2.44c1.412,-1.412 3.662,-3.661 3.662,-3.661c1.07899,-1.078 2.828,-1.078 3.907,0l2.44099,2.44099c1.08,1.078 1.08,2.826 0,3.905l-11.133,11.129zm-11.67099,-10.006l-12.50099,12.496c-2.158,2.155 -2.158,5.65199 0,7.80899l3.37,3.369c2.158,2.15601 5.655,2.15601 7.812,0c0,0 2.89801,-2.89799 4.493,-4.49199c1.34801,-1.34601 -1.08299,-3.895 -2.53899,-2.43901c-1.41301,1.412 -3.662,3.659 -3.662,3.659c-1.07901,1.078 -2.828,1.078 -3.907,0l-2.44101,-2.439c-1.07899,-1.078 -1.07899,-2.827 0,-3.905l11.133,-11.129c1.07901,-1.077 2.82701,-1.077 3.90701,0l2.24599,2.246c1.60201,1.601 4.283,-0.79601 2.58801,-2.489c-0.93501,-0.935 -2.686,-2.685 -2.686,-2.685c-2.15701,-2.15901 -5.65401,-2.15901 -7.813,-0.00101z" clip-rule="evenodd" fill-rule="evenodd"/>
   </g>
  </g>
 </g>
</svg>