<?xml version="1.0" encoding="utf-8"?>
<!-- Generator: Adobe Illustrator 16.0.0, SVG Export Plug-In . SVG Version: 6.00 Build 0)  -->
<!DOCTYPE svg PUBLIC "-//W3C//DTD SVG 1.1//EN" "http://www.w3.org/Graphics/SVG/1.1/DTD/svg11.dtd">
<svg width="33" height="31" xmlns="http://www.w3.org/2000/svg">
 <g>
  <title>Layer 1</title>
  <g id="svg_12">
   <g id="filter">
    <path id="svg_13" style="fill:#444" d="m27.438999,0.000999c-1.681,0 -3.049,1.321999 -3.049,2.945999v2.966999c-1.228001,0.896999 -2.033001,2.305 -2.033001,3.908001c0,1.601002 0.805,3.009998 2.033001,3.904999v14.752998c0,1.625 1.368,2.947006 3.049,2.947006c1.681,0 3.047997,-1.322006 3.047997,-2.947006v-14.753998c1.228004,-0.895 2.033005,-2.304001 2.033005,-3.904999c0,-1.603001 -0.805,-3.010002 -2.033005,-3.908001v-2.966999c0,-1.624001 -1.366997,-2.945 -3.047997,-2.945zm-1.015999,2.945999c0,-0.542999 0.454998,-0.980999 1.016998,-0.980999c0.561001,0 1.017002,0.438 1.017002,0.980999v2.062c-0.329002,-0.063999 -0.669003,-0.098 -1.017002,-0.098c-0.348,0 -0.688,0.034 -1.016998,0.098v-2.062l0,0zm2.033001,25.531998c0,0.542999 -0.456001,0.983002 -1.017002,0.983002c-0.562,0 -1.016998,-0.440002 -1.016998,-0.983002v-13.846996c0.328999,0.064999 0.667999,0.099998 1.016998,0.099998c0.348,0 0.688,-0.035 1.017002,-0.099998v13.846996l0,0zm1.895,-17.832996c-0.015999,0.051998 -0.031006,0.104 -0.050003,0.154999c-0.096001,0.257999 -0.220001,0.504002 -0.384003,0.723c-0.003998,0.006001 -0.009995,0.010002 -0.014,0.015999c-0.175995,0.234001 -0.386993,0.441002 -0.625999,0.615002c-0.003998,0.004002 -0.006996,0.006001 -0.009995,0.007999c-0.246002,0.178001 -0.518002,0.322002 -0.812004,0.422001c-0.320999,0.111 -0.657997,0.181999 -1.016998,0.181999s-0.695999,-0.07 -1.017002,-0.181999c-0.293999,-0.099998 -0.565998,-0.243999 -0.811996,-0.422001c-0.003002,-0.001999 -0.006001,-0.003998 -0.010002,-0.007999c-0.238998,-0.174 -0.450001,-0.381001 -0.625999,-0.615002c-0.004002,-0.004997 -0.009998,-0.008999 -0.014,-0.015999c-0.164001,-0.218998 -0.288002,-0.464001 -0.383999,-0.723c-0.019001,-0.050999 -0.034,-0.104 -0.049,-0.154999c-0.082001,-0.263 -0.137001,-0.537003 -0.137001,-0.825001c0,-0.291 0.055,-0.563999 0.137001,-0.827999c0.014999,-0.051003 0.029999,-0.103001 0.049,-0.153c0.095997,-0.259003 0.219997,-0.505001 0.383999,-0.725002c0.004002,-0.006001 0.009998,-0.008999 0.014,-0.015999c0.175999,-0.231998 0.387001,-0.441002 0.625999,-0.616001c0.004002,-0.001999 0.007,-0.006001 0.010002,-0.007999c0.245998,-0.176998 0.517998,-0.32 0.811996,-0.422001c0.320004,-0.108997 0.658001,-0.18 1.017002,-0.18s0.695999,0.071003 1.016998,0.18c0.293003,0.102001 0.566002,0.245003 0.812004,0.422001c0.002998,0.001999 0.004997,0.005001 0.009995,0.007999c0.239006,0.174 0.450005,0.384003 0.625999,0.616001c0.004005,0.006001 0.010002,0.009998 0.014,0.015999c0.164001,0.220001 0.288002,0.466 0.384003,0.725002c0.020004,0.049999 0.034004,0.101997 0.050003,0.153c0.081001,0.264 0.135994,0.536999 0.135994,0.827999c0,0.287998 -0.054993,0.562 -0.135994,0.825001zm-25.271004,20.780003c1.682003,0 3.050003,-1.322006 3.050003,-2.947006v-14.752998c1.227997,-0.895 2.031998,-2.304001 2.031998,-3.904999c0,-1.603001 -0.804001,-3.010002 -2.031998,-3.908001v-2.966999c0,-1.625 -1.368,-2.945999 -3.050003,-2.945999c-1.681,0 -3.048,1.321999 -3.048,2.945999v2.966999c-1.227997,0.896999 -2.031998,2.305 -2.031998,3.908001c0,1.600998 0.804001,3.009998 2.031998,3.904999v14.752998c0,1.625 1.368,2.947006 3.048,2.947006zm1.017002,-2.947006c0,0.542999 -0.455002,0.983002 -1.017002,0.983002c-0.560997,0 -1.015999,-0.440002 -1.015999,-0.983002v-13.846996c0.327999,0.064999 0.667999,0.099998 1.015999,0.099998c0.349003,0 0.688,-0.035 1.017002,-0.099998v13.846996l0,0zm-2.032001,-25.531998c0,-0.542999 0.455002,-0.980999 1.016003,-0.980999c0.561996,0 1.016998,0.438 1.016998,0.980999v2.062c-0.328999,-0.063999 -0.667,-0.098 -1.016998,-0.098c-0.348003,0 -0.688004,0.034 -1.016003,0.098v-2.062l0,0zm-1.896,6.047001c0.015999,-0.051003 0.030003,-0.103001 0.049999,-0.153c0.096001,-0.259003 0.219002,-0.505001 0.383003,-0.725002c0.003998,-0.005997 0.008999,-0.008999 0.014,-0.015999c0.176998,-0.231998 0.387997,-0.440998 0.626999,-0.616001c0.001999,-0.001999 0.006001,-0.005997 0.008999,-0.007999c0.244999,-0.176998 0.518002,-0.32 0.812,-0.422001c0.319,-0.108997 0.658001,-0.179996 1.015999,-0.179996c0.358002,0 0.697002,0.070999 1.017002,0.179996c0.293999,0.102001 0.566998,0.245003 0.812,0.422001c0.001999,0.002003 0.006001,0.005001 0.009998,0.007999c0.239002,0.174 0.450001,0.384003 0.625999,0.616001c0.004002,0.006001 0.010002,0.010002 0.014,0.015999c0.164001,0.220001 0.289001,0.466 0.384003,0.725002c0.018997,0.049999 0.034,0.101997 0.049,0.153c0.082001,0.264 0.138,0.536999 0.138,0.827999c0,0.288002 -0.056,0.562 -0.138,0.825001c-0.014999,0.051998 -0.031002,0.104 -0.049,0.154999c-0.096001,0.257999 -0.221001,0.504002 -0.384003,0.723c-0.003998,0.006001 -0.009998,0.010002 -0.014,0.016003c-0.175999,0.233997 -0.386997,0.440998 -0.625999,0.614998c-0.003998,0.004002 -0.007,0.006001 -0.009998,0.007999c-0.245003,0.178001 -0.518002,0.322002 -0.812,0.422001c-0.319,0.111 -0.658001,0.181999 -1.017002,0.181999c-0.357998,0 -0.695999,-0.07 -1.015999,-0.181999c-0.293999,-0.099998 -0.567001,-0.243999 -0.812,-0.422001c-0.002998,-0.001999 -0.007,-0.003998 -0.008999,-0.007999c-0.240002,-0.174 -0.451,-0.381001 -0.626999,-0.614998c-0.004002,-0.005001 -0.009003,-0.009003 -0.014,-0.016003c-0.164001,-0.218998 -0.288002,-0.464001 -0.383003,-0.723c-0.019997,-0.050999 -0.034,-0.104 -0.049999,-0.154999c-0.080997,-0.263 -0.137001,-0.536999 -0.137001,-0.825001c0,-0.291 0.056004,-0.563999 0.137001,-0.827999zm11.042,16.516003v2.968994c0,1.625 1.368,2.947006 3.049,2.947006s3.049,-1.322006 3.049,-2.947006v-2.968994c1.228001,-0.895004 2.032001,-2.303001 2.032001,-3.905006s-0.804001,-3.008995 -2.032001,-3.906998v-14.750999c0,-1.625 -1.368,-2.945999 -3.049,-2.945999s-3.049,1.321999 -3.049,2.945999v14.751999c-1.228001,0.897003 -2.031998,2.305 -2.031998,3.906998s0.803997,3.009003 2.031998,3.904007zm4.065002,2.968994c0,0.542999 -0.455002,0.983002 -1.016003,0.983002s-1.016998,-0.440002 -1.016998,-0.983002v-2.063995c0.327999,0.064995 0.668999,0.100998 1.016998,0.100998c0.348,0 0.688,-0.035004 1.016003,-0.100998v2.063995l0,0zm-2.033001,-25.531998c0,-0.542999 0.454998,-0.980999 1.016998,-0.980999s1.016003,0.438 1.016003,0.980999v13.846001c-0.329002,-0.063 -0.668003,-0.098 -1.016003,-0.098c-0.348,0 -0.688999,0.035 -1.016998,0.098v-13.846001l0,0zm-1.895,17.832001c0.014999,-0.051003 0.029999,-0.104004 0.049,-0.153999c0.096001,-0.259003 0.221001,-0.503998 0.382999,-0.724998c0.004002,-0.006004 0.011002,-0.010002 0.014999,-0.016006c0.176003,-0.231995 0.387001,-0.440994 0.625999,-0.614998c0.004002,-0.001999 0.007,-0.005997 0.010002,-0.007996c0.244999,-0.177002 0.518002,-0.32 0.812,-0.422005c0.32,-0.109001 0.658001,-0.18 1.016998,-0.18c0.358002,0 0.696003,0.070999 1.016003,0.18c0.293999,0.102005 0.565998,0.245003 0.812,0.422005c0.002998,0.000999 0.005997,0.004997 0.010998,0.007996c0.239002,0.174004 0.450001,0.383003 0.625,0.614998c0.004002,0.006004 0.010002,0.010002 0.014999,0.016006c0.163002,0.221001 0.288002,0.464996 0.382999,0.724998c0.019001,0.049995 0.034,0.102997 0.050003,0.153999c0.080997,0.262001 0.136997,0.537003 0.136997,0.826996c0,0.287003 -0.056,0.562004 -0.136997,0.825005c-0.016003,0.052002 -0.031002,0.103996 -0.050003,0.154999c-0.095997,0.260002 -0.220997,0.504997 -0.382999,0.723c-0.003998,0.006004 -0.010998,0.010002 -0.014999,0.015999c-0.175999,0.234001 -0.387001,0.440002 -0.625,0.616005c-0.003998,0.002998 -0.007,0.004997 -0.010998,0.007996c-0.245003,0.178001 -0.518002,0.321999 -0.812,0.420998c-0.32,0.111 -0.658001,0.183006 -1.016003,0.183006c-0.358997,0 -0.696999,-0.070999 -1.016998,-0.183006c-0.293999,-0.099998 -0.566002,-0.242996 -0.812,-0.420998c-0.003002,-0.002998 -0.006001,-0.003998 -0.010002,-0.007996c-0.238998,-0.176003 -0.449997,-0.382004 -0.625999,-0.616005c-0.003998,-0.005997 -0.010998,-0.008995 -0.014999,-0.015999c-0.162998,-0.218002 -0.287998,-0.462997 -0.382999,-0.723c-0.019001,-0.051003 -0.034,-0.102997 -0.049,-0.154999c-0.082001,-0.263 -0.138,-0.538002 -0.138,-0.825005c0.000999,-0.289993 0.056,-0.564995 0.138,-0.826996z" clip-rule="evenodd" fill-rule="evenodd"/>
   </g>
  </g>
 </g>
</svg>
