<?xml version="1.0" encoding="utf-8"?>
<!-- Generator: Adobe Illustrator 16.0.0, SVG Export Plug-In . SVG Version: 6.00 Build 0)  -->
<!DOCTYPE svg PUBLIC "-//W3C//DTD SVG 1.1//EN" "http://www.w3.org/Graphics/SVG/1.1/DTD/svg11.dtd">
<svg width="30" height="27" xmlns="http://www.w3.org/2000/svg">
 <g>
  <title>Layer 1</title>
  <g id="svg_2">
   <g id="camera">
    <path fill-rule="evenodd" clip-rule="evenodd" d="m14.96799,20.79228c3.5111,0 6.35715,-2.9522 6.35715,-6.59834c0,-3.64222 -2.84605,-6.59634 -6.35715,-6.59634c-3.5111,0 -6.35813,2.95413 -6.35813,6.59634c0,3.64518 2.84703,6.59834 6.35813,6.59834zm0,-10.26231c1.95018,0 3.53164,1.64141 3.53164,3.66397c0,2.02652 -1.58146,3.66793 -3.53164,3.66793c-1.95116,0 -3.53262,-1.64141 -3.53262,-3.66793c0.00098,-2.02256 1.58146,-3.66397 3.53262,-3.66397zm-11.30204,16.12902h22.60407c1.95115,0 3.53165,-1.64144 3.53165,-3.66596v-14.66186c0,-2.02652 -1.5805,-3.66696 -3.53165,-3.66696h-1.5531l-1.97756,-1.46518c-0.6631,-1.43847 -2.67783,-2.93238 -4.23778,-2.93238h-7.06426c-1.56092,0 -3.39961,1.12958 -4.23875,2.93238l-1.97756,1.46518h-1.55408c-1.95116,0 -3.53164,1.64044 -3.53164,3.66696v14.66186c-0.00196,2.02356 1.57951,3.66596 3.53066,3.66596zm-0.70711,-16.86264c0,-0.95631 0.59366,-1.89482 1.41324,-2.19975h2.82453l2.82551,-2.93337c0.5741,-1.08405 2.04505,-1.46518 2.82649,-1.46518h4.23777c0.77949,0 2.29542,0.42865 2.82551,1.46518l2.82551,2.93337h2.82453c0.81958,0.30493 1.41323,1.24345 1.41323,2.19975v11.73048c0,1.21475 -0.94867,2.19779 -2.11937,2.19779h-19.77954c-1.16972,0 -2.11938,-0.98305 -2.11938,-2.19779v-11.73048l0.00196,0z" id="svg_3"/>
   </g>
  </g>
 </g>
</svg>