<?xml version="1.0" encoding="utf-8"?>
<!-- Generator: Adobe Illustrator 16.0.0, SVG Export Plug-In . SVG Version: 6.00 Build 0)  -->
<!DOCTYPE svg PUBLIC "-//W3C//DTD SVG 1.1//EN" "http://www.w3.org/Graphics/SVG/1.1/DTD/svg11.dtd">
<svg version="1.1" id="Capa_1" xmlns="http://www.w3.org/2000/svg" xmlns:xlink="http://www.w3.org/1999/xlink" x="0px" y="0px" width="800px" height="500px" viewBox="0 0 800 500" enable-background="new 0 0 800 500" xml:space="preserve">
	<g>
		<g id="filter">
			<path fill-rule="evenodd" clip-rule="evenodd" d="M62.681,45.721c-1.681,0-3.049,1.322-3.049,2.946v2.967
				c-1.228,0.897-2.033,2.305-2.033,3.908c0,1.601,0.805,3.01,2.033,3.905v14.753c0,1.625,1.368,2.947,3.049,2.947
				c1.681,0,3.048-1.322,3.048-2.947V59.446c1.228-0.895,2.033-2.304,2.033-3.905c0-1.603-0.805-3.01-2.033-3.908v-2.967
				C65.729,47.042,64.362,45.721,62.681,45.721z
			M61.665,48.667c0-0.543,0.455-0.981,1.017-0.981c0.561,0,1.017,0.438,1.017,0.981
				v2.062c-0.329-0.064-0.669-0.098-1.017-0.098c-0.348,0-0.688,0.034-1.017,0.098V48.667z
			M63.698,74.199
				c0,0.543-0.456,0.983-1.017,0.983c-0.562,0-1.017-0.44-1.017-0.983V60.352c0.329,0.065,0.668,0.1,1.017,0.1
				c0.348,0,0.688-0.035,1.017-0.1V74.199z
			M65.593,56.366c-0.016,0.052-0.031,0.104-0.05,0.155c-0.096,0.258-0.22,0.504-0.384,0.723
				c-0.004,0.006-0.01,0.01-0.014,0.016c-0.176,0.234-0.387,0.441-0.626,0.615c-0.004,0.004-0.007,0.006-0.01,0.008
				c-0.246,0.178-0.518,0.322-0.812,0.422c-0.321,0.111-0.658,0.182-1.017,0.182s-0.696-0.07-1.017-0.182
				c-0.294-0.1-0.566-0.244-0.812-0.422c-0.003-0.002-0.006-0.004-0.01-0.008c-0.239-0.174-0.45-0.381-0.626-0.615
				c-0.004-0.005-0.01-0.009-0.014-0.016c-0.164-0.219-0.288-0.464-0.384-0.723c-0.019-0.051-0.034-0.104-0.049-0.155
				c-0.082-0.263-0.137-0.537-0.137-0.825c0-0.291,0.055-0.564,0.137-0.828c0.015-0.051,0.03-0.103,0.049-0.153
				c0.096-0.259,0.22-0.505,0.384-0.725c0.004-0.006,0.01-0.009,0.014-0.016c0.176-0.232,0.387-0.441,0.626-0.616
				c0.004-0.002,0.007-0.006,0.01-0.008c0.246-0.177,0.518-0.32,0.812-0.422c0.32-0.109,0.658-0.18,1.017-0.18
				s0.696,0.071,1.017,0.18c0.293,0.102,0.566,0.245,0.812,0.422c0.003,0.002,0.005,0.005,0.01,0.008
				c0.239,0.174,0.45,0.384,0.626,0.616c0.004,0.006,0.01,0.01,0.014,0.016c0.164,0.22,0.288,0.466,0.384,0.725
				c0.02,0.05,0.034,0.102,0.05,0.153c0.081,0.264,0.136,0.537,0.136,0.828C65.729,55.829,65.674,56.103,65.593,56.366z
			M40.322,77.146
				c1.682,0,3.05-1.322,3.05-2.947V59.446c1.228-0.895,2.032-2.304,2.032-3.905c0-1.603-0.804-3.01-2.032-3.908v-2.967
				c0-1.625-1.368-2.946-3.05-2.946c-1.681,0-3.048,1.322-3.048,2.946v2.967c-1.228,0.897-2.032,2.305-2.032,3.908
				c0,1.601,0.804,3.01,2.032,3.905v14.753C37.274,75.824,38.642,77.146,40.322,77.146z
			M41.339,74.199
				c0,0.543-0.455,0.983-1.017,0.983c-0.561,0-1.016-0.44-1.016-0.983V60.352c0.328,0.065,0.668,0.1,1.016,0.1
				c0.349,0,0.688-0.035,1.017-0.1V74.199z
			M39.307,48.667c0-0.543,0.455-0.981,1.016-0.981c0.562,0,1.017,0.438,1.017,0.981v2.062
				c-0.329-0.064-0.667-0.098-1.017-0.098c-0.348,0-0.688,0.034-1.016,0.098V48.667z
			M37.411,54.714
				c0.016-0.051,0.03-0.103,0.05-0.153c0.096-0.259,0.219-0.505,0.383-0.725c0.004-0.006,0.009-0.009,0.014-0.016
				c0.177-0.232,0.388-0.441,0.627-0.616c0.002-0.002,0.006-0.006,0.009-0.008c0.245-0.177,0.518-0.32,0.812-0.422
				c0.319-0.109,0.658-0.18,1.016-0.18c0.358,0,0.697,0.071,1.017,0.18c0.294,0.102,0.567,0.245,0.812,0.422
				c0.002,0.002,0.006,0.005,0.01,0.008c0.239,0.174,0.45,0.384,0.626,0.616c0.004,0.006,0.01,0.01,0.014,0.016
				c0.164,0.22,0.289,0.466,0.384,0.725c0.019,0.05,0.034,0.102,0.049,0.153c0.082,0.264,0.138,0.537,0.138,0.828
				c0,0.288-0.056,0.562-0.138,0.825c-0.015,0.052-0.031,0.104-0.049,0.155c-0.096,0.258-0.221,0.504-0.384,0.723
				c-0.004,0.006-0.01,0.01-0.014,0.016c-0.176,0.234-0.387,0.441-0.626,0.615c-0.004,0.004-0.007,0.006-0.01,0.008
				c-0.245,0.178-0.518,0.322-0.812,0.422c-0.319,0.111-0.658,0.182-1.017,0.182c-0.358,0-0.696-0.07-1.016-0.182
				c-0.294-0.1-0.567-0.244-0.812-0.422c-0.003-0.002-0.007-0.004-0.009-0.008c-0.24-0.174-0.451-0.381-0.627-0.615
				c-0.004-0.005-0.009-0.009-0.014-0.016c-0.164-0.219-0.288-0.464-0.383-0.723c-0.02-0.051-0.034-0.104-0.05-0.155
				c-0.081-0.263-0.137-0.537-0.137-0.825C37.274,55.251,37.33,54.978,37.411,54.714z
			M48.453,71.23v2.969
				c0,1.625,1.368,2.947,3.049,2.947s3.049-1.322,3.049-2.947V71.23c1.228-0.895,2.032-2.303,2.032-3.905s-0.804-3.009-2.032-3.907
				V48.667c0-1.625-1.368-2.946-3.049-2.946s-3.049,1.322-3.049,2.946v14.752c-1.228,0.897-2.032,2.305-2.032,3.907
				S47.225,70.335,48.453,71.23z
			M52.518,74.199c0,0.543-0.455,0.983-1.016,0.983s-1.017-0.44-1.017-0.983v-2.064
				c0.328,0.065,0.669,0.101,1.017,0.101c0.348,0,0.688-0.035,1.016-0.101V74.199z
			M50.485,48.667c0-0.543,0.455-0.981,1.017-0.981
				s1.016,0.438,1.016,0.981v13.846c-0.329-0.063-0.668-0.098-1.016-0.098c-0.348,0-0.689,0.035-1.017,0.098V48.667z
			M48.59,66.499
				c0.015-0.051,0.03-0.104,0.049-0.154c0.096-0.259,0.221-0.504,0.383-0.725c0.004-0.006,0.011-0.01,0.015-0.016
				c0.176-0.232,0.387-0.441,0.626-0.615c0.004-0.002,0.007-0.006,0.01-0.008c0.245-0.177,0.518-0.32,0.812-0.422
				c0.32-0.109,0.658-0.18,1.017-0.18c0.358,0,0.696,0.071,1.016,0.18c0.294,0.102,0.566,0.245,0.812,0.422
				c0.003,0.001,0.006,0.005,0.011,0.008c0.239,0.174,0.45,0.383,0.625,0.615c0.004,0.006,0.01,0.01,0.015,0.016
				c0.163,0.221,0.288,0.465,0.383,0.725c0.019,0.05,0.034,0.103,0.05,0.154c0.081,0.262,0.137,0.537,0.137,0.827
				c0,0.287-0.056,0.562-0.137,0.825c-0.016,0.052-0.031,0.104-0.05,0.155c-0.096,0.26-0.221,0.505-0.383,0.723
				c-0.004,0.006-0.011,0.01-0.015,0.016c-0.176,0.234-0.387,0.44-0.625,0.616c-0.004,0.003-0.007,0.005-0.011,0.008
				c-0.245,0.178-0.518,0.322-0.812,0.421c-0.32,0.111-0.658,0.183-1.016,0.183c-0.359,0-0.697-0.071-1.017-0.183
				c-0.294-0.1-0.566-0.243-0.812-0.421c-0.003-0.003-0.006-0.004-0.01-0.008c-0.239-0.176-0.45-0.382-0.626-0.616
				c-0.004-0.006-0.011-0.009-0.015-0.016c-0.163-0.218-0.288-0.463-0.383-0.723c-0.019-0.051-0.034-0.103-0.049-0.155
				c-0.082-0.263-0.138-0.538-0.138-0.825C48.453,67.036,48.508,66.761,48.59,66.499z"/>
		</g>
	</g>
</svg>
