<?xml version="1.0" encoding="utf-8"?>
<!-- Generator: Adobe Illustrator 16.0.0, SVG Export Plug-In . SVG Version: 6.00 Build 0)  -->
<!DOCTYPE svg PUBLIC "-//W3C//DTD SVG 1.1//EN" "http://www.w3.org/Graphics/SVG/1.1/DTD/svg11.dtd">
<svg width="50" height="32" xmlns="http://www.w3.org/2000/svg">
 <g>
  <title>Layer 1</title>
  <g id="svg_4">
   <g id="camara">
    <path id="svg_5" d="m46.882,1.444h-1.25c-0.743,0 -1.455,0.3 -1.983,0.83301l-8.34601,4.99699v-2.939c0,-2.395 -1.896,-4.33501 -4.23599,-4.33501h-26.83099c-2.33601,0 -4.23601,1.94501 -4.23601,4.33501v23.125c0,2.396 1.896,4.33499 4.23601,4.33499h26.83099c2.339,0 4.23599,-1.93999 4.23599,-4.33499v-2.89799l8.34601,4.99799c0.52899,0.53401 1.241,0.83301 1.983,0.83301h1.25c1.561,0 2.825,-1.29401 2.825,-2.89101v-23.166c0,-1.597 -1.26399,-2.892 -2.825,-2.892zm-15.144,25.43701c0,0.758 -0.60201,1.37299 -1.341,1.37299h-25.489c-0.74001,0 -1.34201,-0.61499 -1.34201,-1.37299v-21.968c0,-0.759 0.60101,-1.37401 1.34201,-1.37401h25.489c0.739,0 1.341,0.616 1.341,1.37401v21.968l0,0zm15.144,0.62h-1.25h-0.162l-10.638,-7.26801v-8.672l10.638,-7.22701h0.162h1.25v23.16701l0,0z" clip-rule="evenodd" fill-rule="evenodd"/>
   </g>
  </g>
 </g>
</svg>