<?xml version="1.0" encoding="utf-8"?>
<!-- Generator: Adobe Illustrator 16.0.0, SVG Export Plug-In . SVG Version: 6.00 Build 0)  -->
<!DOCTYPE svg PUBLIC "-//W3C//DTD SVG 1.1//EN" "http://www.w3.org/Graphics/SVG/1.1/DTD/svg11.dtd">
<svg version="1.1" id="Capa_1" xmlns="http://www.w3.org/2000/svg" xmlns:xlink="http://www.w3.org/1999/xlink" x="0px" y="0px" width="800px" height="500px" viewBox="0 0 800 500" enable-background="new 0 0 800 500" xml:space="preserve">
	<g>
		<g id="home-selected">
			<path fill-rule="evenodd" clip-rule="evenodd" d="M34.899,182.526c0.269,0.666,0.575,1.575,0.575,1.575
				c0.152,0.409,0.632,0.627,1.072,0.486l3.189-1.677v16.64c0,1.82,1.482,3.297,3.31,3.297h0.002h5.643v-10.497
				c0-1.45,1.179-2.625,2.631-2.625c1.406,0,2.555,1.1,2.627,2.484c0.003,0.043,0.003,0.088,0.003,0.132v10.506h0h5.642h0.001
				c1.828,0,3.31-1.477,3.31-3.297v-16.64l3.191,1.678c0.44,0.141,0.921-0.077,1.072-0.486l0.549-1.482
				c-0.216,0.581,0.495-0.688-0.521-1.014l-15.876-8.357l-15.876,8.357C35.032,181.737,34.801,182.138,34.899,182.526z" style="fill:#fff"/>
		</g>
	</g>
</svg>
