<?xml version="1.0" encoding="utf-8"?>
<!-- Generator: Adobe Illustrator 16.0.0, SVG Export Plug-In . SVG Version: 6.00 Build 0)  -->
<!DOCTYPE svg PUBLIC "-//W3C//DTD SVG 1.1//EN" "http://www.w3.org/Graphics/SVG/1.1/DTD/svg11.dtd">
<svg version="1.1" id="Capa_1" xmlns="http://www.w3.org/2000/svg" xmlns:xlink="http://www.w3.org/1999/xlink" x="0px" y="0px" width="800px" height="500px" viewBox="0 0 800 500" enable-background="new 0 0 800 500" xml:space="preserve">
	<g>
		<g id="home-deselected">
			<path fill-rule="evenodd" clip-rule="evenodd" d="M67.208,218.146l-15.881-8.357
				l-15.881,8.357c-0.413,0.133-0.644,0.533-0.546,0.921c0.269,0.666,0.575,1.575,0.575,1.575c0.152,0.41,0.632,0.626,1.072,0.486
				l3.191-1.677v16.638c0,1.822,1.482,3.298,3.311,3.298h0.002h5.645v-10.498c0-1.45,1.179-2.624,2.632-2.624
				c1.406,0,2.555,1.101,2.628,2.484c0.001,0.043,0.003,0.087,0.003,0.131v10.506h0.001h5.645h0c1.829,0,3.312-1.476,3.312-3.298
				V219.45l3.193,1.678c0.439,0.14,0.919-0.077,1.071-0.486l0.549-1.483C67.514,219.739,68.224,218.471,67.208,218.146z
			M66.484,219.564c-0.134,0.243-0.646,0.162-0.646,0.162l-3.975-2.046v17.408c0,1.649-0.776,2.987-2.386,3.009h-4.286v-9.644
				c0-1.324-1.315-3.472-3.702-3.472c-0.011,0-0.02,0-0.03,0c-0.097-0.006-0.195-0.011-0.294-0.011c-2.387,0-3.703,2.149-3.703,3.475
				v9.652h-4.247c-1.637,0-2.426-1.349-2.426-3.012v-17.422l-3.976,2.048c0,0-0.512,0.081-0.646-0.162
				c-0.134-0.242,0.162-0.591,0.162-0.591l14.978-7.917l15.018,7.933C66.323,218.974,66.619,219.323,66.484,219.564z" style="fill:#fff"/>
		</g>
	</g>
</svg>
