<?xml version="1.0" encoding="utf-8"?>
<!-- Generator: Adobe Illustrator 16.0.0, SVG Export Plug-In . SVG Version: 6.00 Build 0)  -->
<!DOCTYPE svg PUBLIC "-//W3C//DTD SVG 1.1//EN" "http://www.w3.org/Graphics/SVG/1.1/DTD/svg11.dtd">
<svg version="1.1" id="Capa_1" xmlns="http://www.w3.org/2000/svg" xmlns:xlink="http://www.w3.org/1999/xlink" x="0px" y="0px" width="33px" height="33px" viewBox="0 0 33 33" enable-background="new 0 0 33 33" xml:space="preserve">
	<g>
		<g id="home-deselected">
			<path id="svg_4" style="fill:#fff;" d="m32.406002,8.356995l-15.881001,-8.356995l-15.881,8.356995c-0.412998,0.133011 -0.644001,0.533005 -0.545998,0.921005c0.268997,0.666 0.574997,1.574997 0.574997,1.574997c0.152,0.410004 0.632,0.626007 1.072002,0.486008l3.190998,-1.677002v16.638c0,1.821991 1.482002,3.297989 3.311001,3.297989h0.001999h5.645v-10.497986c0,-1.450012 1.179001,-2.624008 2.632,-2.624008c1.406002,0 2.555,1.100998 2.628002,2.483994c0.000999,0.043015 0.002998,0.087006 0.002998,0.131012v10.505997h0.000999h5.645h0c1.828999,0 3.312,-1.475998 3.312,-3.298004v-16.638l3.193001,1.678009c0.439003,0.139999 0.918999,-0.077011 1.070999,-0.486008l0.549004,-1.483002c-0.216003,0.580002 0.493996,-0.688004 -0.522003,-1.013zm-0.723999,1.417999c-0.134003,0.243011 -0.646004,0.162003 -0.646004,0.162003l-3.974998,-2.046005v17.408005c0,1.649002 -0.775997,2.987 -2.385998,3.009003h-4.285999v-9.643997c0,-1.324005 -1.315002,-3.472 -3.702003,-3.472c-0.010998,0 -0.019997,0 -0.029999,0c-0.097,-0.005997 -0.195,-0.011002 -0.293999,-0.011002c-2.387001,0 -3.702999,2.149002 -3.702999,3.475006v9.651993h-4.247002c-1.637001,0 -2.425999,-1.348999 -2.425999,-3.011993v-17.422012l-3.976002,2.048004c0,0 -0.512001,0.081009 -0.646,-0.162003c-0.133999,-0.241989 0.161999,-0.591003 0.161999,-0.591003l14.978001,-7.916992l15.017998,7.932999c-0.001999,0 0.294006,0.348999 0.159004,0.589996z" clip-rule="evenodd" fill-rule="evenodd"/>
		</g>
	</g>
</svg>
