<?xml version="1.0" encoding="utf-8"?>
<!-- Generator: Adobe Illustrator 16.0.0, SVG Export Plug-In . SVG Version: 6.00 Build 0)  -->
<!DOCTYPE svg PUBLIC "-//W3C//DTD SVG 1.1//EN" "http://www.w3.org/Graphics/SVG/1.1/DTD/svg11.dtd">
<svg version="1.1" id="Capa_1" xmlns="http://www.w3.org/2000/svg" xmlns:xlink="http://www.w3.org/1999/xlink" x="0px" y="0px" width="33px" height="30px" viewBox="0 0 33 30" enable-background="new 0 0 33 30" xml:space="preserve">
	<g>
		<g id="home-selected">
			<path id="svg_5" style="fill:#fff;" d="m0.098,9.277008c0.269001,0.666 0.575001,1.574997 0.575001,1.574997c0.152,0.408997 0.632,0.626999 1.071999,0.486008l3.188999,-1.677002v16.639999c0,1.819992 1.482002,3.296997 3.310001,3.296997h0.001999h5.643002v-10.496994c0,-1.450012 1.179001,-2.625 2.631001,-2.625c1.405998,0 2.555,1.099991 2.626999,2.483994c0.003002,0.042999 0.003002,0.087997 0.003002,0.132004v10.505997h0h5.641998h0.000999c1.828003,0 3.310001,-1.477005 3.310001,-3.296997v-16.639999l3.191002,1.677994c0.439995,0.141006 0.920998,-0.076996 1.071999,-0.485992l0.548996,-1.48201c-0.215996,0.581009 0.495003,-0.687988 -0.520996,-1.013992l-15.876003,-8.35701l-15.875999,8.35701c-0.410995,0.130997 -0.641998,0.531998 -0.543999,0.919998z" clip-rule="evenodd" fill-rule="evenodd"/>
		</g>
	</g>
</svg>
