<?xml version="1.0" encoding="utf-8"?>
<!-- Generator: Adobe Illustrator 16.0.0, SVG Export Plug-In . SVG Version: 6.00 Build 0)  -->
<!DOCTYPE svg PUBLIC "-//W3C//DTD SVG 1.1//EN" "http://www.w3.org/Graphics/SVG/1.1/DTD/svg11.dtd">
<svg version="1.1" id="Capa_1" xmlns="http://www.w3.org/2000/svg" xmlns:xlink="http://www.w3.org/1999/xlink" x="0px" y="0px" width="800px" height="500px" viewBox="0 0 800 500" enable-background="new 0 0 800 500" xml:space="preserve">
	<g>
		<g id="infinito">
			<path fill-rule="evenodd" clip-rule="evenodd" d="M202.689,267.519c-4.899,0-8.94,2.826-11.054,6.857c-2.119-4.031-6.171-6.857-11.104-6.857c-7.259,0-12.652,6.192-12.652,13.341
				c0,7.147,5.394,13.338,12.652,13.338c4.933,0,8.985-2.825,11.104-6.855c2.114,4.03,6.155,6.855,11.054,6.855
				c7.31,0,12.702-6.19,12.702-13.338C215.391,273.711,209.999,267.519,202.689,267.519z
			M180.531,291.932
				c-4.94,0-10.03-4.076-10.03-11.072c0-6.997,5.09-10.926,10.03-10.926c4.289,0,8.643,2.91,9.784,8.169
				c-0.179,0.896-0.277,1.816-0.277,2.757c0,0.941,0.099,1.864,0.278,2.761C189.177,288.912,184.821,291.932,180.531,291.932z
			M202.689,291.932c-4.247,0-8.595-3.02-9.735-8.31c0.18-0.897,0.279-1.82,0.279-2.763c0-0.94-0.099-1.863-0.278-2.759
				c1.141-5.258,5.489-8.167,9.734-8.167c4.99,0,10.082,3.929,10.082,10.926C212.771,287.855,207.679,291.932,202.689,291.932z"/>
		</g>
	</g>
</svg>
