<?xml version="1.0" encoding="utf-8"?>
<!-- Generator: Adobe Illustrator 16.0.0, SVG Export Plug-In . SVG Version: 6.00 Build 0)  -->
<!DOCTYPE svg PUBLIC "-//W3C//DTD SVG 1.1//EN" "http://www.w3.org/Graphics/SVG/1.1/DTD/svg11.dtd">
<svg version="1.1" id="Capa_1" xmlns="http://www.w3.org/2000/svg" xmlns:xlink="http://www.w3.org/1999/xlink" x="0px" y="0px" width="800px" height="500px" viewBox="0 0 800 500" enable-background="new 0 0 800 500" xml:space="preserve">
	<g>
		<g id="info">
			<path fill-rule="evenodd" clip-rule="evenodd" d="M206.617,326.537c0-9.586-7.771-17.359-17.356-17.359
				c-9.586,0-17.357,7.773-17.357,17.359c0,9.585,7.771,17.354,17.357,17.354C198.846,343.891,206.617,336.122,206.617,326.537z
			M189.26,342.156c-8.628,0-15.621-6.993-15.621-15.619c0-8.629,6.993-15.622,15.621-15.622c8.627,0,15.621,6.993,15.621,15.622
				C204.881,335.163,197.888,342.156,189.26,342.156z
			M190.838,323.382v-0.791h-3.156h-1.578v0.791h1.578v11.833h-1.578v0.788h1.578
				h3.156h1.578v-0.788h-1.578V323.382z
			M189.26,320.371
				c1.199,0,2.169-0.971,2.169-2.168s-0.971-2.17-2.169-2.17c-1.198,0-2.17,0.973-2.17,2.17S188.062,320.371,189.26,320.371z"/>
		</g>
	</g>
</svg>
