<?xml version="1.0" encoding="utf-8"?>
<!-- Generator: Adobe Illustrator 16.0.0, SVG Export Plug-In . SVG Version: 6.00 Build 0)  -->
<!DOCTYPE svg PUBLIC "-//W3C//DTD SVG 1.1//EN" "http://www.w3.org/Graphics/SVG/1.1/DTD/svg11.dtd">
<svg version="1.1" id="Capa_1" xmlns="http://www.w3.org/2000/svg" xmlns:xlink="http://www.w3.org/1999/xlink" x="0px" y="0px" width="800px" height="500px" viewBox="0 0 800 500" enable-background="new 0 0 800 500" xml:space="preserve">
	<g>
		<g id="like">
			<path fill-rule="evenodd" clip-rule="evenodd" d="M65.678,363.567l-8.842-1.3l-3.844-7.882c-0.404-0.83-1.271-1.357-2.222-1.357
				c-0.951,0-1.817,0.527-2.222,1.357l-3.843,7.882l-8.843,1.3c-0.909,0.132-1.664,0.745-1.956,1.585
				c-0.293,0.84-0.072,1.765,0.57,2.396l6.479,6.391l-1.502,8.867c-0.152,0.893,0.24,1.789,1.008,2.312
				c0.421,0.287,0.918,0.431,1.413,0.431c0.408,0,0.817-0.098,1.188-0.293l7.709-4.101l7.709,4.101
				c0.372,0.195,0.78,0.293,1.186,0.293c0.497,0,0.992-0.144,1.415-0.431c0.768-0.522,1.159-1.419,1.006-2.312l-1.503-8.867
				l6.481-6.391c0.642-0.632,0.861-1.557,0.57-2.396C67.341,364.312,66.587,363.699,65.678,363.567z
			M65.956,366.917l-6.628,6.546
				l1.469,8.852c0,0,0.349,1.308-0.355,1.833c-0.703,0.525-2.22-0.311-2.22-0.311l-7.451-4.111l-8.146,4.305
				c0,0-0.938,0.438-1.524-0.057c-0.585-0.498-0.351-1.752-0.351-1.752l1.348-8.933l-6.51-6.431c0,0-0.797-0.636-0.582-1.393
				c0.215-0.76,1.363-0.806,1.363-0.806l9.07-1.294l4.068-8.062c0,0,0.405-1.108,1.265-1.108s1.266,1.108,1.266,1.108l3.951,8.121
				l9.361,1.235c0,0,1.042,0.133,1.188,0.921C66.684,366.37,65.956,366.917,65.956,366.917z"/>
		</g>
	</g>
</svg>
