<?xml version="1.0" encoding="utf-8"?>
<!-- Generator: Adobe Illustrator 16.0.0, SVG Export Plug-In . SVG Version: 6.00 Build 0)  -->
<!DOCTYPE svg PUBLIC "-//W3C//DTD SVG 1.1//EN" "http://www.w3.org/Graphics/SVG/1.1/DTD/svg11.dtd">
<svg width="34" height="33" xmlns="http://www.w3.org/2000/svg">
    <g>
        <title>Layer 1</title>
        <g id="svg_8">
            <g id="notificacion-selected">
                <path id="svg_9" style="fill:#f8eb69" d="m32.064999,10.540985l-8.841999,-1.299011l-3.844002,-7.881989c-0.403999,-0.828003 -1.271,-1.359985 -2.222,-1.359985c-0.951,0 -1.816998,0.531982 -2.222,1.359985l-3.842999,7.881989l-8.843002,1.299011c-0.908997,0.13501 -1.663998,0.747009 -1.955997,1.584991c-0.292999,0.839996 -0.072002,1.765015 0.57,2.395996l6.479,6.394012l-1.501999,8.864014c-0.152,0.895996 0.239998,1.787994 1.007999,2.311981c0.420998,0.287994 0.917999,0.432007 1.412998,0.432007c0.408001,0 0.817001,-0.098999 1.188,-0.292999l7.709,-4.101013l7.709,4.101013c0.372002,0.194 0.780003,0.292999 1.186001,0.292999c0.497002,0 0.992001,-0.144012 1.415001,-0.432007c0.768002,-0.52298 1.159,-1.415985 1.006001,-2.311981l-1.503002,-8.864014l6.481003,-6.394012c0.641998,-0.631989 0.861,-1.556976 0.57,-2.395996c-0.293999,-0.838013 -1.048004,-1.450012 -1.957001,-1.584991z" clip-rule="evenodd" fill-rule="evenodd"/>
            </g>
        </g>
    </g>
</svg>
