<?xml version="1.0" encoding="utf-8"?>
<!-- Generator: Adobe Illustrator 16.0.0, SVG Export Plug-In . SVG Version: 6.00 Build 0)  -->
<!DOCTYPE svg PUBLIC "-//W3C//DTD SVG 1.1//EN" "http://www.w3.org/Graphics/SVG/1.1/DTD/svg11.dtd">
<svg width="34" height="33" xmlns="http://www.w3.org/2000/svg">
 <g>
  <title>Layer 1</title>
  <g id="svg_7">
   <g id="notificacion-deselected">
    <path id="svg_8" style="fill:#444" d="m32.064999,10.539001l-8.841999,-1.299988l-3.844002,-7.882019c-0.403999,-0.829987 -1.271,-1.356995 -2.222,-1.356995c-0.951,0 -1.816998,0.527008 -2.222,1.356995l-3.842999,7.882019l-8.843002,1.299988c-0.908997,0.131989 -1.663998,0.744995 -1.955997,1.584991c-0.292999,0.839996 -0.072002,1.765015 0.57,2.395996l6.479,6.391022l-1.501999,8.867004c-0.152,0.892975 0.239998,1.788971 1.007999,2.311981c0.420998,0.287018 0.917999,0.431 1.412998,0.431c0.408001,0 0.817001,-0.097992 1.188,-0.292999l7.709,-4.100983l7.709,4.100983c0.372002,0.195007 0.780003,0.292999 1.186001,0.292999c0.497002,0 0.992001,-0.143982 1.415001,-0.431c0.768002,-0.522003 1.159,-1.419006 1.006001,-2.311981l-1.503002,-8.867004l6.481003,-6.391022c0.641998,-0.631989 0.861,-1.556976 0.57,-2.395996c-0.293999,-0.839966 -1.048004,-1.452972 -1.957001,-1.584991z
        m0.278,3.350006l-6.627998,6.54599l1.468998,8.85202c0,0 0.348999,1.307983 -0.355,1.832977c-0.702999,0.525024 -2.220001,-0.310974 -2.220001,-0.310974l-7.451,-4.111023l-8.146,4.305023c0,0 -0.938,0.437988 -1.523998,-0.057007c-0.584999,-0.498016 -0.351002,-1.752014 -0.351002,-1.752014l1.348,-8.932983l-6.509998,-6.431c0,0 -0.797001,-0.636017 -0.582001,-1.393005c0.215,-0.76001 1.362999,-0.806 1.362999,-0.806l9.07,-1.294006l4.068001,-8.062012c0,0 0.404999,-1.108002 1.264999,-1.108002s1.265999,1.108002 1.265999,1.108002l3.951,8.121002l9.361,1.235016c0,0 1.042,0.132996 1.188004,0.92099c0.145996,0.790009 -0.582001,1.337006 -0.582001,1.337006z" clip-rule="evenodd" fill-rule="evenodd"/>
   </g>
  </g>
 </g>
</svg>
