<?xml version="1.0" encoding="utf-8"?>
<!-- Generator: Adobe Illustrator 16.0.0, SVG Export Plug-In . SVG Version: 6.00 Build 0)  -->
<!DOCTYPE svg PUBLIC "-//W3C//DTD SVG 1.1//EN" "http://www.w3.org/Graphics/SVG/1.1/DTD/svg11.dtd">
<svg version="1.1" id="Capa_1" xmlns="http://www.w3.org/2000/svg" xmlns:xlink="http://www.w3.org/1999/xlink" x="0px" y="0px" width="800px" height="500px" viewBox="0 0 800 500" enable-background="new 0 0 800 500" xml:space="preserve">
	<g>
		<g id="link">
			<path fill-rule="evenodd" clip-rule="evenodd" d="M198.047,235.062c-1.079,1.078-2.829,1.078-3.907,0l-2.246-2.245c-1.602-1.6-4.283,0.795-2.588,2.489
				c0.934,0.933,2.686,2.686,2.686,2.686c2.157,2.155,5.655,2.155,7.813,0l12.5-12.497c2.158-2.156,2.158-5.652,0-7.81l-3.37-3.368
				c-2.156-2.156-5.655-2.156-7.812,0c0,0-2.898,2.896-4.493,4.491c-1.347,1.347,1.084,3.896,2.54,2.44
				c1.412-1.412,3.662-3.661,3.662-3.661c1.079-1.078,2.828-1.078,3.907,0l2.441,2.441c1.08,1.078,1.08,2.826,0,3.905
				L198.047,235.062z
			M186.376,225.056l-12.501,12.496c-2.158,2.155-2.158,5.652,0,7.809l3.37,3.369c2.158,2.156,5.655,2.156,7.812,0
				c0,0,2.898-2.898,4.493-4.492c1.348-1.346-1.083-3.895-2.539-2.439c-1.413,1.412-3.662,3.659-3.662,3.659
				c-1.079,1.078-2.828,1.078-3.907,0l-2.441-2.439c-1.079-1.078-1.079-2.827,0-3.905l11.133-11.129c1.079-1.077,2.827-1.077,3.907,0
				l2.246,2.246c1.602,1.601,4.283-0.796,2.588-2.489c-0.935-0.935-2.686-2.685-2.686-2.685
				C192.032,222.898,188.535,222.898,186.376,225.056z"/>
		</g>
	</g>
</svg>
