<?xml version="1.0" encoding="UTF-8"?>
<!DOCTYPE svg PUBLIC "-//W3C//DTD SVG 1.1//EN" "http://www.w3.org/Graphics/SVG/1.1/DTD/svg11.dtd">
<!-- Creator: CorelDRAW X6 -->
<svg width="100" height="100" xmlns="http://www.w3.org/2000/svg">
 <g>
  <title>Layer 1</title>
  <g id="Layer_x0020_1">
   <metadata transform="translate(1,-1) scale(0.35618728399276733,0.30670925974845886) translate(-1,1) translate(2.807511806488037,-3.2604167461395264) scale(0.4131455421447754,0.5104166865348816) translate(-2.807511806488037,3.2604167461395264) translate(6.795454502105713,-6.387754917144775) scale(1.1022727489471436,0.9795918464660645) translate(-6.795454502105713,6.387754917144775) translate(6.164948463439941,-6.5208330154418945) scale(1.0171821117401123,1) translate(-6.164948463439941,6.5208330154418945) translate(604.060791015625,-6.5208330154418945) scale(1.0101351737976074,1) translate(-604.060791015625,6.5208330154418945) translate(-0.00002273353311466053,619.4791259765625) scale(1,0.9861111044883728) translate(0.00002273353311466053,-619.4791259765625) translate(-0.00002273353675263934,2.2042295932769775) scale(1,1.0422534942626953) translate(0.00002273353675263934,-2.2042295932769775) translate(598,2.1148688793182373) scale(0.9966555237770081,1) translate(-598,-2.1148688793182373) translate(2.006685256958008,2.1148688793182373) scale(1,1.0033783912658691) translate(-2.006685256958008,-2.1148688793182373) " id="CorelCorpID_0Corel-Layer"/>
   <g id="_172579216">
    <path id="svg_5" d="m49.83389,47.14484c4.81717,0 8.9699,-3.79553 8.9699,-8.53994l0,-29.73163c0,-4.74441 -4.15273,-8.53994 -8.9699,-8.53994c-4.81717,0 -8.96991,3.79553 -8.96991,8.53994l0,29.73163c0,4.74441 4.15273,8.53994 8.96991,8.53994z" class="fil0"/>
   </g>
   <g id="_172579960">
    <path id="svg_6" d="m68.93645,7.76624c-1.16276,-0.47444 -2.32552,-0.31629 -3.32218,0.31629c-0.99665,0.63259 -1.66109,1.73962 -1.66109,2.84665l0,11.22843c0,1.26518 0.66444,2.37221 1.8272,3.0048c9.63435,5.37699 15.9465,15.18211 15.9465,26.41054c0,16.92173 -14.2854,30.68051 -31.89298,30.68051c-17.60758,0 -31.89298,-13.75878 -31.89298,-30.68051c0,-11.22843 6.47826,-21.19169 15.94649,-26.41054c1.16277,-0.63259 1.8272,-1.73961 1.8272,-3.0048l0,-11.22843c0,-1.10703 -0.66443,-2.21406 -1.66109,-2.84665c-0.99665,-0.63259 -2.32553,-0.79073 -3.32218,-0.31629c-17.9398,7.27476 -30.39799,24.19649 -30.39799,43.96486c0,26.2524 22.25864,47.60223 49.66667,47.60223c27.40802,0 49.66666,-21.34984 49.66666,-47.60223c0,-19.76838 -12.45819,-36.6901 -30.39799,-43.96486l-0.33222,0z" class="fil0"/>
   </g>
  </g>
 </g>
</svg>