<?xml version="1.0" encoding="utf-8"?>
<!-- Generator: Adobe Illustrator 16.0.0, SVG Export Plug-In . SVG Version: 6.00 Build 0)  -->
<!DOCTYPE svg PUBLIC "-//W3C//DTD SVG 1.1//EN" "http://www.w3.org/Graphics/SVG/1.1/DTD/svg11.dtd">
<svg version="1.1" id="Capa_1" xmlns="http://www.w3.org/2000/svg" xmlns:xlink="http://www.w3.org/1999/xlink" x="0px" y="0px" width="800px" height="500px" viewBox="0 0 800 500" enable-background="new 0 0 800 500" xml:space="preserve">
	<g>
		<g id="lufke_life_experience">
			<path fill-rule="evenodd" clip-rule="evenodd" d="M217.609,28.795
				c-0.987-1.129-2.138-2.318-2.386-2.556c-0.785-0.754-0.231-1.325-0.231-1.325s5.473-7.448,6.543-8.503
				c1.07-1.054,1.066-1.709,0.483-2.388c-0.582-0.679-2-0.297-2.971,0.49c-1.736,1.406-4.338,6.067-5.479,7.27
				c-1.141,1.203-1.08,0.036-1.067-0.659c0.01-0.697-0.057-1.529,0.059-3.644c0.116-2.114-0.021-4.197-1.882-4.228
				c-3.08-0.049-2.095,4.4-2.227,9.162c-0.131,4.763-0.184,11.465-0.119,13.386c0.083,2.486-0.065,3.382,1.758,4.054
				c1.032,0.38,1.839-0.239,2.037-0.393c0.759-0.592,0.867-1.445,0.582-2.476c-0.128-0.464-0.18-1.638-0.235-3.166
				c-0.056-1.527-0.145-1.029-0.055-3.251c0.068-1.661,1.073-1.269,1.307-0.729c0.233,0.539,4.016,6.378,5.335,8.087
				c1.321,1.708,1.87,1.717,3.37,0.75c1.5-0.966,1.416-1.379,0.604-2.812S219.756,31.25,217.609,28.795z
			M219.662,50.78c-0.016,0.386-0.033,0.744-0.05,1.072
				c-0.016,0.329-0.025,0.566-0.025,0.714c0,0.083,0.019,0.148,0.059,0.195c0.039,0.047,0.091,0.082,0.154,0.105
				c0.065,0.023,0.127,0.036,0.189,0.04c0.061,0.003,0.108,0.006,0.142,0.006c0.302,0,0.494-0.103,0.578-0.309
				c0.083-0.206,0.125-0.564,0.125-1.073v-0.72c0-0.177-0.003-0.372-0.007-0.583c-0.006-0.211-0.01-0.441-0.01-0.691
				c0-0.03,0.007-0.113,0.017-0.249c0.011-0.135,0.026-0.288,0.046-0.458c0.02-0.169,0.034-0.334,0.046-0.495
				c0.011-0.161,0.016-0.284,0.016-0.371c0-0.14,0.059-0.231,0.172-0.274c0.115-0.044,0.303-0.081,0.565-0.111
				c0.111,0.008,0.202,0.054,0.271,0.14c0.07,0.084,0.122,0.184,0.155,0.299c0.034,0.115,0.056,0.24,0.067,0.377
				c0.012,0.136,0.016,0.262,0.016,0.379c0,0.083-0.002,0.158-0.008,0.224c-0.005,0.067-0.013,0.118-0.024,0.156v0.073v0.38
				l-0.009,0.565l-0.007,0.668l-0.009,0.646L222.124,52v0.284c0,0.025-0.004,0.048-0.01,0.067c-0.004,0.019-0.007,0.036-0.007,0.051
				v0.102c0,0.11,0.036,0.199,0.109,0.269c0.072,0.069,0.223,0.105,0.452,0.105c0.279,0,0.458-0.04,0.536-0.122
				c0.078-0.082,0.118-0.165,0.118-0.252c0-0.14-0.021-0.28-0.06-0.421c-0.038-0.141-0.059-0.291-0.059-0.444
				c0-0.117,0.014-0.243,0.042-0.376c0.028-0.134,0.042-0.257,0.042-0.366c-0.011-0.159-0.022-0.341-0.033-0.549
				c-0.012-0.177-0.021-0.391-0.025-0.643c-0.005-0.25-0.008-0.539-0.008-0.863c0-0.222-0.003-0.431-0.009-0.623
				c-0.005-0.192-0.019-0.343-0.042-0.452l-0.033-0.074c-0.034-0.061-0.086-0.135-0.155-0.224c-0.071-0.089-0.162-0.175-0.276-0.261
				c-0.115-0.084-0.257-0.158-0.427-0.22c-0.17-0.063-0.381-0.094-0.632-0.094c-0.196,0-0.36,0.016-0.494,0.048
				c-0.134,0.032-0.252,0.066-0.352,0.104c-0.021-0.03-0.057-0.059-0.105-0.087c-0.047-0.028-0.115-0.05-0.205-0.065l-0.117-0.011
				c-0.011,0-0.017-0.002-0.017-0.006c0-0.003-0.005-0.006-0.016-0.006l0.185,0.023c-0.056-0.015-0.107-0.024-0.151-0.028
				c-0.044-0.003-0.079-0.006-0.1-0.006c-0.208,0-0.359,0.047-0.457,0.14c-0.098,0.093-0.146,0.216-0.146,0.37
				c0,0.201,0.009,0.391,0.032,0.572c0.023,0.181,0.034,0.408,0.034,0.679c0,0.272-0.008,0.604-0.024,0.994
				C219.696,50.005,219.679,50.393,219.662,50.78z
			M186.272,39.576c4.75-0.75,5.829-7.251,6.296-10.25c0.467-2.999,0.288-10.501,0.359-11.858c0.072-1.356-0.108-2.856-1.044-3.25
				c-0.934-0.393-2.068,0.198-2.338,2.982c-0.27,2.784-0.756,9.608-1.079,13.356c-0.324,3.749-1.891,5.137-3.516,5.098
				c-1.705-0.041-3.698-1.975-3.878-5.794s-0.719-13.696-0.791-14.482c-0.072-0.785,0.018-1.803-0.953-2.035
				c-2.645-0.632-2.456,4.11-2.104,14.821C177.575,38.877,183.143,39.951,186.272,39.576z
			M211.921,51.072
				c-0.028,0.305-0.057,0.602-0.084,0.889c-0.028,0.287-0.042,0.507-0.042,0.663c0,0.185,0.047,0.305,0.142,0.359
				c0.096,0.055,0.207,0.082,0.335,0.082c0.112,0,0.188-0.006,0.231-0.02c0.042-0.013,0.143-0.053,0.304-0.121
				c0.033-0.016,0.062-0.04,0.084-0.074c0.021-0.034,0.04-0.105,0.05-0.215c0.012-0.109,0.026-0.269,0.042-0.478
				c0.016-0.209,0.036-0.495,0.058-0.857c0.022-0.201,0.044-0.441,0.067-0.726c0.023-0.282,0.034-0.612,0.034-0.991v-0.565
				c0-0.015,0.004-0.037,0.012-0.065c0.008-0.028,0.015-0.068,0.021-0.122c0.005-0.052,0.011-0.125,0.017-0.217
				c0.006-0.093,0.009-0.221,0.009-0.383c0-0.17-0.003-0.334-0.009-0.495c-0.005-0.161-0.009-0.255-0.009-0.286
				c-0.01-0.037-0.025-0.075-0.045-0.113c-0.02-0.038-0.06-0.074-0.121-0.11c-0.062-0.036-0.149-0.063-0.264-0.082
				c-0.115-0.019-0.275-0.028-0.481-0.028c-0.056,0-0.105,0.035-0.146,0.104c-0.042,0.071-0.075,0.163-0.098,0.278
				c-0.021,0.115-0.036,0.244-0.041,0.388c-0.006,0.142-0.009,0.288-0.009,0.436v0.719c0,0.163,0.003,0.28,0.009,0.354
				c0.005,0.074,0.01,0.124,0.016,0.149c0.005,0.027,0.014,0.055,0.024,0.086v0.011l0.017,0.028c0,0.105-0.013,0.29-0.042,0.553
				C211.977,50.482,211.949,50.766,211.921,51.072z
			M215.682,50.698c0.172,0.022,0.362,0.034,0.57,0.034
				c0.558,0,0.997-0.151,1.317-0.453c0.321-0.302,0.481-0.715,0.481-1.24c0-0.257-0.015-0.466-0.045-0.629
				c-0.031-0.162-0.063-0.293-0.097-0.394c-0.034-0.1-0.067-0.176-0.101-0.226c-0.032-0.052-0.056-0.084-0.067-0.099l-0.066-0.067
				c-0.151-0.148-0.375-0.281-0.674-0.4c-0.298-0.119-0.624-0.179-0.975-0.179c-0.346,0-0.613,0.047-0.799,0.139
				c-0.188,0.093-0.324,0.207-0.411,0.343c-0.086,0.135-0.138,0.277-0.155,0.421c-0.016,0.146-0.024,0.278-0.024,0.394
				c0,0.06-0.003,0.159-0.008,0.294c-0.006,0.136-0.014,0.278-0.025,0.425c-0.011,0.147-0.02,0.287-0.025,0.418
				c-0.006,0.133-0.008,0.222-0.008,0.267c0,0.102,0.002,0.198,0.008,0.286c0.006,0.089,0.01,0.187,0.016,0.293
				c0.006,0.108,0.011,0.237,0.018,0.388c0.004,0.151,0.007,0.334,0.007,0.549c0,0.25,0.017,0.483,0.05,0.702s0.108,0.41,0.222,0.572
				s0.274,0.292,0.481,0.391c0.206,0.098,0.479,0.147,0.82,0.147c0.413,0,0.74-0.032,0.98-0.094c0.24-0.062,0.425-0.147,0.556-0.254
				c0.132-0.108,0.222-0.232,0.268-0.371c0.048-0.14,0.076-0.291,0.088-0.453c0-0.162-0.048-0.275-0.146-0.337
				c-0.097-0.062-0.211-0.094-0.339-0.094c-0.263,0-0.441,0.051-0.54,0.154c-0.097,0.102-0.146,0.264-0.146,0.486
				c0,0.069-0.025,0.125-0.077,0.167c-0.05,0.044-0.113,0.073-0.187,0.088c-0.076,0.015-0.154,0.024-0.235,0.028
				c-0.081,0.004-0.145,0.006-0.189,0.006c-0.122,0-0.221-0.041-0.297-0.122c-0.075-0.081-0.132-0.182-0.171-0.303
				c-0.039-0.12-0.064-0.25-0.076-0.388c-0.011-0.137-0.016-0.265-0.016-0.382v-0.232C215.666,50.892,215.671,50.799,215.682,50.698z
			M215.846,47.822c0.087-0.039,0.164-0.057,0.23-0.057c0.117,0,0.226,0.02,0.327,0.062c0.1,0.042,0.19,0.113,0.271,0.213
				c0.081,0.099,0.144,0.236,0.188,0.41c0.045,0.173,0.067,0.396,0.067,0.667c0,0.186-0.022,0.338-0.067,0.459
				c-0.044,0.12-0.098,0.215-0.16,0.285c-0.061,0.07-0.126,0.12-0.196,0.15s-0.126,0.045-0.171,0.045
				c-0.045,0-0.132-0.003-0.26-0.011c-0.129-0.007-0.237-0.019-0.326-0.034v-0.045c0.011-0.154,0.019-0.326,0.024-0.512
				c0.006-0.187,0.009-0.396,0.009-0.626c0-0.177-0.011-0.334-0.034-0.469c-0.022-0.137-0.033-0.242-0.033-0.318
				C215.716,47.933,215.759,47.859,215.846,47.822z
			M176.033,47.833c0.229,0,0.453-0.004,0.674-0.01c0.22-0.008,0.42-0.028,0.599-0.06c0.178-0.032,0.323-0.077,0.432-0.133
				c0.109-0.057,0.163-0.132,0.163-0.226c0-0.117-0.063-0.206-0.188-0.266c-0.126-0.061-0.27-0.091-0.431-0.091
				c-0.14,0-0.254,0.015-0.343,0.046c-0.011,0-0.027,0.003-0.051,0.011c-0.022,0.006-0.07,0.014-0.146,0.022
				c-0.076,0.008-0.184,0.013-0.326,0.017c-0.143,0.003-0.333,0.006-0.573,0.006c0-0.23,0.002-0.45,0.008-0.66
				c0.005-0.209,0.011-0.391,0.017-0.547c0.005-0.155,0.017-0.28,0.033-0.376c0.017-0.097,0.042-0.151,0.076-0.167l0.083-0.023
				c0.05-0.015,0.121-0.033,0.213-0.053c0.093-0.021,0.193-0.037,0.302-0.048c0.109-0.011,0.219-0.017,0.331-0.017
				c0.117,0,0.209,0.012,0.277,0.037c0.066,0.024,0.126,0.048,0.179,0.07c0.053,0.023,0.102,0.046,0.147,0.068
				c0.044,0.023,0.111,0.035,0.2,0.035c0.195,0,0.364-0.036,0.507-0.108c0.143-0.072,0.214-0.162,0.214-0.271
				c0-0.08-0.042-0.15-0.126-0.212c-0.083-0.062-0.195-0.113-0.334-0.15c-0.14-0.038-0.292-0.068-0.457-0.09
				c-0.165-0.023-0.323-0.035-0.474-0.035c-0.261,0-0.524,0.015-0.786,0.046c-0.263,0.03-0.497,0.078-0.704,0.143
				c-0.207,0.066-0.378,0.145-0.514,0.233c-0.137,0.089-0.211,0.191-0.222,0.308c-0.034,0.223-0.068,0.508-0.1,0.855
				c-0.033,0.348-0.057,0.668-0.068,0.963h-0.292c-0.044,0-0.111,0.009-0.197,0.028c-0.086,0.019-0.176,0.048-0.268,0.087
				c-0.092,0.04-0.172,0.087-0.238,0.143c-0.067,0.054-0.101,0.111-0.101,0.171c0,0.046,0.042,0.118,0.125,0.218
				c0.084,0.1,0.223,0.15,0.418,0.15c0.023,0,0.055-0.001,0.097-0.005c0.042-0.004,0.091-0.013,0.147-0.028
				c0.099-0.023,0.198-0.034,0.292-0.034h0.067v0.849c0,0.2,0.011,0.404,0.033,0.611c0.022,0.208,0.033,0.358,0.033,0.453
				c0,0.061-0.005,0.153-0.017,0.277c-0.011,0.125-0.016,0.252-0.016,0.385c0,0.354,0.005,0.63,0.016,0.827
				c0.012,0.196,0.025,0.353,0.042,0.47s0.034,0.218,0.05,0.303c0.017,0.084,0.025,0.189,0.025,0.314
				c0,0.139-0.009,0.248-0.025,0.325c-0.017,0.078-0.025,0.14-0.025,0.185c0,0.06,0.002,0.112,0.008,0.155
				c0.005,0.044,0.026,0.076,0.062,0.1c0.037,0.022,0.088,0.041,0.156,0.056c0.066,0.016,0.165,0.03,0.292,0.045
				c0.262,0,0.445-0.044,0.549-0.133c0.103-0.088,0.154-0.195,0.154-0.32c0-0.143-0.018-0.285-0.054-0.424
				c-0.037-0.14-0.055-0.283-0.055-0.431c0-0.294-0.002-0.523-0.008-0.691c-0.005-0.166-0.013-0.311-0.025-0.436
				c-0.012-0.124-0.025-0.244-0.042-0.36c-0.016-0.114-0.031-0.266-0.042-0.455c-0.012-0.189-0.02-0.434-0.025-0.736
				c-0.006-0.302-0.008-0.701-0.008-1.195c0-0.052,0.015-0.102,0.045-0.15C175.85,47.856,175.922,47.833,176.033,47.833z
			M213.452,45.596c0-0.056-0.007-0.113-0.024-0.169c-0.018-0.057-0.05-0.113-0.101-0.168
				c-0.051-0.054-0.125-0.098-0.222-0.132c-0.097-0.035-0.222-0.051-0.373-0.051c-0.262,0-0.497,0.073-0.704,0.221
				c-0.205,0.147-0.309,0.321-0.309,0.521c0,0.127,0.1,0.229,0.302,0.303c0.2,0.074,0.425,0.11,0.677,0.11
				c0.218,0,0.399-0.065,0.541-0.196C213.381,45.905,213.452,45.759,213.452,45.596z
			M208.075,52.657
				c0.207,0,0.338-0.044,0.395-0.132c0.055-0.089,0.083-0.195,0.083-0.32c0-0.132-0.022-0.299-0.066-0.498
				c-0.044-0.201-0.067-0.429-0.067-0.686c0-0.215,0.006-0.442,0.017-0.683c0.012-0.239,0.026-0.471,0.042-0.696
				c0.017-0.225,0.03-0.435,0.042-0.631s0.017-0.363,0.017-0.503c0-0.102,0.037-0.211,0.112-0.325
				c0.077-0.116,0.166-0.222,0.268-0.321c0.104-0.098,0.21-0.18,0.319-0.249c0.109-0.068,0.202-0.109,0.28-0.125
				c0.056-0.011,0.108-0.019,0.155-0.022c0.047-0.004,0.099-0.006,0.155-0.006c0.134,0,0.25,0.009,0.351,0.025
				c0.101,0.017,0.186,0.025,0.251,0.025c0.102,0,0.167-0.029,0.202-0.087c0.033-0.059,0.05-0.18,0.05-0.365
				c0-0.079-0.085-0.149-0.255-0.21c-0.17-0.059-0.381-0.09-0.632-0.09h-0.017c-0.585,0-1,0.234-1.239,0.702
				c-0.033-0.068-0.053-0.146-0.059-0.235c-0.006-0.088-0.019-0.172-0.042-0.25c-0.022-0.077-0.062-0.142-0.117-0.197
				c-0.056-0.055-0.154-0.083-0.293-0.083c-0.14,0-0.252,0.039-0.339,0.116c-0.086,0.078-0.149,0.186-0.189,0.326
				c-0.039,0.14-0.066,0.3-0.083,0.484c-0.017,0.183-0.026,0.378-0.026,0.586c-0.004,0.166-0.008,0.336-0.008,0.509
				c0,0.174,0.004,0.352,0.008,0.533c0.012,0.362,0.018,0.679,0.018,0.951l-0.018,0.867c0,0.155-0.002,0.296-0.008,0.424
				c-0.006,0.128-0.009,0.248-0.009,0.357c0,0.297,0.041,0.507,0.122,0.628C207.574,52.597,207.768,52.657,208.075,52.657z
			M171.66,53.064c0.112,0,0.189-0.006,0.23-0.02
				c0.042-0.013,0.144-0.053,0.306-0.121c0.033-0.016,0.061-0.04,0.083-0.074c0.023-0.034,0.039-0.105,0.051-0.215
				c0.011-0.109,0.025-0.269,0.042-0.478c0.017-0.209,0.036-0.495,0.059-0.857c0.022-0.201,0.045-0.441,0.066-0.726
				c0.023-0.282,0.035-0.612,0.035-0.991v-0.565c0-0.015,0.004-0.037,0.012-0.065c0.009-0.028,0.015-0.068,0.021-0.122
				c0.005-0.052,0.011-0.125,0.017-0.217c0.005-0.093,0.008-0.221,0.008-0.383c0-0.17-0.003-0.334-0.008-0.495
				c-0.005-0.161-0.008-0.255-0.008-0.286c-0.011-0.037-0.027-0.075-0.046-0.113c-0.02-0.038-0.06-0.074-0.122-0.11
				c-0.062-0.036-0.149-0.063-0.264-0.082c-0.114-0.019-0.274-0.028-0.481-0.028c-0.056,0-0.104,0.035-0.146,0.104
				c-0.042,0.071-0.075,0.163-0.096,0.278c-0.023,0.115-0.037,0.244-0.042,0.388c-0.005,0.142-0.009,0.288-0.009,0.436v0.719
				c0,0.163,0.004,0.28,0.009,0.354c0.006,0.074,0.011,0.124,0.017,0.149c0.005,0.027,0.013,0.055,0.025,0.086v0.011l0.016,0.028
				c0,0.105-0.014,0.29-0.041,0.553c-0.028,0.262-0.057,0.546-0.084,0.852c-0.028,0.305-0.056,0.602-0.084,0.889
				c-0.028,0.287-0.042,0.507-0.042,0.663c0,0.185,0.048,0.305,0.143,0.359C171.42,53.037,171.531,53.064,171.66,53.064z
			M228.275,51.799c-0.115-0.062-0.271-0.093-0.464-0.093c-0.129,0-0.238,0.015-0.327,0.045s-0.172,0.063-0.247,0.099
				c-0.076,0.036-0.15,0.069-0.226,0.099s-0.152,0.045-0.23,0.045c-0.101,0-0.19-0.025-0.271-0.08
				c-0.082-0.052-0.146-0.116-0.197-0.189c-0.05-0.074-0.088-0.149-0.113-0.23c-0.025-0.079-0.038-0.141-0.038-0.186
				c0-0.068-0.007-0.125-0.024-0.173c-0.016-0.047-0.034-0.109-0.05-0.186c-0.017-0.078-0.03-0.186-0.042-0.323
				c-0.012-0.138-0.017-0.335-0.017-0.592c0-0.23,0.008-0.494,0.025-0.792c0.016-0.298,0.044-0.577,0.083-0.835
				c0.039-0.258,0.099-0.479,0.18-0.662c0.08-0.183,0.186-0.275,0.315-0.275c0.1,0,0.207,0.014,0.322,0.042
				c0.114,0.029,0.222,0.059,0.325,0.093c0.104,0.035,0.201,0.065,0.293,0.093c0.092,0.028,0.167,0.043,0.222,0.043
				c0.228,0,0.386-0.038,0.473-0.114c0.086-0.075,0.13-0.136,0.13-0.181c0-0.136-0.06-0.248-0.181-0.334
				c-0.119-0.087-0.267-0.151-0.44-0.192c-0.172-0.042-0.355-0.07-0.547-0.085c-0.193-0.015-0.37-0.023-0.532-0.023
				c-0.435,0-0.772,0.076-1.013,0.227c-0.24,0.151-0.42,0.361-0.54,0.631c-0.12,0.27-0.191,0.596-0.214,0.98
				c-0.021,0.383-0.033,0.81-0.033,1.282c0,0.068,0.002,0.127,0.008,0.178c0.005,0.051,0.008,0.113,0.008,0.187
				c0,0.073,0.003,0.175,0.008,0.302c0.006,0.128,0.008,0.308,0.008,0.539c0,0.03,0.025,0.128,0.076,0.293
				c0.05,0.167,0.143,0.342,0.28,0.527c0.137,0.185,0.322,0.353,0.557,0.504c0.235,0.151,0.536,0.226,0.904,0.226
				c0.296,0,0.552-0.027,0.77-0.082c0.219-0.054,0.396-0.121,0.533-0.199c0.136-0.077,0.237-0.154,0.301-0.231
				c0.063-0.078,0.096-0.135,0.096-0.173C228.446,51.93,228.389,51.862,228.275,51.799z
			M197.136,50.782l-0.008,0.165v0.226
				c0,0.215,0.005,0.403,0.017,0.561c0.011,0.159,0.021,0.304,0.033,0.437c0.011,0.131,0.022,0.259,0.034,0.382
				c0.011,0.122,0.016,0.258,0.016,0.405v0.221c0,0.087,0.004,0.157,0.009,0.209c0.006,0.053,0.008,0.109,0.008,0.167
				c0,0.059,0.003,0.124,0.008,0.193c0.006,0.069,0.009,0.159,0.009,0.268c0,0.128-0.009,0.233-0.025,0.312
				c-0.016,0.08-0.025,0.137-0.025,0.175c0,0.129,0.037,0.212,0.114,0.252c0.075,0.04,0.221,0.075,0.438,0.105h0.05
				c0.251,0,0.417-0.043,0.498-0.127c0.081-0.085,0.122-0.193,0.122-0.326c0-0.038-0.003-0.088-0.009-0.15
				c-0.005-0.062-0.011-0.124-0.016-0.181c-0.005-0.058-0.017-0.108-0.034-0.15l-0.017-0.062l-0.083-1.173
				c0.083,0.008,0.179,0.014,0.285,0.017c0.105,0.004,0.24,0.006,0.402,0.006c0.368,0,0.664-0.046,0.887-0.138
				c0.223-0.093,0.392-0.195,0.507-0.306c0.114-0.112,0.188-0.216,0.221-0.314c0.034-0.098,0.05-0.151,0.05-0.159
				c0-0.121,0.005-0.235,0.017-0.345c0.011-0.109,0.019-0.214,0.024-0.314c0.006-0.1,0.014-0.201,0.026-0.305
				c0.01-0.103,0.017-0.222,0.017-0.354v-0.374c0-0.46-0.008-0.892-0.025-1.293c-0.017-0.402-0.075-0.752-0.171-1.05
				c-0.098-0.298-0.258-0.531-0.481-0.696c-0.223-0.166-0.542-0.25-0.955-0.25c-0.157,0-0.31,0.011-0.46,0.034
				c-0.151,0.022-0.276,0.046-0.377,0.068l-0.067-0.033c-0.149-0.053-0.281-0.08-0.393-0.08c-0.128,0-0.234,0.064-0.318,0.189
				c-0.084,0.127-0.153,0.301-0.206,0.521c-0.053,0.221-0.087,0.483-0.105,0.784c-0.016,0.303-0.024,0.623-0.024,0.963
				c0,0.201,0.004,0.387,0.008,0.561c0.006,0.174,0.009,0.334,0.009,0.481v0.289L197.136,50.782z
			M198.208,51.606
				c0.021-0.066,0.033-0.121,0.033-0.167c0-0.015-0.001-0.026-0.007-0.035c-0.006-0.006-0.008-0.014-0.008-0.022
				c0-0.434,0.004-0.854,0.016-1.26c0.012-0.405,0.029-0.782,0.05-1.129c0.011-0.238,0.023-0.454,0.034-0.648
				c0.011-0.194,0.017-0.361,0.017-0.501v-0.22c0.106-0.031,0.224-0.059,0.354-0.086c0.131-0.026,0.252-0.04,0.365-0.04
				c0.094,0,0.202,0.062,0.322,0.184c0.119,0.123,0.18,0.281,0.18,0.473c0,0.449,0.011,0.877,0.033,1.283
				c0.022,0.405,0.033,0.782,0.033,1.129c0,0.17-0.002,0.312-0.008,0.425c-0.005,0.113-0.014,0.205-0.025,0.275
				c-0.011,0.069-0.024,0.125-0.042,0.166c-0.017,0.043-0.031,0.078-0.042,0.108v0.063c0,0.029-0.005,0.07-0.016,0.124
				c-0.011,0.052-0.038,0.104-0.08,0.156c-0.042,0.051-0.104,0.093-0.188,0.127c-0.084,0.034-0.195,0.051-0.334,0.051
				c-0.308,0-0.504-0.017-0.59-0.051s-0.13-0.109-0.13-0.227C198.173,51.732,198.185,51.673,198.208,51.606z
			M192.453,47.16
				c-0.044,0-0.098,0.001-0.163,0.005c-0.064,0.003-0.126,0.013-0.188,0.028c-0.062,0.015-0.114,0.044-0.155,0.087
				s-0.063,0.099-0.063,0.167c0,0.064,0.026,0.139,0.081,0.224c0.052,0.084,0.095,0.161,0.128,0.229c0,0.007-0.002,0.013-0.007,0.017
				c-0.006,0.003-0.009,0.013-0.009,0.028c0,0.042,0.016,0.081,0.051,0.12c0.033,0.037,0.061,0.076,0.082,0.113l0.881,1.682
				c-0.174,0.196-0.276,0.32-0.311,0.374l-0.159,0.406c-0.078,0.208-0.15,0.382-0.218,0.521c-0.068,0.14-0.13,0.262-0.189,0.365
				c-0.059,0.104-0.114,0.198-0.167,0.284c-0.054,0.085-0.103,0.175-0.147,0.268v-0.017c-0.067,0.118-0.125,0.219-0.175,0.307
				c-0.051,0.086-0.077,0.152-0.077,0.198c0,0.067,0.051,0.144,0.151,0.229c0.1,0.085,0.243,0.128,0.426,0.128
				c0.185,0,0.326-0.052,0.424-0.156c0.097-0.104,0.181-0.224,0.25-0.36c0.07-0.135,0.13-0.269,0.18-0.402
				c0.05-0.132,0.121-0.228,0.21-0.288c0.062-0.133,0.122-0.264,0.184-0.394c0.062-0.13,0.131-0.258,0.21-0.382l0.024,0.022
				c0.09,0.162,0.174,0.31,0.255,0.444c0.083,0.134,0.155,0.271,0.222,0.411l0.05,0.118c0.034,0.094,0.08,0.198,0.138,0.309
				c0.059,0.112,0.129,0.217,0.213,0.318c0.083,0.099,0.18,0.182,0.289,0.249s0.244,0.1,0.406,0.1c0.045,0,0.097-0.002,0.155-0.006
				c0.059-0.004,0.115-0.014,0.171-0.028c0.057-0.015,0.104-0.044,0.144-0.088c0.038-0.044,0.058-0.1,0.058-0.167
				c0-0.038-0.009-0.075-0.024-0.111c-0.017-0.036-0.043-0.083-0.076-0.144v0.01l-0.118-0.277c-0.022-0.057-0.076-0.154-0.163-0.291
				c-0.087-0.138-0.175-0.289-0.265-0.451v0.012l-0.451-0.759l0.017,0.017l-0.394-0.747c0.49-0.672,0.833-1.206,1.024-1.6
				c0.193-0.395,0.29-0.673,0.29-0.835c0.005-0.146-0.07-0.24-0.226-0.278c-0.157-0.037-0.286-0.056-0.386-0.056
				c-0.122,0-0.224,0.034-0.304,0.099c-0.082,0.066-0.159,0.167-0.235,0.3s-0.158,0.302-0.247,0.504
				c-0.09,0.203-0.204,0.438-0.343,0.711h0.017l-0.151,0.231c-0.033-0.056-0.057-0.085-0.071-0.085c-0.015,0-0.032-0.019-0.054-0.057
				c-0.023-0.037-0.062-0.124-0.117-0.259c-0.056-0.136-0.16-0.371-0.31-0.702c-0.089-0.208-0.183-0.376-0.281-0.505
				C192.845,47.223,192.682,47.16,192.453,47.16z
			M204.736,47.224c-0.299-0.119-0.624-0.179-0.975-0.179
				c-0.345,0-0.612,0.047-0.799,0.139c-0.187,0.093-0.323,0.207-0.411,0.343c-0.087,0.135-0.138,0.277-0.155,0.421
				c-0.016,0.146-0.025,0.278-0.025,0.394c0,0.06-0.003,0.159-0.009,0.294c-0.005,0.136-0.013,0.278-0.024,0.425
				c-0.011,0.147-0.02,0.287-0.026,0.418c-0.004,0.133-0.007,0.222-0.007,0.267c0,0.102,0.003,0.198,0.007,0.286
				c0.006,0.089,0.013,0.187,0.017,0.293c0.007,0.108,0.012,0.237,0.017,0.388c0.006,0.151,0.009,0.334,0.009,0.549
				c0,0.25,0.017,0.483,0.05,0.702c0.034,0.219,0.107,0.41,0.222,0.572c0.114,0.163,0.274,0.292,0.481,0.391
				c0.207,0.098,0.479,0.147,0.82,0.147c0.413,0,0.74-0.032,0.979-0.094c0.24-0.062,0.427-0.147,0.558-0.254
				c0.13-0.108,0.219-0.232,0.267-0.371c0.048-0.14,0.077-0.291,0.088-0.453c0-0.162-0.048-0.275-0.146-0.337
				c-0.098-0.062-0.211-0.094-0.339-0.094c-0.262,0-0.443,0.051-0.539,0.154c-0.099,0.102-0.148,0.264-0.148,0.486
				c0,0.069-0.024,0.125-0.075,0.167c-0.05,0.044-0.113,0.073-0.188,0.088c-0.076,0.015-0.154,0.024-0.234,0.028
				c-0.081,0.004-0.144,0.006-0.188,0.006c-0.123,0-0.222-0.041-0.297-0.122c-0.076-0.081-0.133-0.182-0.173-0.303
				c-0.038-0.12-0.063-0.25-0.075-0.388c-0.012-0.137-0.017-0.265-0.017-0.382v-0.232c0-0.083,0.005-0.176,0.017-0.278
				c0.173,0.022,0.362,0.034,0.57,0.034c0.557,0,0.996-0.151,1.318-0.453c0.32-0.302,0.481-0.715,0.481-1.24
				c0-0.257-0.016-0.466-0.047-0.629c-0.03-0.162-0.062-0.293-0.096-0.394c-0.033-0.1-0.067-0.176-0.1-0.226
				c-0.033-0.052-0.056-0.084-0.068-0.099l-0.066-0.067C205.259,47.476,205.035,47.343,204.736,47.224z
			M204.598,49.577
				c-0.044,0.12-0.098,0.215-0.159,0.285c-0.062,0.07-0.126,0.12-0.196,0.15c-0.07,0.03-0.128,0.045-0.172,0.045
				s-0.13-0.003-0.259-0.011c-0.128-0.007-0.237-0.019-0.326-0.034v-0.045c0.011-0.154,0.02-0.326,0.024-0.512
				c0.007-0.187,0.009-0.396,0.009-0.626c0-0.177-0.011-0.334-0.033-0.469c-0.022-0.137-0.033-0.242-0.033-0.318
				c0-0.109,0.043-0.183,0.13-0.22c0.086-0.039,0.163-0.057,0.229-0.057c0.117,0,0.226,0.02,0.327,0.062
				c0.101,0.042,0.192,0.113,0.272,0.213c0.081,0.099,0.144,0.236,0.188,0.41c0.044,0.173,0.067,0.396,0.067,0.667
				C204.665,49.303,204.642,49.456,204.598,49.577z
			M196.284,33.603c0.055,2.945-0.377,5.909,1.782,5.909
				c1.08,0,1.943-0.411,1.89-2.231c-0.055-1.82-0.063-2.41-0.063-4.767c0-2.355,1.611-2.285,2.691-2.285
				c1.079,0,2.249-0.634,2.249-1.839c0-1.204-1.447-1.611-2.232-1.695c-1.572-0.169-2.779,0.686-2.78-2.338
				c-0.001-3.025-0.008-3.875-0.026-5.285c-0.018-1.41,0.594-2.079,2.645-1.892c2.409,0.233,2.987-0.973,2.987-2.125
				s-1.133-1.856-4.048-1.856c-5.373,0-5.633,0.207-5.471,4.838C196.068,22.668,196.23,30.658,196.284,33.603z
			M188.122,50.698
				c0.173,0.022,0.362,0.034,0.569,0.034c0.559,0,0.998-0.151,1.318-0.453c0.321-0.302,0.482-0.715,0.482-1.24
				c0-0.257-0.016-0.466-0.046-0.629c-0.03-0.162-0.063-0.293-0.095-0.394c-0.033-0.1-0.068-0.176-0.102-0.226
				c-0.033-0.052-0.056-0.084-0.067-0.099l-0.066-0.067c-0.15-0.148-0.375-0.281-0.674-0.4s-0.623-0.179-0.974-0.179
				c-0.347,0-0.614,0.047-0.8,0.139c-0.187,0.093-0.324,0.207-0.411,0.343c-0.086,0.135-0.138,0.277-0.154,0.421
				c-0.017,0.146-0.025,0.278-0.025,0.394c0,0.06-0.003,0.159-0.009,0.294c-0.006,0.136-0.014,0.278-0.025,0.425
				c-0.011,0.147-0.019,0.287-0.025,0.418c-0.005,0.133-0.008,0.222-0.008,0.267c0,0.102,0.002,0.198,0.008,0.286
				c0.006,0.089,0.012,0.187,0.017,0.293c0.006,0.108,0.011,0.237,0.016,0.388c0.006,0.151,0.01,0.334,0.01,0.549
				c0,0.25,0.017,0.483,0.05,0.702c0.033,0.219,0.108,0.41,0.222,0.572c0.114,0.163,0.274,0.292,0.481,0.391
				c0.206,0.098,0.479,0.147,0.82,0.147c0.413,0,0.739-0.032,0.979-0.094c0.24-0.062,0.426-0.147,0.557-0.254
				c0.131-0.108,0.22-0.232,0.269-0.371c0.046-0.14,0.077-0.291,0.087-0.453c0-0.162-0.049-0.275-0.146-0.337
				c-0.098-0.062-0.21-0.094-0.339-0.094c-0.262,0-0.442,0.051-0.54,0.154c-0.098,0.102-0.146,0.264-0.146,0.486
				c0,0.069-0.025,0.125-0.075,0.167c-0.05,0.044-0.113,0.073-0.188,0.088c-0.076,0.015-0.154,0.024-0.234,0.028
				c-0.082,0.004-0.145,0.006-0.189,0.006c-0.123,0-0.222-0.041-0.297-0.122c-0.076-0.081-0.133-0.182-0.172-0.303
				c-0.039-0.12-0.064-0.25-0.075-0.388c-0.011-0.137-0.017-0.265-0.017-0.382v-0.232C188.105,50.892,188.111,50.799,188.122,50.698z
			M188.286,47.822c0.086-0.039,0.163-0.057,0.23-0.057c0.117,0,0.226,0.02,0.326,0.062c0.101,0.042,0.192,0.113,0.272,0.213
				c0.081,0.099,0.144,0.236,0.188,0.41c0.044,0.173,0.066,0.396,0.066,0.667c0,0.186-0.022,0.338-0.066,0.459
				c-0.045,0.12-0.098,0.215-0.16,0.285c-0.062,0.07-0.126,0.12-0.197,0.15c-0.07,0.03-0.127,0.045-0.171,0.045
				s-0.13-0.003-0.259-0.011c-0.128-0.007-0.238-0.019-0.327-0.034v-0.045c0.012-0.154,0.02-0.326,0.025-0.512
				c0.006-0.187,0.008-0.396,0.008-0.626c0-0.177-0.011-0.334-0.033-0.469c-0.022-0.137-0.034-0.242-0.034-0.318
				C188.155,47.933,188.199,47.859,188.286,47.822z
			M232.761,51.473c-0.262,0-0.442,0.051-0.54,0.154
				c-0.098,0.102-0.146,0.264-0.146,0.486c0,0.069-0.024,0.125-0.076,0.167c-0.049,0.044-0.112,0.073-0.187,0.088
				c-0.077,0.015-0.154,0.024-0.235,0.028c-0.081,0.004-0.144,0.006-0.189,0.006c-0.123,0-0.221-0.041-0.296-0.122
				c-0.077-0.081-0.133-0.182-0.173-0.303c-0.039-0.12-0.063-0.25-0.075-0.388c-0.011-0.137-0.017-0.265-0.017-0.382v-0.232
				c0-0.083,0.006-0.176,0.017-0.278c0.173,0.022,0.362,0.034,0.568,0.034c0.558,0,0.998-0.151,1.319-0.453
				c0.321-0.302,0.481-0.715,0.481-1.24c0-0.257-0.015-0.466-0.046-0.629c-0.03-0.162-0.062-0.293-0.096-0.394
				c-0.034-0.1-0.068-0.176-0.1-0.226c-0.035-0.052-0.057-0.084-0.068-0.099l-0.066-0.067c-0.151-0.148-0.375-0.281-0.674-0.4
				s-0.624-0.179-0.975-0.179c-0.346,0-0.613,0.047-0.799,0.139c-0.188,0.093-0.325,0.207-0.412,0.343
				c-0.086,0.135-0.138,0.277-0.154,0.421c-0.016,0.146-0.024,0.278-0.024,0.394c0,0.06-0.003,0.159-0.008,0.294
				c-0.007,0.136-0.014,0.278-0.026,0.425c-0.011,0.147-0.019,0.287-0.025,0.418c-0.005,0.133-0.007,0.222-0.007,0.267
				c0,0.102,0.002,0.198,0.007,0.286c0.007,0.089,0.012,0.187,0.017,0.293c0.006,0.108,0.011,0.237,0.016,0.388
				c0.006,0.151,0.009,0.334,0.009,0.549c0,0.25,0.017,0.483,0.05,0.702c0.034,0.219,0.108,0.41,0.222,0.572
				c0.113,0.163,0.274,0.292,0.481,0.391c0.206,0.098,0.479,0.147,0.82,0.147c0.412,0,0.74-0.032,0.979-0.094
				c0.24-0.062,0.426-0.147,0.557-0.254c0.132-0.108,0.221-0.232,0.268-0.371c0.047-0.14,0.076-0.291,0.089-0.453
				c0-0.162-0.049-0.275-0.147-0.337C233.002,51.505,232.889,51.473,232.761,51.473z
			M231.007,47.822
				c0.086-0.039,0.163-0.057,0.23-0.057c0.117,0,0.226,0.02,0.326,0.062s0.192,0.113,0.272,0.213c0.081,0.099,0.143,0.236,0.188,0.41
				c0.044,0.173,0.067,0.396,0.067,0.667c0,0.186-0.023,0.338-0.067,0.459c-0.045,0.12-0.098,0.215-0.159,0.285
				c-0.062,0.07-0.127,0.12-0.198,0.15c-0.069,0.03-0.126,0.045-0.171,0.045s-0.131-0.003-0.259-0.011
				c-0.129-0.007-0.237-0.019-0.326-0.034v-0.045c0.011-0.154,0.019-0.326,0.024-0.512c0.007-0.187,0.009-0.396,0.009-0.626
				c0-0.177-0.012-0.334-0.033-0.469c-0.023-0.137-0.034-0.242-0.034-0.318C230.877,47.933,230.92,47.859,231.007,47.822z
			M172.087,46.23c0.218,0,0.398-0.065,0.54-0.196c0.142-0.129,0.213-0.275,0.213-0.438c0-0.056-0.008-0.113-0.025-0.169
				c-0.017-0.057-0.05-0.113-0.1-0.168c-0.05-0.054-0.125-0.098-0.222-0.132c-0.098-0.035-0.221-0.051-0.372-0.051
				c-0.263,0-0.497,0.073-0.703,0.221c-0.207,0.147-0.311,0.321-0.311,0.521c0,0.127,0.102,0.229,0.302,0.303
				C171.61,46.194,171.836,46.23,172.087,46.23z
			M230.148,16.801c0.934-0.071,0.77-0.086,2.622,0.003
				c1.851,0.089,2.354-0.598,2.354-1.75s-0.88-1.838-3.774-1.749c-0.988,0.018-1.671-0.107-2.749-0.107
				c-2.516,0-2.551,0.798-2.551,1.82c0,1.268-0.343,14.584-0.343,17.691s-0.808,6.409,3.397,6.409s0.952,0.018,2.875,0.018
				c1.923,0,3.109-0.785,3.074-1.962c0-1.375-1.636-1.501-4.152-1.501c-1.114,0-1.724-0.035-1.724-1.463
				c0-2.749-0.055-2.188-0.055-3.285c0-1.25-0.108-1.821,0.719-1.946c0.827-0.125,1.754-0.191,2.355-0.25
				c1.275-0.125,1.796-0.607,1.796-2.071c0-1.463-1.761-1.267-2.659-1.231c-0.898,0.036-2.229,0.053-2.229-1.607
				c0-0.482,0.018-3.766,0.018-5.623C229.121,17.171,229.213,16.873,230.148,16.801z
			M179.987,50.698
				c0.173,0.022,0.362,0.034,0.569,0.034c0.557,0,0.997-0.151,1.319-0.453c0.32-0.302,0.481-0.715,0.481-1.24
				c0-0.257-0.016-0.466-0.047-0.629c-0.029-0.162-0.062-0.293-0.096-0.394c-0.033-0.1-0.066-0.176-0.1-0.226
				c-0.033-0.052-0.056-0.084-0.068-0.099l-0.066-0.067c-0.151-0.148-0.375-0.281-0.674-0.4s-0.624-0.179-0.975-0.179
				c-0.346,0-0.613,0.047-0.8,0.139c-0.187,0.093-0.323,0.207-0.41,0.343c-0.087,0.135-0.138,0.277-0.155,0.421
				c-0.017,0.146-0.024,0.278-0.024,0.394c0,0.06-0.003,0.159-0.009,0.294c-0.005,0.136-0.014,0.278-0.026,0.425
				c-0.011,0.147-0.019,0.287-0.024,0.418c-0.006,0.133-0.008,0.222-0.008,0.267c0,0.102,0.002,0.198,0.008,0.286
				c0.005,0.089,0.011,0.187,0.017,0.293c0.006,0.108,0.011,0.237,0.018,0.388c0.005,0.151,0.008,0.334,0.008,0.549
				c0,0.25,0.017,0.483,0.05,0.702s0.107,0.41,0.222,0.572c0.113,0.163,0.274,0.292,0.481,0.391c0.206,0.098,0.48,0.147,0.82,0.147
				c0.412,0,0.739-0.032,0.979-0.094c0.24-0.062,0.426-0.147,0.557-0.254c0.131-0.108,0.22-0.232,0.267-0.371
				c0.048-0.14,0.077-0.291,0.088-0.453c0-0.162-0.049-0.275-0.146-0.337c-0.098-0.062-0.211-0.094-0.339-0.094
				c-0.263,0-0.443,0.051-0.54,0.154c-0.097,0.102-0.146,0.264-0.146,0.486c0,0.069-0.025,0.125-0.076,0.167
				c-0.05,0.044-0.113,0.073-0.188,0.088c-0.075,0.015-0.153,0.024-0.234,0.028c-0.081,0.004-0.144,0.006-0.188,0.006
				c-0.123,0-0.222-0.041-0.297-0.122c-0.076-0.081-0.133-0.182-0.172-0.303c-0.038-0.12-0.064-0.25-0.075-0.388
				c-0.011-0.137-0.017-0.265-0.017-0.382v-0.232C179.97,50.892,179.976,50.799,179.987,50.698z
			M180.15,47.822
				c0.086-0.039,0.163-0.057,0.23-0.057c0.117,0,0.226,0.02,0.326,0.062c0.101,0.042,0.191,0.113,0.272,0.213
				c0.081,0.099,0.144,0.236,0.188,0.41c0.044,0.173,0.067,0.396,0.067,0.667c0,0.186-0.022,0.338-0.067,0.459
				c-0.044,0.12-0.098,0.215-0.159,0.285c-0.062,0.07-0.127,0.12-0.196,0.15c-0.071,0.03-0.127,0.045-0.173,0.045
				c-0.044,0-0.13-0.003-0.259-0.011c-0.129-0.007-0.238-0.019-0.326-0.034v-0.045c0.011-0.154,0.019-0.326,0.024-0.512
				c0.006-0.187,0.008-0.396,0.008-0.626c0-0.177-0.011-0.334-0.032-0.469c-0.023-0.137-0.033-0.242-0.033-0.318
				C180.021,47.933,180.064,47.859,180.15,47.822z
			M171.506,39.964c2.12-0.036,5.141,0.035,5.141-2.749c0-0.856-0.666-1.672-2.444-1.534c-3.739,0.642-3.471-1.018-3.542-1.767
				c-0.431-4.64-0.233-14.278-0.126-16.918c0.108-2.64-0.521-3.461-2.246-3.248c-1.942,0.32-2.104,2.999-2.14,4.568
				c-0.036,1.57-0.162,10.995-0.054,16.882C166.203,41.086,169.385,39.999,171.506,39.964z
			M167.555,48.461c-0.005,0.325-0.014,0.679-0.026,1.062
				c-0.011,0.382-0.016,0.763-0.016,1.141c0,0.509,0.016,0.915,0.05,1.217c0.033,0.302,0.11,0.53,0.23,0.685s0.294,0.252,0.523,0.295
				c0.229,0.041,0.543,0.062,0.946,0.062c0.155,0,0.306-0.023,0.451-0.068c0.146-0.045,0.229-0.138,0.252-0.278
				c-0.023-0.131-0.075-0.231-0.156-0.297c-0.081-0.067-0.235-0.107-0.464-0.122c-0.111-0.007-0.221-0.016-0.33-0.028
				s-0.174-0.024-0.197-0.039c-0.039-0.027-0.076-0.081-0.108-0.162c-0.034-0.081-0.059-0.178-0.076-0.288
				c-0.017-0.112-0.03-0.227-0.042-0.346c-0.01-0.118-0.016-0.229-0.016-0.331c0-0.163,0.02-0.404,0.059-0.725
				c0.04-0.322,0.059-0.663,0.059-1.025v-0.561c0-0.12-0.006-0.245-0.017-0.373c-0.012-0.128-0.023-0.247-0.033-0.356l-0.018-0.323
				c-0.011-0.109,0.002-0.216,0.042-0.32c0.039-0.104,0.058-0.222,0.058-0.354c0-0.34-0.008-0.595-0.025-0.765
				c-0.016-0.17-0.033-0.3-0.05-0.394c-0.017-0.092-0.031-0.172-0.042-0.237c-0.011-0.067-0.017-0.166-0.017-0.298
				c0-0.147,0.006-0.259,0.017-0.336c0.011-0.078,0.017-0.136,0.017-0.173c0-0.132-0.035-0.218-0.105-0.255
				c-0.069-0.038-0.219-0.072-0.447-0.102c-0.273,0-0.442,0.033-0.503,0.102c-0.061,0.068-0.092,0.153-0.092,0.255
				c0,0.117,0.015,0.235,0.042,0.354c0.028,0.118,0.042,0.244,0.042,0.376c0,0.147,0.003,0.303,0.008,0.465
				c0.006,0.162,0.009,0.319,0.009,0.469c0,0.15,0.003,0.29,0.008,0.417c0.006,0.125,0.008,0.232,0.008,0.319
				c0,0.087-0.005,0.25-0.016,0.49C167.569,47.855,167.56,48.137,167.555,48.461z"/>
		</g>
	</g>
</svg>
