<?xml version="1.0" encoding="utf-8"?>
<!-- Generator: Adobe Illustrator 16.0.0, SVG Export Plug-In . SVG Version: 6.00 Build 0)  -->
<!DOCTYPE svg PUBLIC "-//W3C//DTD SVG 1.1//EN" "http://www.w3.org/Graphics/SVG/1.1/DTD/svg11.dtd">
<svg version="1.1" id="Capa_1" xmlns="http://www.w3.org/2000/svg" xmlns:xlink="http://www.w3.org/1999/xlink" x="0px" y="0px" width="800px" height="500px" viewBox="0 0 800 500" enable-background="new 0 0 800 500" xml:space="preserve">
	<g>
		<g id="ubicacion">
			<path fill-rule="evenodd" clip-rule="evenodd" d="M115.615,69.229l0.096,0.331l-0.088-0.001c1.807,2.113,5.227,6.989,5.295,7.083
				c0.446,0.553,1.064,0.869,1.733,0.871c0.667,0,1.296-0.317,1.754-0.88c2.739-3.497,3.386-4.511,3.819-5.18
				c0.321-0.498,0.479-0.748,1.471-1.889c0.506-0.581,4.938-5.787,4.938-9.569c0-6.458-5.369-11.714-11.966-11.714
				c-6.597,0-11.787,5.256-11.787,11.714c0,2.93,2.873,7.134,4.735,9.232V69.229z
			M122.667,55.493c2.037,0,3.696,1.624,3.696,3.619
				c0,1.996-1.659,3.62-3.696,3.62c-2.039,0-3.698-1.624-3.698-3.62C118.969,57.117,120.628,55.493,122.667,55.493z"/>
		</g>
		<g id="lufke_life_experience">
			<path fill-rule="evenodd" clip-rule="evenodd" d="M217.609,28.795
				c-0.987-1.129-2.138-2.318-2.386-2.556c-0.785-0.754-0.231-1.325-0.231-1.325s5.473-7.448,6.543-8.503
				c1.07-1.054,1.066-1.709,0.483-2.388c-0.582-0.679-2-0.297-2.971,0.49c-1.736,1.406-4.338,6.067-5.479,7.27
				c-1.141,1.203-1.08,0.036-1.067-0.659c0.01-0.697-0.057-1.529,0.059-3.644c0.116-2.114-0.021-4.197-1.882-4.228
				c-3.08-0.049-2.095,4.4-2.227,9.162c-0.131,4.763-0.184,11.465-0.119,13.386c0.083,2.486-0.065,3.382,1.758,4.054
				c1.032,0.38,1.839-0.239,2.037-0.393c0.759-0.592,0.867-1.445,0.582-2.476c-0.128-0.464-0.18-1.638-0.235-3.166
				c-0.056-1.527-0.145-1.029-0.055-3.251c0.068-1.661,1.073-1.269,1.307-0.729c0.233,0.539,4.016,6.378,5.335,8.087
				c1.321,1.708,1.87,1.717,3.37,0.75c1.5-0.966,1.416-1.379,0.604-2.812S219.756,31.25,217.609,28.795z
			M219.662,50.78c-0.016,0.386-0.033,0.744-0.05,1.072
				c-0.016,0.329-0.025,0.566-0.025,0.714c0,0.083,0.019,0.148,0.059,0.195c0.039,0.047,0.091,0.082,0.154,0.105
				c0.065,0.023,0.127,0.036,0.189,0.04c0.061,0.003,0.108,0.006,0.142,0.006c0.302,0,0.494-0.103,0.578-0.309
				c0.083-0.206,0.125-0.564,0.125-1.073v-0.72c0-0.177-0.003-0.372-0.007-0.583c-0.006-0.211-0.01-0.441-0.01-0.691
				c0-0.03,0.007-0.113,0.017-0.249c0.011-0.135,0.026-0.288,0.046-0.458c0.02-0.169,0.034-0.334,0.046-0.495
				c0.011-0.161,0.016-0.284,0.016-0.371c0-0.14,0.059-0.231,0.172-0.274c0.115-0.044,0.303-0.081,0.565-0.111
				c0.111,0.008,0.202,0.054,0.271,0.14c0.07,0.084,0.122,0.184,0.155,0.299c0.034,0.115,0.056,0.24,0.067,0.377
				c0.012,0.136,0.016,0.262,0.016,0.379c0,0.083-0.002,0.158-0.008,0.224c-0.005,0.067-0.013,0.118-0.024,0.156v0.073v0.38
				l-0.009,0.565l-0.007,0.668l-0.009,0.646L222.124,52v0.284c0,0.025-0.004,0.048-0.01,0.067c-0.004,0.019-0.007,0.036-0.007,0.051
				v0.102c0,0.11,0.036,0.199,0.109,0.269c0.072,0.069,0.223,0.105,0.452,0.105c0.279,0,0.458-0.04,0.536-0.122
				c0.078-0.082,0.118-0.165,0.118-0.252c0-0.14-0.021-0.28-0.06-0.421c-0.038-0.141-0.059-0.291-0.059-0.444
				c0-0.117,0.014-0.243,0.042-0.376c0.028-0.134,0.042-0.257,0.042-0.366c-0.011-0.159-0.022-0.341-0.033-0.549
				c-0.012-0.177-0.021-0.391-0.025-0.643c-0.005-0.25-0.008-0.539-0.008-0.863c0-0.222-0.003-0.431-0.009-0.623
				c-0.005-0.192-0.019-0.343-0.042-0.452l-0.033-0.074c-0.034-0.061-0.086-0.135-0.155-0.224c-0.071-0.089-0.162-0.175-0.276-0.261
				c-0.115-0.084-0.257-0.158-0.427-0.22c-0.17-0.063-0.381-0.094-0.632-0.094c-0.196,0-0.36,0.016-0.494,0.048
				c-0.134,0.032-0.252,0.066-0.352,0.104c-0.021-0.03-0.057-0.059-0.105-0.087c-0.047-0.028-0.115-0.05-0.205-0.065l-0.117-0.011
				c-0.011,0-0.017-0.002-0.017-0.006c0-0.003-0.005-0.006-0.016-0.006l0.185,0.023c-0.056-0.015-0.107-0.024-0.151-0.028
				c-0.044-0.003-0.079-0.006-0.1-0.006c-0.208,0-0.359,0.047-0.457,0.14c-0.098,0.093-0.146,0.216-0.146,0.37
				c0,0.201,0.009,0.391,0.032,0.572c0.023,0.181,0.034,0.408,0.034,0.679c0,0.272-0.008,0.604-0.024,0.994
				C219.696,50.005,219.679,50.393,219.662,50.78z
			M186.272,39.576c4.75-0.75,5.829-7.251,6.296-10.25c0.467-2.999,0.288-10.501,0.359-11.858c0.072-1.356-0.108-2.856-1.044-3.25
				c-0.934-0.393-2.068,0.198-2.338,2.982c-0.27,2.784-0.756,9.608-1.079,13.356c-0.324,3.749-1.891,5.137-3.516,5.098
				c-1.705-0.041-3.698-1.975-3.878-5.794s-0.719-13.696-0.791-14.482c-0.072-0.785,0.018-1.803-0.953-2.035
				c-2.645-0.632-2.456,4.11-2.104,14.821C177.575,38.877,183.143,39.951,186.272,39.576z
			M540.157,147.73c23.013-7.854,39.173-6.961,39.173-6.961v-4.401
				c0,0-5.803-0.366-15.438,1.005c0,0-6.993,0.887-11.776,2.252c-20.576,4.907-50.162,16.999-79.27,46.559
				c-11.664,11.558-22.899,25.632-33.017,42.767c-2.053,3.353-4.079,6.834-6.081,10.43c-1.934-3.477-3.891-6.847-5.872-10.095
				c-11.593-19.752-24.661-35.462-38.177-47.95c-25.603-24.27-51.169-35.516-70.249-40.686c-0.943-0.294-7.438-1.975-14.175-2.87
				c-8.36-1.11-17.173-1.435-17.173-1.435v4.397c0,0,18.912-1.049,44.956,9.06c31.831,13.198,69.302,39.844,97.615,93.414
				c0.162,0.307,0.326,0.603,0.489,0.907c-0.163,0.305-0.327,0.601-0.489,0.907c-28.312,53.573-65.784,80.219-97.615,93.416
				c-26.044,10.107-44.956,9.062-44.956,9.062v4.396c0,0,8.813-0.325,17.173-1.436c6.737-0.893,13.232-2.574,14.175-2.869
				c19.08-5.171,44.646-16.416,70.249-40.685c13.516-12.489,26.584-28.199,38.177-47.951c1.981-3.248,3.938-6.618,5.872-10.095
				c2.001,3.596,4.028,7.078,6.081,10.432c10.117,17.134,21.353,31.206,33.017,42.765c29.107,29.562,58.693,41.653,79.27,46.56
				c4.783,1.365,11.776,2.252,11.776,2.252c9.635,1.37,15.438,1.005,15.438,1.005v-4.401c0,0-16.16,0.893-39.173-6.961
				c-32.988-12.302-73.352-38.806-103.398-95.605c-0.141-0.267-0.284-0.524-0.425-0.79c0.141-0.265,0.284-0.523,0.425-0.79
				C466.806,186.538,507.169,160.032,540.157,147.73z
			M211.921,51.072
				c-0.028,0.305-0.057,0.602-0.084,0.889c-0.028,0.287-0.042,0.507-0.042,0.663c0,0.185,0.047,0.305,0.142,0.359
				c0.096,0.055,0.207,0.082,0.335,0.082c0.112,0,0.188-0.006,0.231-0.02c0.042-0.013,0.143-0.053,0.304-0.121
				c0.033-0.016,0.062-0.04,0.084-0.074c0.021-0.034,0.04-0.105,0.05-0.215c0.012-0.109,0.026-0.269,0.042-0.478
				c0.016-0.209,0.036-0.495,0.058-0.857c0.022-0.201,0.044-0.441,0.067-0.726c0.023-0.282,0.034-0.612,0.034-0.991v-0.565
				c0-0.015,0.004-0.037,0.012-0.065c0.008-0.028,0.015-0.068,0.021-0.122c0.005-0.052,0.011-0.125,0.017-0.217
				c0.006-0.093,0.009-0.221,0.009-0.383c0-0.17-0.003-0.334-0.009-0.495c-0.005-0.161-0.009-0.255-0.009-0.286
				c-0.01-0.037-0.025-0.075-0.045-0.113c-0.02-0.038-0.06-0.074-0.121-0.11c-0.062-0.036-0.149-0.063-0.264-0.082
				c-0.115-0.019-0.275-0.028-0.481-0.028c-0.056,0-0.105,0.035-0.146,0.104c-0.042,0.071-0.075,0.163-0.098,0.278
				c-0.021,0.115-0.036,0.244-0.041,0.388c-0.006,0.142-0.009,0.288-0.009,0.436v0.719c0,0.163,0.003,0.28,0.009,0.354
				c0.005,0.074,0.01,0.124,0.016,0.149c0.005,0.027,0.014,0.055,0.024,0.086v0.011l0.017,0.028c0,0.105-0.013,0.29-0.042,0.553
				C211.977,50.482,211.949,50.766,211.921,51.072z
			M215.682,50.698c0.172,0.022,0.362,0.034,0.57,0.034
				c0.558,0,0.997-0.151,1.317-0.453c0.321-0.302,0.481-0.715,0.481-1.24c0-0.257-0.015-0.466-0.045-0.629
				c-0.031-0.162-0.063-0.293-0.097-0.394c-0.034-0.1-0.067-0.176-0.101-0.226c-0.032-0.052-0.056-0.084-0.067-0.099l-0.066-0.067
				c-0.151-0.148-0.375-0.281-0.674-0.4c-0.298-0.119-0.624-0.179-0.975-0.179c-0.346,0-0.613,0.047-0.799,0.139
				c-0.188,0.093-0.324,0.207-0.411,0.343c-0.086,0.135-0.138,0.277-0.155,0.421c-0.016,0.146-0.024,0.278-0.024,0.394
				c0,0.06-0.003,0.159-0.008,0.294c-0.006,0.136-0.014,0.278-0.025,0.425c-0.011,0.147-0.02,0.287-0.025,0.418
				c-0.006,0.133-0.008,0.222-0.008,0.267c0,0.102,0.002,0.198,0.008,0.286c0.006,0.089,0.01,0.187,0.016,0.293
				c0.006,0.108,0.011,0.237,0.018,0.388c0.004,0.151,0.007,0.334,0.007,0.549c0,0.25,0.017,0.483,0.05,0.702s0.108,0.41,0.222,0.572
				s0.274,0.292,0.481,0.391c0.206,0.098,0.479,0.147,0.82,0.147c0.413,0,0.74-0.032,0.98-0.094c0.24-0.062,0.425-0.147,0.556-0.254
				c0.132-0.108,0.222-0.232,0.268-0.371c0.048-0.14,0.076-0.291,0.088-0.453c0-0.162-0.048-0.275-0.146-0.337
				c-0.097-0.062-0.211-0.094-0.339-0.094c-0.263,0-0.441,0.051-0.54,0.154c-0.097,0.102-0.146,0.264-0.146,0.486
				c0,0.069-0.025,0.125-0.077,0.167c-0.05,0.044-0.113,0.073-0.187,0.088c-0.076,0.015-0.154,0.024-0.235,0.028
				c-0.081,0.004-0.145,0.006-0.189,0.006c-0.122,0-0.221-0.041-0.297-0.122c-0.075-0.081-0.132-0.182-0.171-0.303
				c-0.039-0.12-0.064-0.25-0.076-0.388c-0.011-0.137-0.016-0.265-0.016-0.382v-0.232C215.666,50.892,215.671,50.799,215.682,50.698z
			M215.846,47.822c0.087-0.039,0.164-0.057,0.23-0.057c0.117,0,0.226,0.02,0.327,0.062c0.1,0.042,0.19,0.113,0.271,0.213
				c0.081,0.099,0.144,0.236,0.188,0.41c0.045,0.173,0.067,0.396,0.067,0.667c0,0.186-0.022,0.338-0.067,0.459
				c-0.044,0.12-0.098,0.215-0.16,0.285c-0.061,0.07-0.126,0.12-0.196,0.15s-0.126,0.045-0.171,0.045
				c-0.045,0-0.132-0.003-0.26-0.011c-0.129-0.007-0.237-0.019-0.326-0.034v-0.045c0.011-0.154,0.019-0.326,0.024-0.512
				c0.006-0.187,0.009-0.396,0.009-0.626c0-0.177-0.011-0.334-0.034-0.469c-0.022-0.137-0.033-0.242-0.033-0.318
				C215.716,47.933,215.759,47.859,215.846,47.822z
			M176.033,47.833c0.229,0,0.453-0.004,0.674-0.01c0.22-0.008,0.42-0.028,0.599-0.06c0.178-0.032,0.323-0.077,0.432-0.133
				c0.109-0.057,0.163-0.132,0.163-0.226c0-0.117-0.063-0.206-0.188-0.266c-0.126-0.061-0.27-0.091-0.431-0.091
				c-0.14,0-0.254,0.015-0.343,0.046c-0.011,0-0.027,0.003-0.051,0.011c-0.022,0.006-0.07,0.014-0.146,0.022
				c-0.076,0.008-0.184,0.013-0.326,0.017c-0.143,0.003-0.333,0.006-0.573,0.006c0-0.23,0.002-0.45,0.008-0.66
				c0.005-0.209,0.011-0.391,0.017-0.547c0.005-0.155,0.017-0.28,0.033-0.376c0.017-0.097,0.042-0.151,0.076-0.167l0.083-0.023
				c0.05-0.015,0.121-0.033,0.213-0.053c0.093-0.021,0.193-0.037,0.302-0.048c0.109-0.011,0.219-0.017,0.331-0.017
				c0.117,0,0.209,0.012,0.277,0.037c0.066,0.024,0.126,0.048,0.179,0.07c0.053,0.023,0.102,0.046,0.147,0.068
				c0.044,0.023,0.111,0.035,0.2,0.035c0.195,0,0.364-0.036,0.507-0.108c0.143-0.072,0.214-0.162,0.214-0.271
				c0-0.08-0.042-0.15-0.126-0.212c-0.083-0.062-0.195-0.113-0.334-0.15c-0.14-0.038-0.292-0.068-0.457-0.09
				c-0.165-0.023-0.323-0.035-0.474-0.035c-0.261,0-0.524,0.015-0.786,0.046c-0.263,0.03-0.497,0.078-0.704,0.143
				c-0.207,0.066-0.378,0.145-0.514,0.233c-0.137,0.089-0.211,0.191-0.222,0.308c-0.034,0.223-0.068,0.508-0.1,0.855
				c-0.033,0.348-0.057,0.668-0.068,0.963h-0.292c-0.044,0-0.111,0.009-0.197,0.028c-0.086,0.019-0.176,0.048-0.268,0.087
				c-0.092,0.04-0.172,0.087-0.238,0.143c-0.067,0.054-0.101,0.111-0.101,0.171c0,0.046,0.042,0.118,0.125,0.218
				c0.084,0.1,0.223,0.15,0.418,0.15c0.023,0,0.055-0.001,0.097-0.005c0.042-0.004,0.091-0.013,0.147-0.028
				c0.099-0.023,0.198-0.034,0.292-0.034h0.067v0.849c0,0.2,0.011,0.404,0.033,0.611c0.022,0.208,0.033,0.358,0.033,0.453
				c0,0.061-0.005,0.153-0.017,0.277c-0.011,0.125-0.016,0.252-0.016,0.385c0,0.354,0.005,0.63,0.016,0.827
				c0.012,0.196,0.025,0.353,0.042,0.47s0.034,0.218,0.05,0.303c0.017,0.084,0.025,0.189,0.025,0.314
				c0,0.139-0.009,0.248-0.025,0.325c-0.017,0.078-0.025,0.14-0.025,0.185c0,0.06,0.002,0.112,0.008,0.155
				c0.005,0.044,0.026,0.076,0.062,0.1c0.037,0.022,0.088,0.041,0.156,0.056c0.066,0.016,0.165,0.03,0.292,0.045
				c0.262,0,0.445-0.044,0.549-0.133c0.103-0.088,0.154-0.195,0.154-0.32c0-0.143-0.018-0.285-0.054-0.424
				c-0.037-0.14-0.055-0.283-0.055-0.431c0-0.294-0.002-0.523-0.008-0.691c-0.005-0.166-0.013-0.311-0.025-0.436
				c-0.012-0.124-0.025-0.244-0.042-0.36c-0.016-0.114-0.031-0.266-0.042-0.455c-0.012-0.189-0.02-0.434-0.025-0.736
				c-0.006-0.302-0.008-0.701-0.008-1.195c0-0.052,0.015-0.102,0.045-0.15C175.85,47.856,175.922,47.833,176.033,47.833z
			M213.452,45.596c0-0.056-0.007-0.113-0.024-0.169c-0.018-0.057-0.05-0.113-0.101-0.168
				c-0.051-0.054-0.125-0.098-0.222-0.132c-0.097-0.035-0.222-0.051-0.373-0.051c-0.262,0-0.497,0.073-0.704,0.221
				c-0.205,0.147-0.309,0.321-0.309,0.521c0,0.127,0.1,0.229,0.302,0.303c0.2,0.074,0.425,0.11,0.677,0.11
				c0.218,0,0.399-0.065,0.541-0.196C213.381,45.905,213.452,45.759,213.452,45.596z
			M208.075,52.657
				c0.207,0,0.338-0.044,0.395-0.132c0.055-0.089,0.083-0.195,0.083-0.32c0-0.132-0.022-0.299-0.066-0.498
				c-0.044-0.201-0.067-0.429-0.067-0.686c0-0.215,0.006-0.442,0.017-0.683c0.012-0.239,0.026-0.471,0.042-0.696
				c0.017-0.225,0.03-0.435,0.042-0.631s0.017-0.363,0.017-0.503c0-0.102,0.037-0.211,0.112-0.325
				c0.077-0.116,0.166-0.222,0.268-0.321c0.104-0.098,0.21-0.18,0.319-0.249c0.109-0.068,0.202-0.109,0.28-0.125
				c0.056-0.011,0.108-0.019,0.155-0.022c0.047-0.004,0.099-0.006,0.155-0.006c0.134,0,0.25,0.009,0.351,0.025
				c0.101,0.017,0.186,0.025,0.251,0.025c0.102,0,0.167-0.029,0.202-0.087c0.033-0.059,0.05-0.18,0.05-0.365
				c0-0.079-0.085-0.149-0.255-0.21c-0.17-0.059-0.381-0.09-0.632-0.09h-0.017c-0.585,0-1,0.234-1.239,0.702
				c-0.033-0.068-0.053-0.146-0.059-0.235c-0.006-0.088-0.019-0.172-0.042-0.25c-0.022-0.077-0.062-0.142-0.117-0.197
				c-0.056-0.055-0.154-0.083-0.293-0.083c-0.14,0-0.252,0.039-0.339,0.116c-0.086,0.078-0.149,0.186-0.189,0.326
				c-0.039,0.14-0.066,0.3-0.083,0.484c-0.017,0.183-0.026,0.378-0.026,0.586c-0.004,0.166-0.008,0.336-0.008,0.509
				c0,0.174,0.004,0.352,0.008,0.533c0.012,0.362,0.018,0.679,0.018,0.951l-0.018,0.867c0,0.155-0.002,0.296-0.008,0.424
				c-0.006,0.128-0.009,0.248-0.009,0.357c0,0.297,0.041,0.507,0.122,0.628C207.574,52.597,207.768,52.657,208.075,52.657z
			M171.66,53.064c0.112,0,0.189-0.006,0.23-0.02
				c0.042-0.013,0.144-0.053,0.306-0.121c0.033-0.016,0.061-0.04,0.083-0.074c0.023-0.034,0.039-0.105,0.051-0.215
				c0.011-0.109,0.025-0.269,0.042-0.478c0.017-0.209,0.036-0.495,0.059-0.857c0.022-0.201,0.045-0.441,0.066-0.726
				c0.023-0.282,0.035-0.612,0.035-0.991v-0.565c0-0.015,0.004-0.037,0.012-0.065c0.009-0.028,0.015-0.068,0.021-0.122
				c0.005-0.052,0.011-0.125,0.017-0.217c0.005-0.093,0.008-0.221,0.008-0.383c0-0.17-0.003-0.334-0.008-0.495
				c-0.005-0.161-0.008-0.255-0.008-0.286c-0.011-0.037-0.027-0.075-0.046-0.113c-0.02-0.038-0.06-0.074-0.122-0.11
				c-0.062-0.036-0.149-0.063-0.264-0.082c-0.114-0.019-0.274-0.028-0.481-0.028c-0.056,0-0.104,0.035-0.146,0.104
				c-0.042,0.071-0.075,0.163-0.096,0.278c-0.023,0.115-0.037,0.244-0.042,0.388c-0.005,0.142-0.009,0.288-0.009,0.436v0.719
				c0,0.163,0.004,0.28,0.009,0.354c0.006,0.074,0.011,0.124,0.017,0.149c0.005,0.027,0.013,0.055,0.025,0.086v0.011l0.016,0.028
				c0,0.105-0.014,0.29-0.041,0.553c-0.028,0.262-0.057,0.546-0.084,0.852c-0.028,0.305-0.056,0.602-0.084,0.889
				c-0.028,0.287-0.042,0.507-0.042,0.663c0,0.185,0.048,0.305,0.143,0.359C171.42,53.037,171.531,53.064,171.66,53.064z
			M228.275,51.799c-0.115-0.062-0.271-0.093-0.464-0.093c-0.129,0-0.238,0.015-0.327,0.045s-0.172,0.063-0.247,0.099
				c-0.076,0.036-0.15,0.069-0.226,0.099s-0.152,0.045-0.23,0.045c-0.101,0-0.19-0.025-0.271-0.08
				c-0.082-0.052-0.146-0.116-0.197-0.189c-0.05-0.074-0.088-0.149-0.113-0.23c-0.025-0.079-0.038-0.141-0.038-0.186
				c0-0.068-0.007-0.125-0.024-0.173c-0.016-0.047-0.034-0.109-0.05-0.186c-0.017-0.078-0.03-0.186-0.042-0.323
				c-0.012-0.138-0.017-0.335-0.017-0.592c0-0.23,0.008-0.494,0.025-0.792c0.016-0.298,0.044-0.577,0.083-0.835
				c0.039-0.258,0.099-0.479,0.18-0.662c0.08-0.183,0.186-0.275,0.315-0.275c0.1,0,0.207,0.014,0.322,0.042
				c0.114,0.029,0.222,0.059,0.325,0.093c0.104,0.035,0.201,0.065,0.293,0.093c0.092,0.028,0.167,0.043,0.222,0.043
				c0.228,0,0.386-0.038,0.473-0.114c0.086-0.075,0.13-0.136,0.13-0.181c0-0.136-0.06-0.248-0.181-0.334
				c-0.119-0.087-0.267-0.151-0.44-0.192c-0.172-0.042-0.355-0.07-0.547-0.085c-0.193-0.015-0.37-0.023-0.532-0.023
				c-0.435,0-0.772,0.076-1.013,0.227c-0.24,0.151-0.42,0.361-0.54,0.631c-0.12,0.27-0.191,0.596-0.214,0.98
				c-0.021,0.383-0.033,0.81-0.033,1.282c0,0.068,0.002,0.127,0.008,0.178c0.005,0.051,0.008,0.113,0.008,0.187
				c0,0.073,0.003,0.175,0.008,0.302c0.006,0.128,0.008,0.308,0.008,0.539c0,0.03,0.025,0.128,0.076,0.293
				c0.05,0.167,0.143,0.342,0.28,0.527c0.137,0.185,0.322,0.353,0.557,0.504c0.235,0.151,0.536,0.226,0.904,0.226
				c0.296,0,0.552-0.027,0.77-0.082c0.219-0.054,0.396-0.121,0.533-0.199c0.136-0.077,0.237-0.154,0.301-0.231
				c0.063-0.078,0.096-0.135,0.096-0.173C228.446,51.93,228.389,51.862,228.275,51.799z
			M197.136,50.782l-0.008,0.165v0.226
				c0,0.215,0.005,0.403,0.017,0.561c0.011,0.159,0.021,0.304,0.033,0.437c0.011,0.131,0.022,0.259,0.034,0.382
				c0.011,0.122,0.016,0.258,0.016,0.405v0.221c0,0.087,0.004,0.157,0.009,0.209c0.006,0.053,0.008,0.109,0.008,0.167
				c0,0.059,0.003,0.124,0.008,0.193c0.006,0.069,0.009,0.159,0.009,0.268c0,0.128-0.009,0.233-0.025,0.312
				c-0.016,0.08-0.025,0.137-0.025,0.175c0,0.129,0.037,0.212,0.114,0.252c0.075,0.04,0.221,0.075,0.438,0.105h0.05
				c0.251,0,0.417-0.043,0.498-0.127c0.081-0.085,0.122-0.193,0.122-0.326c0-0.038-0.003-0.088-0.009-0.15
				c-0.005-0.062-0.011-0.124-0.016-0.181c-0.005-0.058-0.017-0.108-0.034-0.15l-0.017-0.062l-0.083-1.173
				c0.083,0.008,0.179,0.014,0.285,0.017c0.105,0.004,0.24,0.006,0.402,0.006c0.368,0,0.664-0.046,0.887-0.138
				c0.223-0.093,0.392-0.195,0.507-0.306c0.114-0.112,0.188-0.216,0.221-0.314c0.034-0.098,0.05-0.151,0.05-0.159
				c0-0.121,0.005-0.235,0.017-0.345c0.011-0.109,0.019-0.214,0.024-0.314c0.006-0.1,0.014-0.201,0.026-0.305
				c0.01-0.103,0.017-0.222,0.017-0.354v-0.374c0-0.46-0.008-0.892-0.025-1.293c-0.017-0.402-0.075-0.752-0.171-1.05
				c-0.098-0.298-0.258-0.531-0.481-0.696c-0.223-0.166-0.542-0.25-0.955-0.25c-0.157,0-0.31,0.011-0.46,0.034
				c-0.151,0.022-0.276,0.046-0.377,0.068l-0.067-0.033c-0.149-0.053-0.281-0.08-0.393-0.08c-0.128,0-0.234,0.064-0.318,0.189
				c-0.084,0.127-0.153,0.301-0.206,0.521c-0.053,0.221-0.087,0.483-0.105,0.784c-0.016,0.303-0.024,0.623-0.024,0.963
				c0,0.201,0.004,0.387,0.008,0.561c0.006,0.174,0.009,0.334,0.009,0.481v0.289L197.136,50.782z
			M198.208,51.606
				c0.021-0.066,0.033-0.121,0.033-0.167c0-0.015-0.001-0.026-0.007-0.035c-0.006-0.006-0.008-0.014-0.008-0.022
				c0-0.434,0.004-0.854,0.016-1.26c0.012-0.405,0.029-0.782,0.05-1.129c0.011-0.238,0.023-0.454,0.034-0.648
				c0.011-0.194,0.017-0.361,0.017-0.501v-0.22c0.106-0.031,0.224-0.059,0.354-0.086c0.131-0.026,0.252-0.04,0.365-0.04
				c0.094,0,0.202,0.062,0.322,0.184c0.119,0.123,0.18,0.281,0.18,0.473c0,0.449,0.011,0.877,0.033,1.283
				c0.022,0.405,0.033,0.782,0.033,1.129c0,0.17-0.002,0.312-0.008,0.425c-0.005,0.113-0.014,0.205-0.025,0.275
				c-0.011,0.069-0.024,0.125-0.042,0.166c-0.017,0.043-0.031,0.078-0.042,0.108v0.063c0,0.029-0.005,0.07-0.016,0.124
				c-0.011,0.052-0.038,0.104-0.08,0.156c-0.042,0.051-0.104,0.093-0.188,0.127c-0.084,0.034-0.195,0.051-0.334,0.051
				c-0.308,0-0.504-0.017-0.59-0.051s-0.13-0.109-0.13-0.227C198.173,51.732,198.185,51.673,198.208,51.606z
			M192.453,47.16
				c-0.044,0-0.098,0.001-0.163,0.005c-0.064,0.003-0.126,0.013-0.188,0.028c-0.062,0.015-0.114,0.044-0.155,0.087
				s-0.063,0.099-0.063,0.167c0,0.064,0.026,0.139,0.081,0.224c0.052,0.084,0.095,0.161,0.128,0.229c0,0.007-0.002,0.013-0.007,0.017
				c-0.006,0.003-0.009,0.013-0.009,0.028c0,0.042,0.016,0.081,0.051,0.12c0.033,0.037,0.061,0.076,0.082,0.113l0.881,1.682
				c-0.174,0.196-0.276,0.32-0.311,0.374l-0.159,0.406c-0.078,0.208-0.15,0.382-0.218,0.521c-0.068,0.14-0.13,0.262-0.189,0.365
				c-0.059,0.104-0.114,0.198-0.167,0.284c-0.054,0.085-0.103,0.175-0.147,0.268v-0.017c-0.067,0.118-0.125,0.219-0.175,0.307
				c-0.051,0.086-0.077,0.152-0.077,0.198c0,0.067,0.051,0.144,0.151,0.229c0.1,0.085,0.243,0.128,0.426,0.128
				c0.185,0,0.326-0.052,0.424-0.156c0.097-0.104,0.181-0.224,0.25-0.36c0.07-0.135,0.13-0.269,0.18-0.402
				c0.05-0.132,0.121-0.228,0.21-0.288c0.062-0.133,0.122-0.264,0.184-0.394c0.062-0.13,0.131-0.258,0.21-0.382l0.024,0.022
				c0.09,0.162,0.174,0.31,0.255,0.444c0.083,0.134,0.155,0.271,0.222,0.411l0.05,0.118c0.034,0.094,0.08,0.198,0.138,0.309
				c0.059,0.112,0.129,0.217,0.213,0.318c0.083,0.099,0.18,0.182,0.289,0.249s0.244,0.1,0.406,0.1c0.045,0,0.097-0.002,0.155-0.006
				c0.059-0.004,0.115-0.014,0.171-0.028c0.057-0.015,0.104-0.044,0.144-0.088c0.038-0.044,0.058-0.1,0.058-0.167
				c0-0.038-0.009-0.075-0.024-0.111c-0.017-0.036-0.043-0.083-0.076-0.144v0.01l-0.118-0.277c-0.022-0.057-0.076-0.154-0.163-0.291
				c-0.087-0.138-0.175-0.289-0.265-0.451v0.012l-0.451-0.759l0.017,0.017l-0.394-0.747c0.49-0.672,0.833-1.206,1.024-1.6
				c0.193-0.395,0.29-0.673,0.29-0.835c0.005-0.146-0.07-0.24-0.226-0.278c-0.157-0.037-0.286-0.056-0.386-0.056
				c-0.122,0-0.224,0.034-0.304,0.099c-0.082,0.066-0.159,0.167-0.235,0.3s-0.158,0.302-0.247,0.504
				c-0.09,0.203-0.204,0.438-0.343,0.711h0.017l-0.151,0.231c-0.033-0.056-0.057-0.085-0.071-0.085c-0.015,0-0.032-0.019-0.054-0.057
				c-0.023-0.037-0.062-0.124-0.117-0.259c-0.056-0.136-0.16-0.371-0.31-0.702c-0.089-0.208-0.183-0.376-0.281-0.505
				C192.845,47.223,192.682,47.16,192.453,47.16z
			M204.736,47.224c-0.299-0.119-0.624-0.179-0.975-0.179
				c-0.345,0-0.612,0.047-0.799,0.139c-0.187,0.093-0.323,0.207-0.411,0.343c-0.087,0.135-0.138,0.277-0.155,0.421
				c-0.016,0.146-0.025,0.278-0.025,0.394c0,0.06-0.003,0.159-0.009,0.294c-0.005,0.136-0.013,0.278-0.024,0.425
				c-0.011,0.147-0.02,0.287-0.026,0.418c-0.004,0.133-0.007,0.222-0.007,0.267c0,0.102,0.003,0.198,0.007,0.286
				c0.006,0.089,0.013,0.187,0.017,0.293c0.007,0.108,0.012,0.237,0.017,0.388c0.006,0.151,0.009,0.334,0.009,0.549
				c0,0.25,0.017,0.483,0.05,0.702c0.034,0.219,0.107,0.41,0.222,0.572c0.114,0.163,0.274,0.292,0.481,0.391
				c0.207,0.098,0.479,0.147,0.82,0.147c0.413,0,0.74-0.032,0.979-0.094c0.24-0.062,0.427-0.147,0.558-0.254
				c0.13-0.108,0.219-0.232,0.267-0.371c0.048-0.14,0.077-0.291,0.088-0.453c0-0.162-0.048-0.275-0.146-0.337
				c-0.098-0.062-0.211-0.094-0.339-0.094c-0.262,0-0.443,0.051-0.539,0.154c-0.099,0.102-0.148,0.264-0.148,0.486
				c0,0.069-0.024,0.125-0.075,0.167c-0.05,0.044-0.113,0.073-0.188,0.088c-0.076,0.015-0.154,0.024-0.234,0.028
				c-0.081,0.004-0.144,0.006-0.188,0.006c-0.123,0-0.222-0.041-0.297-0.122c-0.076-0.081-0.133-0.182-0.173-0.303
				c-0.038-0.12-0.063-0.25-0.075-0.388c-0.012-0.137-0.017-0.265-0.017-0.382v-0.232c0-0.083,0.005-0.176,0.017-0.278
				c0.173,0.022,0.362,0.034,0.57,0.034c0.557,0,0.996-0.151,1.318-0.453c0.32-0.302,0.481-0.715,0.481-1.24
				c0-0.257-0.016-0.466-0.047-0.629c-0.03-0.162-0.062-0.293-0.096-0.394c-0.033-0.1-0.067-0.176-0.1-0.226
				c-0.033-0.052-0.056-0.084-0.068-0.099l-0.066-0.067C205.259,47.476,205.035,47.343,204.736,47.224z
			M204.598,49.577
				c-0.044,0.12-0.098,0.215-0.159,0.285c-0.062,0.07-0.126,0.12-0.196,0.15c-0.07,0.03-0.128,0.045-0.172,0.045
				s-0.13-0.003-0.259-0.011c-0.128-0.007-0.237-0.019-0.326-0.034v-0.045c0.011-0.154,0.02-0.326,0.024-0.512
				c0.007-0.187,0.009-0.396,0.009-0.626c0-0.177-0.011-0.334-0.033-0.469c-0.022-0.137-0.033-0.242-0.033-0.318
				c0-0.109,0.043-0.183,0.13-0.22c0.086-0.039,0.163-0.057,0.229-0.057c0.117,0,0.226,0.02,0.327,0.062
				c0.101,0.042,0.192,0.113,0.272,0.213c0.081,0.099,0.144,0.236,0.188,0.41c0.044,0.173,0.067,0.396,0.067,0.667
				C204.665,49.303,204.642,49.456,204.598,49.577z
			M196.284,33.603c0.055,2.945-0.377,5.909,1.782,5.909
				c1.08,0,1.943-0.411,1.89-2.231c-0.055-1.82-0.063-2.41-0.063-4.767c0-2.355,1.611-2.285,2.691-2.285
				c1.079,0,2.249-0.634,2.249-1.839c0-1.204-1.447-1.611-2.232-1.695c-1.572-0.169-2.779,0.686-2.78-2.338
				c-0.001-3.025-0.008-3.875-0.026-5.285c-0.018-1.41,0.594-2.079,2.645-1.892c2.409,0.233,2.987-0.973,2.987-2.125
				s-1.133-1.856-4.048-1.856c-5.373,0-5.633,0.207-5.471,4.838C196.068,22.668,196.23,30.658,196.284,33.603z
			M188.122,50.698
				c0.173,0.022,0.362,0.034,0.569,0.034c0.559,0,0.998-0.151,1.318-0.453c0.321-0.302,0.482-0.715,0.482-1.24
				c0-0.257-0.016-0.466-0.046-0.629c-0.03-0.162-0.063-0.293-0.095-0.394c-0.033-0.1-0.068-0.176-0.102-0.226
				c-0.033-0.052-0.056-0.084-0.067-0.099l-0.066-0.067c-0.15-0.148-0.375-0.281-0.674-0.4s-0.623-0.179-0.974-0.179
				c-0.347,0-0.614,0.047-0.8,0.139c-0.187,0.093-0.324,0.207-0.411,0.343c-0.086,0.135-0.138,0.277-0.154,0.421
				c-0.017,0.146-0.025,0.278-0.025,0.394c0,0.06-0.003,0.159-0.009,0.294c-0.006,0.136-0.014,0.278-0.025,0.425
				c-0.011,0.147-0.019,0.287-0.025,0.418c-0.005,0.133-0.008,0.222-0.008,0.267c0,0.102,0.002,0.198,0.008,0.286
				c0.006,0.089,0.012,0.187,0.017,0.293c0.006,0.108,0.011,0.237,0.016,0.388c0.006,0.151,0.01,0.334,0.01,0.549
				c0,0.25,0.017,0.483,0.05,0.702c0.033,0.219,0.108,0.41,0.222,0.572c0.114,0.163,0.274,0.292,0.481,0.391
				c0.206,0.098,0.479,0.147,0.82,0.147c0.413,0,0.739-0.032,0.979-0.094c0.24-0.062,0.426-0.147,0.557-0.254
				c0.131-0.108,0.22-0.232,0.269-0.371c0.046-0.14,0.077-0.291,0.087-0.453c0-0.162-0.049-0.275-0.146-0.337
				c-0.098-0.062-0.21-0.094-0.339-0.094c-0.262,0-0.442,0.051-0.54,0.154c-0.098,0.102-0.146,0.264-0.146,0.486
				c0,0.069-0.025,0.125-0.075,0.167c-0.05,0.044-0.113,0.073-0.188,0.088c-0.076,0.015-0.154,0.024-0.234,0.028
				c-0.082,0.004-0.145,0.006-0.189,0.006c-0.123,0-0.222-0.041-0.297-0.122c-0.076-0.081-0.133-0.182-0.172-0.303
				c-0.039-0.12-0.064-0.25-0.075-0.388c-0.011-0.137-0.017-0.265-0.017-0.382v-0.232C188.105,50.892,188.111,50.799,188.122,50.698z
			M188.286,47.822c0.086-0.039,0.163-0.057,0.23-0.057c0.117,0,0.226,0.02,0.326,0.062c0.101,0.042,0.192,0.113,0.272,0.213
				c0.081,0.099,0.144,0.236,0.188,0.41c0.044,0.173,0.066,0.396,0.066,0.667c0,0.186-0.022,0.338-0.066,0.459
				c-0.045,0.12-0.098,0.215-0.16,0.285c-0.062,0.07-0.126,0.12-0.197,0.15c-0.07,0.03-0.127,0.045-0.171,0.045
				s-0.13-0.003-0.259-0.011c-0.128-0.007-0.238-0.019-0.327-0.034v-0.045c0.012-0.154,0.02-0.326,0.025-0.512
				c0.006-0.187,0.008-0.396,0.008-0.626c0-0.177-0.011-0.334-0.033-0.469c-0.022-0.137-0.034-0.242-0.034-0.318
				C188.155,47.933,188.199,47.859,188.286,47.822z
			M232.761,51.473c-0.262,0-0.442,0.051-0.54,0.154
				c-0.098,0.102-0.146,0.264-0.146,0.486c0,0.069-0.024,0.125-0.076,0.167c-0.049,0.044-0.112,0.073-0.187,0.088
				c-0.077,0.015-0.154,0.024-0.235,0.028c-0.081,0.004-0.144,0.006-0.189,0.006c-0.123,0-0.221-0.041-0.296-0.122
				c-0.077-0.081-0.133-0.182-0.173-0.303c-0.039-0.12-0.063-0.25-0.075-0.388c-0.011-0.137-0.017-0.265-0.017-0.382v-0.232
				c0-0.083,0.006-0.176,0.017-0.278c0.173,0.022,0.362,0.034,0.568,0.034c0.558,0,0.998-0.151,1.319-0.453
				c0.321-0.302,0.481-0.715,0.481-1.24c0-0.257-0.015-0.466-0.046-0.629c-0.03-0.162-0.062-0.293-0.096-0.394
				c-0.034-0.1-0.068-0.176-0.1-0.226c-0.035-0.052-0.057-0.084-0.068-0.099l-0.066-0.067c-0.151-0.148-0.375-0.281-0.674-0.4
				s-0.624-0.179-0.975-0.179c-0.346,0-0.613,0.047-0.799,0.139c-0.188,0.093-0.325,0.207-0.412,0.343
				c-0.086,0.135-0.138,0.277-0.154,0.421c-0.016,0.146-0.024,0.278-0.024,0.394c0,0.06-0.003,0.159-0.008,0.294
				c-0.007,0.136-0.014,0.278-0.026,0.425c-0.011,0.147-0.019,0.287-0.025,0.418c-0.005,0.133-0.007,0.222-0.007,0.267
				c0,0.102,0.002,0.198,0.007,0.286c0.007,0.089,0.012,0.187,0.017,0.293c0.006,0.108,0.011,0.237,0.016,0.388
				c0.006,0.151,0.009,0.334,0.009,0.549c0,0.25,0.017,0.483,0.05,0.702c0.034,0.219,0.108,0.41,0.222,0.572
				c0.113,0.163,0.274,0.292,0.481,0.391c0.206,0.098,0.479,0.147,0.82,0.147c0.412,0,0.74-0.032,0.979-0.094
				c0.24-0.062,0.426-0.147,0.557-0.254c0.132-0.108,0.221-0.232,0.268-0.371c0.047-0.14,0.076-0.291,0.089-0.453
				c0-0.162-0.049-0.275-0.147-0.337C233.002,51.505,232.889,51.473,232.761,51.473z
			M231.007,47.822
				c0.086-0.039,0.163-0.057,0.23-0.057c0.117,0,0.226,0.02,0.326,0.062s0.192,0.113,0.272,0.213c0.081,0.099,0.143,0.236,0.188,0.41
				c0.044,0.173,0.067,0.396,0.067,0.667c0,0.186-0.023,0.338-0.067,0.459c-0.045,0.12-0.098,0.215-0.159,0.285
				c-0.062,0.07-0.127,0.12-0.198,0.15c-0.069,0.03-0.126,0.045-0.171,0.045s-0.131-0.003-0.259-0.011
				c-0.129-0.007-0.237-0.019-0.326-0.034v-0.045c0.011-0.154,0.019-0.326,0.024-0.512c0.007-0.187,0.009-0.396,0.009-0.626
				c0-0.177-0.012-0.334-0.033-0.469c-0.023-0.137-0.034-0.242-0.034-0.318C230.877,47.933,230.92,47.859,231.007,47.822z
			M172.087,46.23c0.218,0,0.398-0.065,0.54-0.196c0.142-0.129,0.213-0.275,0.213-0.438c0-0.056-0.008-0.113-0.025-0.169
				c-0.017-0.057-0.05-0.113-0.1-0.168c-0.05-0.054-0.125-0.098-0.222-0.132c-0.098-0.035-0.221-0.051-0.372-0.051
				c-0.263,0-0.497,0.073-0.703,0.221c-0.207,0.147-0.311,0.321-0.311,0.521c0,0.127,0.102,0.229,0.302,0.303
				C171.61,46.194,171.836,46.23,172.087,46.23z
			M230.148,16.801c0.934-0.071,0.77-0.086,2.622,0.003
				c1.851,0.089,2.354-0.598,2.354-1.75s-0.88-1.838-3.774-1.749c-0.988,0.018-1.671-0.107-2.749-0.107
				c-2.516,0-2.551,0.798-2.551,1.82c0,1.268-0.343,14.584-0.343,17.691s-0.808,6.409,3.397,6.409s0.952,0.018,2.875,0.018
				c1.923,0,3.109-0.785,3.074-1.962c0-1.375-1.636-1.501-4.152-1.501c-1.114,0-1.724-0.035-1.724-1.463
				c0-2.749-0.055-2.188-0.055-3.285c0-1.25-0.108-1.821,0.719-1.946c0.827-0.125,1.754-0.191,2.355-0.25
				c1.275-0.125,1.796-0.607,1.796-2.071c0-1.463-1.761-1.267-2.659-1.231c-0.898,0.036-2.229,0.053-2.229-1.607
				c0-0.482,0.018-3.766,0.018-5.623C229.121,17.171,229.213,16.873,230.148,16.801z
			M179.987,50.698
				c0.173,0.022,0.362,0.034,0.569,0.034c0.557,0,0.997-0.151,1.319-0.453c0.32-0.302,0.481-0.715,0.481-1.24
				c0-0.257-0.016-0.466-0.047-0.629c-0.029-0.162-0.062-0.293-0.096-0.394c-0.033-0.1-0.066-0.176-0.1-0.226
				c-0.033-0.052-0.056-0.084-0.068-0.099l-0.066-0.067c-0.151-0.148-0.375-0.281-0.674-0.4s-0.624-0.179-0.975-0.179
				c-0.346,0-0.613,0.047-0.8,0.139c-0.187,0.093-0.323,0.207-0.41,0.343c-0.087,0.135-0.138,0.277-0.155,0.421
				c-0.017,0.146-0.024,0.278-0.024,0.394c0,0.06-0.003,0.159-0.009,0.294c-0.005,0.136-0.014,0.278-0.026,0.425
				c-0.011,0.147-0.019,0.287-0.024,0.418c-0.006,0.133-0.008,0.222-0.008,0.267c0,0.102,0.002,0.198,0.008,0.286
				c0.005,0.089,0.011,0.187,0.017,0.293c0.006,0.108,0.011,0.237,0.018,0.388c0.005,0.151,0.008,0.334,0.008,0.549
				c0,0.25,0.017,0.483,0.05,0.702s0.107,0.41,0.222,0.572c0.113,0.163,0.274,0.292,0.481,0.391c0.206,0.098,0.48,0.147,0.82,0.147
				c0.412,0,0.739-0.032,0.979-0.094c0.24-0.062,0.426-0.147,0.557-0.254c0.131-0.108,0.22-0.232,0.267-0.371
				c0.048-0.14,0.077-0.291,0.088-0.453c0-0.162-0.049-0.275-0.146-0.337c-0.098-0.062-0.211-0.094-0.339-0.094
				c-0.263,0-0.443,0.051-0.54,0.154c-0.097,0.102-0.146,0.264-0.146,0.486c0,0.069-0.025,0.125-0.076,0.167
				c-0.05,0.044-0.113,0.073-0.188,0.088c-0.075,0.015-0.153,0.024-0.234,0.028c-0.081,0.004-0.144,0.006-0.188,0.006
				c-0.123,0-0.222-0.041-0.297-0.122c-0.076-0.081-0.133-0.182-0.172-0.303c-0.038-0.12-0.064-0.25-0.075-0.388
				c-0.011-0.137-0.017-0.265-0.017-0.382v-0.232C179.97,50.892,179.976,50.799,179.987,50.698z
			M180.15,47.822
				c0.086-0.039,0.163-0.057,0.23-0.057c0.117,0,0.226,0.02,0.326,0.062c0.101,0.042,0.191,0.113,0.272,0.213
				c0.081,0.099,0.144,0.236,0.188,0.41c0.044,0.173,0.067,0.396,0.067,0.667c0,0.186-0.022,0.338-0.067,0.459
				c-0.044,0.12-0.098,0.215-0.159,0.285c-0.062,0.07-0.127,0.12-0.196,0.15c-0.071,0.03-0.127,0.045-0.173,0.045
				c-0.044,0-0.13-0.003-0.259-0.011c-0.129-0.007-0.238-0.019-0.326-0.034v-0.045c0.011-0.154,0.019-0.326,0.024-0.512
				c0.006-0.187,0.008-0.396,0.008-0.626c0-0.177-0.011-0.334-0.032-0.469c-0.023-0.137-0.033-0.242-0.033-0.318
				C180.021,47.933,180.064,47.859,180.15,47.822z
			M171.506,39.964c2.12-0.036,5.141,0.035,5.141-2.749c0-0.856-0.666-1.672-2.444-1.534c-3.739,0.642-3.471-1.018-3.542-1.767
				c-0.431-4.64-0.233-14.278-0.126-16.918c0.108-2.64-0.521-3.461-2.246-3.248c-1.942,0.32-2.104,2.999-2.14,4.568
				c-0.036,1.57-0.162,10.995-0.054,16.882C166.203,41.086,169.385,39.999,171.506,39.964z
			M167.555,48.461c-0.005,0.325-0.014,0.679-0.026,1.062
				c-0.011,0.382-0.016,0.763-0.016,1.141c0,0.509,0.016,0.915,0.05,1.217c0.033,0.302,0.11,0.53,0.23,0.685s0.294,0.252,0.523,0.295
				c0.229,0.041,0.543,0.062,0.946,0.062c0.155,0,0.306-0.023,0.451-0.068c0.146-0.045,0.229-0.138,0.252-0.278
				c-0.023-0.131-0.075-0.231-0.156-0.297c-0.081-0.067-0.235-0.107-0.464-0.122c-0.111-0.007-0.221-0.016-0.33-0.028
				s-0.174-0.024-0.197-0.039c-0.039-0.027-0.076-0.081-0.108-0.162c-0.034-0.081-0.059-0.178-0.076-0.288
				c-0.017-0.112-0.03-0.227-0.042-0.346c-0.01-0.118-0.016-0.229-0.016-0.331c0-0.163,0.02-0.404,0.059-0.725
				c0.04-0.322,0.059-0.663,0.059-1.025v-0.561c0-0.12-0.006-0.245-0.017-0.373c-0.012-0.128-0.023-0.247-0.033-0.356l-0.018-0.323
				c-0.011-0.109,0.002-0.216,0.042-0.32c0.039-0.104,0.058-0.222,0.058-0.354c0-0.34-0.008-0.595-0.025-0.765
				c-0.016-0.17-0.033-0.3-0.05-0.394c-0.017-0.092-0.031-0.172-0.042-0.237c-0.011-0.067-0.017-0.166-0.017-0.298
				c0-0.147,0.006-0.259,0.017-0.336c0.011-0.078,0.017-0.136,0.017-0.173c0-0.132-0.035-0.218-0.105-0.255
				c-0.069-0.038-0.219-0.072-0.447-0.102c-0.273,0-0.442,0.033-0.503,0.102c-0.061,0.068-0.092,0.153-0.092,0.255
				c0,0.117,0.015,0.235,0.042,0.354c0.028,0.118,0.042,0.244,0.042,0.376c0,0.147,0.003,0.303,0.008,0.465
				c0.006,0.162,0.009,0.319,0.009,0.469c0,0.15,0.003,0.29,0.008,0.417c0.006,0.125,0.008,0.232,0.008,0.319
				c0,0.087-0.005,0.25-0.016,0.49C167.569,47.855,167.56,48.137,167.555,48.461z"/>
		</g>
		<g id="opciones">
			<path fill-rule="evenodd" clip-rule="evenodd" d="M122.938,26.844
				c1.615,0,2.924-1.282,2.924-2.864c0-1.583-1.309-2.866-2.924-2.866c-1.614,0-2.923,1.283-2.923,2.866
				C120.016,25.562,121.324,26.844,122.938,26.844z M122.938,17.103c1.615,0,2.924-1.282,2.924-2.865s-1.309-2.865-2.924-2.865
				c-1.614,0-2.923,1.282-2.923,2.865S121.324,17.103,122.938,17.103z M122.938,36.586c1.615,0,2.924-1.283,2.924-2.865
				c0-1.582-1.309-2.866-2.924-2.866c-1.614,0-2.923,1.284-2.923,2.866C120.016,35.303,121.324,36.586,122.938,36.586z"/>
		</g>
		<g id="mas">
			<path fill-rule="evenodd" clip-rule="evenodd" d="M118.736,285.06c8.374,0,15.163-6.788,15.163-15.161c0-8.376-6.789-15.166-15.163-15.166
				c-8.375,0-15.164,6.79-15.164,15.166C103.572,278.271,110.361,285.06,118.736,285.06z M112.422,269.556
				c0-0.363,0.294-0.662,0.658-0.662h4.601v-4.647c0-0.366,0.295-0.663,0.658-0.663h1.315c0.363,0,0.657,0.297,0.657,0.663v4.647
				h4.603c0.362,0,0.657,0.299,0.657,0.662v1.328c0,0.366-0.295,0.666-0.657,0.666h-4.603v4.646c0,0.365-0.294,0.664-0.657,0.664
				h-1.315c-0.363,0-0.658-0.299-0.658-0.664v-4.646h-4.601c-0.363,0-0.658-0.3-0.658-0.666V269.556z"/>
		</g>
		<g id="camara">
			<path fill-rule="evenodd" clip-rule="evenodd" d="M220.606,168.48h-1.25
				c-0.743,0-1.455,0.3-1.983,0.833l-8.346,4.997v-2.939c0-2.395-1.896-4.335-4.236-4.335h-26.831c-2.336,0-4.236,1.945-4.236,4.335
				v23.125c0,2.396,1.896,4.335,4.236,4.335h26.831c2.339,0,4.236-1.94,4.236-4.335v-2.898l8.346,4.998
				c0.529,0.534,1.241,0.833,1.983,0.833h1.25c1.561,0,2.825-1.294,2.825-2.891v-23.166
				C223.431,169.775,222.167,168.48,220.606,168.48z
			M205.462,193.917c0,0.758-0.602,1.373-1.341,1.373h-25.489
				c-0.74,0-1.342-0.615-1.342-1.373v-21.968c0-0.759,0.601-1.374,1.342-1.374h25.489c0.739,0,1.341,0.616,1.341,1.374V193.917z
			M220.606,194.537h-1.25h-0.162l-10.638-7.268v-8.672l10.638-7.227h0.162h1.25V194.537z"/>
		</g>
		<g id="montana">
			<path fill-rule="evenodd" clip-rule="evenodd" d="M131.218,203.948
				c2.483,0,4.496-2.011,4.496-4.494v-20.974c0-2.482-2.013-4.495-4.496-4.495h-20.974c-2.482,0-4.494,2.012-4.494,4.495v20.974
				c0,2.483,2.012,4.494,4.494,4.494H131.218z
			M108.747,179.978c0-1.655,1.341-2.997,2.997-2.997h17.978
				c1.654,0,2.996,1.342,2.996,2.997v2.284l-8.24,8.24l-5.724-5.724c-0.61-0.75-1.754-0.516-2.036,0l-7.971,7.972V179.978z
			M108.747,197.956v-0.786l8.989-8.989l9.469,9.468c0.305,0.307,0.8,0.307,1.106,0l1.104-1.105c0.306-0.304,0.306-0.799,0-1.104
				l-2.728-2.728l6.029-6.029v11.273c0,1.654-1.342,2.996-2.996,2.996h-17.978C110.088,200.952,108.747,199.61,108.747,197.956z
			M124.478,184.472c1.242,0,2.248-1.007,2.248-2.248s-1.005-2.247-2.248-2.247c-1.241,0-2.248,1.006-2.248,2.247
				S123.237,184.472,124.478,184.472z"/>
		</g>
		<g id="infinito">
			<path fill-rule="evenodd" clip-rule="evenodd" d="M202.689,267.519c-4.899,0-8.94,2.826-11.054,6.857c-2.119-4.031-6.171-6.857-11.104-6.857c-7.259,0-12.652,6.192-12.652,13.341
				c0,7.147,5.394,13.338,12.652,13.338c4.933,0,8.985-2.825,11.104-6.855c2.114,4.03,6.155,6.855,11.054,6.855
				c7.31,0,12.702-6.19,12.702-13.338C215.391,273.711,209.999,267.519,202.689,267.519z
			M180.531,291.932
				c-4.94,0-10.03-4.076-10.03-11.072c0-6.997,5.09-10.926,10.03-10.926c4.289,0,8.643,2.91,9.784,8.169
				c-0.179,0.896-0.277,1.816-0.277,2.757c0,0.941,0.099,1.864,0.278,2.761C189.177,288.912,184.821,291.932,180.531,291.932z
			M202.689,291.932c-4.247,0-8.595-3.02-9.735-8.31c0.18-0.897,0.279-1.82,0.279-2.763c0-0.94-0.099-1.863-0.278-2.759
				c1.141-5.258,5.489-8.167,9.734-8.167c4.99,0,10.082,3.929,10.082,10.926C212.771,287.855,207.679,291.932,202.689,291.932z"/>
		</g>
		<g id="persona_con_camara">
			<path fill-rule="evenodd" clip-rule="evenodd" d="M108.978,241.113h13.866v-1.86l-13.109,0.001c-1.843,0-3.563-2.016-3.563-2.921c0,0,0-1.169,0-2.804
				c0-1.635,4.438-4.138,10.205-4.777c-2.159-2.38-3.994-4.276-3.994-7.838c0-3.563,1.966-7.594,5.938-7.594
				c3.973,0,5.938,4.03,5.938,7.594c0,3.562-1.63,5.167-3.994,7.838c3.647,0.55,6.09,1.455,7.674,2.316h3.089
				c-1.164-1.228-3.332-2.66-7.348-3.473c1.495-1.706,2.438-4.104,2.438-6.78c0-5.174-3.488-9.368-7.791-9.368
				c-4.302,0-7.791,4.194-7.791,9.368c0,2.675,0.943,5.074,2.437,6.78c-8.014,1.624-8.67,5.713-8.67,5.713v3.123
				C104.303,238.155,107.256,241.113,108.978,241.113z
			M135.706,234.872
				h-0.654l-0.832-0.605c-0.278-0.592-1.126-1.208-1.782-1.208h-2.97c-0.656,0-1.429,0.465-1.782,1.208l-0.832,0.605H126.2
				c-0.821,0-1.485,0.677-1.485,1.512v6.046c0,0.835,0.665,1.511,1.485,1.511h9.506c0.82,0,1.484-0.676,1.484-1.511v-6.046
				C137.189,235.548,136.525,234.872,135.706,234.872z
			M136.002,241.824c0,0.501-0.4,0.908-0.891,0.908h-8.318
				c-0.492,0-0.891-0.406-0.891-0.908v-4.835c0-0.395,0.25-0.783,0.594-0.908h1.188l1.188-1.209c0.242-0.448,0.86-0.605,1.188-0.605
				h1.782c0.328,0,0.965,0.177,1.188,0.605l1.188,1.209h1.188c0.345,0.125,0.595,0.513,0.595,0.908V241.824z
			M130.952,236.081c-1.477,0-2.673,1.218-2.673,2.721s1.196,2.721,2.673,2.721
				s2.674-1.218,2.674-2.721S132.429,236.081,130.952,236.081z
			M130.952,240.313c-0.821,0-1.485-0.676-1.485-1.511
				c0-0.834,0.665-1.512,1.485-1.512c0.82,0,1.485,0.678,1.485,1.512C132.437,239.637,131.772,240.313,130.952,240.313z"/>
		</g>
		<g id="reloj">
			<path fill-rule="evenodd" clip-rule="evenodd" d="M122.391,123.188c8.98,0,16.261-7.281,16.261-16.261s-7.281-16.261-16.261-16.261
				c-8.981,0-16.26,7.28-16.26,16.261S113.41,123.188,122.391,123.188z
			M122.391,93.919c7.185,0,13.008,5.824,13.008,13.008
				c0,7.185-5.824,13.009-13.008,13.009c-7.185,0-13.009-5.824-13.009-13.009C109.382,99.743,115.206,93.919,122.391,93.919z
			M122.391,110.179l5.255,3.034c0.39,0.225,1.997-0.206,2.222-0.594c0.225-0.389-0.207-1.997-0.596-2.222l-5.255-3.034v-8.567
				c0-0.449-1.178-1.626-1.626-1.626s-1.626,1.177-1.626,1.626v9.756C120.764,109.001,121.942,110.179,122.391,110.179z"/>
		</g>
		<g id="facebook">
			<path fill-rule="evenodd" clip-rule="evenodd" d="M182.162,117.341c-2.437,0-4.412,1.953-4.412,4.361v25.625
				c0,2.409,1.975,4.361,4.412,4.361h26.619c2.437,0,4.413-1.952,4.413-4.361v-25.625c0-2.409-1.976-4.361-4.413-4.361H182.162z
			M206.443,133.132l-0.413,4.77h-4.333v13.779h-5.944v-13.779H192.7v-4.77h3.054v-2.95c0-4.042,1.94-6.305,6.81-6.305
				c1.693,0,2.932,0.243,4.54,0.566l-0.742,4.567c-0.826-0.161-1.939-0.283-2.643-0.283c-1.898,0-2.021,0.809-2.021,2.102v2.304
				H206.443z"/>
		</g>
		<g id="link">
			<path fill-rule="evenodd" clip-rule="evenodd" d="M198.047,235.062c-1.079,1.078-2.829,1.078-3.907,0l-2.246-2.245c-1.602-1.6-4.283,0.795-2.588,2.489
				c0.934,0.933,2.686,2.686,2.686,2.686c2.157,2.155,5.655,2.155,7.813,0l12.5-12.497c2.158-2.156,2.158-5.652,0-7.81l-3.37-3.368
				c-2.156-2.156-5.655-2.156-7.812,0c0,0-2.898,2.896-4.493,4.491c-1.347,1.347,1.084,3.896,2.54,2.44
				c1.412-1.412,3.662-3.661,3.662-3.661c1.079-1.078,2.828-1.078,3.907,0l2.441,2.441c1.08,1.078,1.08,2.826,0,3.905
				L198.047,235.062z
			M186.376,225.056l-12.501,12.496c-2.158,2.155-2.158,5.652,0,7.809l3.37,3.369c2.158,2.156,5.655,2.156,7.812,0
				c0,0,2.898-2.898,4.493-4.492c1.348-1.346-1.083-3.895-2.539-2.439c-1.413,1.412-3.662,3.659-3.662,3.659
				c-1.079,1.078-2.828,1.078-3.907,0l-2.441-2.439c-1.079-1.078-1.079-2.827,0-3.905l11.133-11.129c1.079-1.077,2.827-1.077,3.907,0
				l2.246,2.246c1.602,1.601,4.283-0.796,2.588-2.489c-0.935-0.935-2.686-2.685-2.686-2.685
				C192.032,222.898,188.535,222.898,186.376,225.056z"/>
		</g>
		<g id="twitter">
			<path fill-rule="evenodd" clip-rule="evenodd" d="M205.574,70.2c-4.552,0-8.246,3.429-8.246,7.657
				c0,0.601,0.074,1.184,0.214,1.745c-6.854-0.319-12.93-3.367-16.997-8c-0.71,1.131-1.117,2.446-1.117,3.85
				c0,2.656,1.456,5,3.668,6.373c-1.352-0.04-2.624-0.383-3.735-0.958c-0.001,0.032-0.001,0.064-0.001,0.097
				c0,3.709,2.843,6.804,6.616,7.508c-0.693,0.174-1.421,0.268-2.173,0.268c-0.53,0-1.048-0.048-1.551-0.137
				c1.05,3.042,4.095,5.256,7.703,5.317c-2.821,2.054-6.378,3.278-10.241,3.278c-0.666,0-1.321-0.037-1.967-0.108
				c3.649,2.172,7.984,3.441,12.64,3.441c15.168,0,23.463-11.667,23.463-21.786c0-0.332-0.008-0.662-0.025-0.991
				c1.612-1.079,3.01-2.429,4.116-3.963c-1.479,0.608-3.068,1.02-4.736,1.205c1.702-0.947,3.01-2.448,3.625-4.236
				c-1.593,0.878-3.358,1.515-5.237,1.858C210.09,71.13,207.947,70.2,205.574,70.2z"/>
		</g>
		<g id="ok">
			<path fill-rule="evenodd" clip-rule="evenodd" d="M118.006,327.083c8.577,0,15.53-6.95,15.53-15.53
				c0-8.575-6.954-15.528-15.53-15.528c-8.577,0-15.529,6.953-15.529,15.528C102.477,320.133,109.429,327.083,118.006,327.083z
			M109.005,309.897c0.441-0.461,1.157-0.461,1.598,0l5.067,5.289l9.154-9.77c0.437-0.465,1.153-0.475,1.599-0.017
				c0.446,0.454,0.453,1.203,0.018,1.668l-9.954,10.62c-0.211,0.226-0.5,0.354-0.802,0.355c-0.002,0-0.004,0-0.006,0
				c-0.299,0-0.587-0.125-0.799-0.346l-5.875-6.132C108.563,311.106,108.563,310.359,109.005,309.897z"/>
		</g>
		<g id="info">
			<path fill-rule="evenodd" clip-rule="evenodd" d="M206.617,326.537c0-9.586-7.771-17.359-17.356-17.359
				c-9.586,0-17.357,7.773-17.357,17.359c0,9.585,7.771,17.354,17.357,17.354C198.846,343.891,206.617,336.122,206.617,326.537z
			M189.26,342.156c-8.628,0-15.621-6.993-15.621-15.619c0-8.629,6.993-15.622,15.621-15.622c8.627,0,15.621,6.993,15.621,15.622
				C204.881,335.163,197.888,342.156,189.26,342.156z
			M190.838,323.382v-0.791h-3.156h-1.578v0.791h1.578v11.833h-1.578v0.788h1.578
				h3.156h1.578v-0.788h-1.578V323.382z
			M189.26,320.371
				c1.199,0,2.169-0.971,2.169-2.168s-0.971-2.17-2.169-2.17c-1.198,0-2.17,0.973-2.17,2.17S188.062,320.371,189.26,320.371z"/>
		</g>
		<g id="like">
			<path fill-rule="evenodd" clip-rule="evenodd" d="M65.678,363.567l-8.842-1.3l-3.844-7.882c-0.404-0.83-1.271-1.357-2.222-1.357
				c-0.951,0-1.817,0.527-2.222,1.357l-3.843,7.882l-8.843,1.3c-0.909,0.132-1.664,0.745-1.956,1.585
				c-0.293,0.84-0.072,1.765,0.57,2.396l6.479,6.391l-1.502,8.867c-0.152,0.893,0.24,1.789,1.008,2.312
				c0.421,0.287,0.918,0.431,1.413,0.431c0.408,0,0.817-0.098,1.188-0.293l7.709-4.101l7.709,4.101
				c0.372,0.195,0.78,0.293,1.186,0.293c0.497,0,0.992-0.144,1.415-0.431c0.768-0.522,1.159-1.419,1.006-2.312l-1.503-8.867
				l6.481-6.391c0.642-0.632,0.861-1.557,0.57-2.396C67.341,364.312,66.587,363.699,65.678,363.567z
			M65.956,366.917l-6.628,6.546
				l1.469,8.852c0,0,0.349,1.308-0.355,1.833c-0.703,0.525-2.22-0.311-2.22-0.311l-7.451-4.111l-8.146,4.305
				c0,0-0.938,0.438-1.524-0.057c-0.585-0.498-0.351-1.752-0.351-1.752l1.348-8.933l-6.51-6.431c0,0-0.797-0.636-0.582-1.393
				c0.215-0.76,1.363-0.806,1.363-0.806l9.07-1.294l4.068-8.062c0,0,0.405-1.108,1.265-1.108s1.266,1.108,1.266,1.108l3.951,8.121
				l9.361,1.235c0,0,1.042,0.133,1.188,0.921C66.684,366.37,65.956,366.917,65.956,366.917z"/>
		</g>
		<g id="dont-commented">
			<path fill-rule="evenodd" clip-rule="evenodd" d="M134.382,136.343h-24.715
				c-2.559,0-4.633,1.977-4.633,4.416v13.769c0,2.439,2.074,4.417,4.633,4.417h1.545v7.36l9.783-7.36h13.387
				c2.56,0,4.634-1.978,4.634-4.417v-13.769C139.016,138.319,136.942,136.343,134.382,136.343z"/>
		</g>
		<g id="dont-like">
			<path fill-rule="evenodd" clip-rule="evenodd" d="M65.678,320.083l-8.842-1.299
				l-3.844-7.882c-0.404-0.828-1.271-1.36-2.222-1.36c-0.951,0-1.817,0.532-2.222,1.36l-3.843,7.882l-8.843,1.299
				c-0.909,0.135-1.664,0.747-1.956,1.585c-0.293,0.84-0.072,1.765,0.57,2.396l6.479,6.394l-1.502,8.864
				c-0.152,0.896,0.24,1.788,1.008,2.312c0.421,0.288,0.918,0.432,1.413,0.432c0.408,0,0.817-0.099,1.188-0.293l7.709-4.101
				l7.709,4.101c0.372,0.194,0.78,0.293,1.186,0.293c0.497,0,0.992-0.144,1.415-0.432c0.768-0.523,1.159-1.416,1.006-2.312
				l-1.503-8.864l6.481-6.394c0.642-0.632,0.861-1.557,0.57-2.396C67.341,320.83,66.587,320.218,65.678,320.083z"/>
		</g>
		<g id="white-eye">
			<path fill-rule="evenodd" clip-rule="evenodd" d="M50.771,280.312
				c-9.182,0-16.627,8.688-16.627,10.777c0,2.183,7.445,10.781,16.627,10.781c9.183,0,16.626-8.599,16.626-10.781
				C67.397,288.911,59.954,280.312,50.771,280.312z
			M50.771,300.779c-8.542,0-15.466-7.751-15.466-9.718
				c0-1.884,6.924-9.717,15.466-9.717c8.542,0,15.466,7.753,15.466,9.717C66.237,293.028,59.313,300.779,50.771,300.779z
			M50.771,284.979c-3.464,0-6.273,2.71-6.273,6.055
				c0,3.346,2.809,6.058,6.273,6.058c3.464,0,6.272-2.712,6.272-6.058C57.043,287.688,54.235,284.979,50.771,284.979z
			M50.771,295.879c-2.772,0-5.019-2.17-5.019-4.846c0-2.675,2.247-4.845,5.019-4.845c2.771,0,5.019,2.17,5.019,4.845
				C55.79,293.709,53.542,295.879,50.771,295.879z"/>
		</g>
		<g id="black-eye">
			<path fill-rule="evenodd" clip-rule="evenodd" d="M50.771,251.08
				c-9.182,0-16.627,8.689-16.627,10.779c0,2.179,7.445,10.777,16.627,10.777c9.183,0,16.626-8.599,16.626-10.777
				C67.397,259.679,59.954,251.08,50.771,251.08z
			M50.771,266.645c-2.772,0-5.019-2.167-5.019-4.844c0-2.674,2.247-4.844,5.019-4.844
				c2.771,0,5.019,2.17,5.019,4.844C55.79,264.478,53.542,266.645,50.771,266.645z"/>
		</g>
		<g id="white-friend">
			<path fill-rule="evenodd" clip-rule="evenodd" d="M54.656,457.737
				c1.536-1.839,2.491-4.409,2.491-7.254c0-5.591-3.685-10.123-8.231-10.123c-4.546,0-8.23,4.532-8.23,10.123
				c0,2.854,0.962,5.435,2.509,7.274c-4.974,1.101-8.57,3.578-9.049,6.523v2.688c0.336,2.059,2.195,3.889,4.984,5.181h4.05h11.584
				h4.05c2.664-1.233,4.478-2.958,4.93-4.904v-3.355C63.082,461.049,59.518,458.792,54.656,457.737z
			M62.413,467.2
				c-0.693,1.397-2.161,2.738-4.138,3.667h-18.66c-1.926-0.902-3.424-2.483-4.139-3.836v-3.015c1.253-2.292,4.633-4.358,8.935-5.134
				c0.07-0.011,0.141-0.024,0.211-0.035c0.04-0.006,0.08-0.014,0.118-0.021c0.075-0.011,0.149-0.022,0.223-0.035
				c0.048-0.006,0.096-0.016,0.144-0.021c0.073-0.011,0.146-0.022,0.219-0.032c0.048-0.007,0.094-0.013,0.142-0.019
				c0.056-0.008,0.112-0.018,0.168-0.022c0.049-0.008,0.097-0.014,0.146-0.02c0.086-0.011,0.175-0.021,0.263-0.032
				c0.056-0.004,0.113-0.011,0.168-0.017c0.045-0.006,0.09-0.012,0.136-0.014c0.059-0.007,0.119-0.013,0.177-0.017
				c0.041-0.004,0.082-0.01,0.122-0.014c0.107-0.009,0.214-0.017,0.321-0.024c0.074-0.004,0.146-0.011,0.219-0.017
				c-2.975-0.953-5.171-4.276-5.171-8.228c0-4.696,3.103-8.506,6.929-8.506s6.927,3.81,6.927,8.506c0,3.955-2.2,7.279-5.18,8.231
				c0.075,0.005,0.149,0.011,0.224,0.017c0.105,0.008,0.21,0.018,0.313,0.026c0.04,0.004,0.081,0.008,0.121,0.01
				c0.061,0.008,0.121,0.013,0.181,0.017c0.041,0.006,0.082,0.012,0.124,0.016c0.061,0.006,0.12,0.013,0.18,0.021
				c0.04,0.002,0.077,0.008,0.116,0.012c0.106,0.013,0.214,0.026,0.32,0.041c0.038,0.006,0.076,0.01,0.113,0.016
				c0.06,0.008,0.121,0.017,0.181,0.024c0.038,0.006,0.077,0.012,0.115,0.017c0.202,0.03,0.403,0.062,0.602,0.097
				c0.038,0.006,0.076,0.016,0.113,0.021c4.38,0.784,7.813,2.67,9.018,5.02V467.2z"/>
		</g>
		<g id="black-friend">
			<path fill-rule="evenodd" clip-rule="evenodd" d="M54.656,413.158
				c1.536-1.839,2.491-4.411,2.491-7.256c0-5.591-3.685-10.123-8.231-10.123c-4.546,0-8.23,4.532-8.23,10.123
				c0,2.856,0.962,5.438,2.509,7.276c-4.974,1.101-8.57,3.579-9.049,6.523v2.688c0.336,2.06,2.195,3.889,4.984,5.18h4.05h11.584h4.05
				c2.664-1.232,4.478-2.958,4.93-4.904v-3.357C63.082,416.472,59.518,414.214,54.656,413.158z"/>
		</g>
		<g id="commented">
			<path fill-rule="evenodd" clip-rule="evenodd" d="M42.109,148.957h18.786
				c0.398,0,0.723-0.332,0.723-0.74v-1.479c0-0.408-0.324-0.739-0.723-0.739H42.109c-0.398,0-0.722,0.332-0.722,0.739v1.479
				C41.387,148.625,41.71,148.957,42.109,148.957z
			M42.109,143.041h18.786
				c0.398,0,0.723-0.332,0.723-0.74v-1.479c0-0.409-0.324-0.74-0.723-0.74H42.109c-0.398,0-0.722,0.331-0.722,0.74v1.479
				C41.387,142.709,41.71,143.041,42.109,143.041z
			M50.538,156.352h12.524c2.394,0,4.335-1.987,4.335-4.438v-14.79c0-2.451-1.941-4.438-4.335-4.438H39.941
				c-2.395,0-4.335,1.987-4.335,4.438v14.79c0,2.451,1.941,4.438,4.335,4.438h1.445v7.395L50.538,156.352z
			M38.497,150.436v-11.832
				c0-1.634,1.293-2.958,2.89-2.958h20.23c1.596,0,2.89,1.324,2.89,2.958v11.832c0,1.634-1.293,2.958-2.89,2.958H49.575l-5.299,4.636
				v-4.636h-2.89C39.791,153.394,38.497,152.07,38.497,150.436z"/>
		</g>
		<g id="lufke">
			<path fill-rule="evenodd" clip-rule="evenodd" d="M65.755,26.479c-0.731-0.829-1.584-1.702-1.767-1.876
				c-0.581-0.555-0.169-0.974-0.169-0.974s4.052-5.47,4.844-6.244s0.79-1.255,0.358-1.753c-0.432-0.5-1.48-0.218-2.2,0.36
				c-1.285,1.032-3.212,4.456-4.059,5.338c-0.845,0.883-0.798,0.026-0.79-0.485c0.008-0.511-0.041-1.122,0.044-2.674
				c0.085-1.552-0.016-3.082-1.395-3.104c-2.282-0.036-1.552,3.23-1.649,6.728c-0.097,3.497-0.137,8.418-0.089,9.828
				c0.062,1.826-0.047,2.483,1.303,2.976c0.764,0.281,1.362-0.175,1.508-0.288c0.562-0.434,0.643-1.062,0.432-1.818
				c-0.094-0.341-0.134-1.203-0.175-2.324c-0.042-1.123-0.108-0.756-0.041-2.387c0.05-1.22,0.795-0.931,0.968-0.535
				c0.173,0.396,2.973,4.684,3.951,5.938c0.979,1.255,1.385,1.261,2.495,0.551c1.111-0.71,1.05-1.013,0.447-2.065
				C69.17,30.618,67.345,28.28,65.755,26.479z
			M49.963,30.009c0.041,2.163-0.279,4.338,1.319,4.338c0.8,0,1.44-0.301,1.4-1.638
				c-0.04-1.336-0.046-1.77-0.046-3.5c0-1.729,1.192-1.677,1.992-1.677s1.666-0.466,1.666-1.351c0-0.884-1.071-1.182-1.653-1.245
				c-1.163-0.124-2.058,0.504-2.058-1.717c-0.001-2.221-0.007-2.845-0.02-3.879c-0.013-1.036,0.439-1.528,1.959-1.389
				c1.784,0.171,2.211-0.715,2.211-1.561c0-0.846-0.838-1.363-2.998-1.363c-3.978,0-4.17,0.152-4.051,3.552
				C49.804,21.979,49.923,27.846,49.963,30.009z
			M35.422,32.662c0-0.628-0.493-1.228-1.81-1.127c-2.77,0.472-2.57-0.748-2.624-1.297c-0.319-3.407-0.172-10.483-0.093-12.422
				c0.08-1.939-0.386-2.542-1.664-2.385c-1.438,0.235-1.557,2.202-1.583,3.354c-0.026,1.153-0.12,8.074-0.04,12.397
				c0.08,4.322,2.437,3.525,4.006,3.498C33.185,34.654,35.422,34.705,35.422,32.662z
			M42.549,34.395c3.517-0.55,4.316-5.325,4.662-7.526c0.347-2.202,0.213-7.711,0.267-8.707s-0.08-2.097-0.772-2.386
				c-0.692-0.288-1.532,0.145-1.732,2.19c-0.199,2.043-0.559,7.055-0.799,9.808c-0.24,2.752-1.401,3.771-2.604,3.743
				c-1.262-0.03-2.739-1.449-2.871-4.254c-0.133-2.805-0.534-10.058-0.586-10.635c-0.054-0.577,0.013-1.324-0.707-1.494
				c-1.957-0.465-1.818,3.017-1.559,10.884C36.108,33.881,40.231,34.67,42.549,34.395z
			M75.041,17.672
				c0.692-0.052,0.57-0.063,1.94,0.002c1.371,0.066,1.743-0.439,1.743-1.285c0-0.846-0.652-1.35-2.794-1.284
				c-0.732,0.013-1.238-0.08-2.037-0.08c-1.863,0-1.89,0.586-1.89,1.337c0,0.93-0.252,10.709-0.252,12.99
				c0,2.281-0.599,4.706,2.516,4.706c3.114,0,0.705,0.013,2.129,0.013c1.423,0,2.302-0.577,2.275-1.442
				c0-1.009-1.21-1.101-3.074-1.101c-0.825,0-1.277-0.026-1.277-1.074c0-2.019-0.04-1.607-0.04-2.413c0-0.917-0.08-1.336,0.532-1.428
				c0.613-0.092,1.3-0.141,1.743-0.184c0.945-0.092,1.332-0.446,1.332-1.52c0-1.076-1.305-0.932-1.97-0.905
				c-0.665,0.025-1.65,0.039-1.65-1.179c0-0.355,0.013-2.766,0.013-4.13C74.279,17.943,74.348,17.725,75.041,17.672z"/>
		</g>
		<g id="add-friend">
			<path fill-rule="evenodd" clip-rule="evenodd" d="M113.574,443.606c0.755,0,2.734-0.619,2.734-1.383v-1.383v-1.383
				c-3.965-3.688-15.171-3.688-19.134,0v1.383v1.383c0,0.764,1.978,1.383,2.733,1.383H113.574z
			M102.64,428.396c0,3.055,1.836,5.53,4.101,5.53s4.1-2.476,4.1-5.53
				c0-3.057-1.836-5.53-4.1-5.53S102.64,425.339,102.64,428.396z
			M134.075,431.113h-5.163v-5.16c0-0.408-0.33-0.735-0.738-0.735H126.7
				c-0.407,0-0.737,0.327-0.737,0.735v5.16H120.8c-0.407,0-0.737,0.331-0.737,0.739v1.474c0,0.407,0.33,0.736,0.737,0.736h5.163
				v5.161c0,0.407,0.33,0.738,0.737,0.738h1.475c0.408,0,0.738-0.331,0.738-0.738v-5.161h5.163c0.407,0,0.738-0.329,0.738-0.736
				v-1.474C134.813,431.444,134.482,431.113,134.075,431.113z"/>
		</g>
		<g id="search">
			<path fill-rule="evenodd" clip-rule="evenodd" d="M57.764,108.669c1.64-2.195,2.652-4.905,2.652-7.878c0-7.207-5.718-13.049-12.77-13.049
				c-7.054,0-12.771,5.842-12.771,13.049c0,7.206,5.717,13.048,12.771,13.048c2.911,0,5.562-1.034,7.71-2.709l10.477,10.706
				c0.333,0.34,0.872,0.34,1.205,0l1.204-1.231c0.333-0.339,0.333-0.89,0-1.229L57.764,108.669z
			M47.593,111.411
				c-5.89,0-10.665-4.781-10.665-10.679c0-5.898,4.775-10.68,10.665-10.68c5.89,0,10.666,4.782,10.666,10.68
				C58.258,106.63,53.483,111.411,47.593,111.411z"/>
		</g>
		<g id="home-deselected">
			<path fill-rule="evenodd" clip-rule="evenodd" d="M67.208,218.146l-15.881-8.357
				l-15.881,8.357c-0.413,0.133-0.644,0.533-0.546,0.921c0.269,0.666,0.575,1.575,0.575,1.575c0.152,0.41,0.632,0.626,1.072,0.486
				l3.191-1.677v16.638c0,1.822,1.482,3.298,3.311,3.298h0.002h5.645v-10.498c0-1.45,1.179-2.624,2.632-2.624
				c1.406,0,2.555,1.101,2.628,2.484c0.001,0.043,0.003,0.087,0.003,0.131v10.506h0.001h5.645h0c1.829,0,3.312-1.476,3.312-3.298
				V219.45l3.193,1.678c0.439,0.14,0.919-0.077,1.071-0.486l0.549-1.483C67.514,219.739,68.224,218.471,67.208,218.146z
			M66.484,219.564c-0.134,0.243-0.646,0.162-0.646,0.162l-3.975-2.046v17.408c0,1.649-0.776,2.987-2.386,3.009h-4.286v-9.644
				c0-1.324-1.315-3.472-3.702-3.472c-0.011,0-0.02,0-0.03,0c-0.097-0.006-0.195-0.011-0.294-0.011c-2.387,0-3.703,2.149-3.703,3.475
				v9.652h-4.247c-1.637,0-2.426-1.349-2.426-3.012v-17.422l-3.976,2.048c0,0-0.512,0.081-0.646-0.162
				c-0.134-0.242,0.162-0.591,0.162-0.591l14.978-7.917l15.018,7.933C66.323,218.974,66.619,219.323,66.484,219.564z" style="fill:red"/>
		</g>
		<g id="home-selected">
			<path fill-rule="evenodd" clip-rule="evenodd" d="M34.899,182.526c0.269,0.666,0.575,1.575,0.575,1.575
				c0.152,0.409,0.632,0.627,1.072,0.486l3.189-1.677v16.64c0,1.82,1.482,3.297,3.31,3.297h0.002h5.643v-10.497
				c0-1.45,1.179-2.625,2.631-2.625c1.406,0,2.555,1.1,2.627,2.484c0.003,0.043,0.003,0.088,0.003,0.132v10.506h0h5.642h0.001
				c1.828,0,3.31-1.477,3.31-3.297v-16.64l3.191,1.678c0.44,0.141,0.921-0.077,1.072-0.486l0.549-1.482
				c-0.216,0.581,0.495-0.688-0.521-1.014l-15.876-8.357l-15.876,8.357C35.032,181.737,34.801,182.138,34.899,182.526z" style="fill:red"/>
		</g>
		<g id="add-_v3">
			<path fill-rule="evenodd" clip-rule="evenodd" d="M117.641,368.008c8.577,0,15.529-6.951,15.529-15.528c0-8.576-6.953-15.53-15.529-15.53s-15.53,6.954-15.53,15.53
				C102.11,361.057,109.064,368.008,117.641,368.008z
			M107.363,351.446c0-0.567,0.46-1.026,1.027-1.026h7.188v-7.186
				c0-0.567,0.461-1.025,1.028-1.025h2.054c0.567,0,1.026,0.458,1.026,1.025v7.186h7.189c0.567,0,1.027,0.459,1.027,1.026v2.055
				c0,0.565-0.46,1.025-1.027,1.025h-7.189v7.186c0,0.567-0.459,1.026-1.026,1.026h-2.054c-0.567,0-1.028-0.459-1.028-1.026v-7.186
				h-7.188c-0.567,0-1.027-0.46-1.027-1.025V351.446z"/>
		</g>
		<g id="filter">
			<path fill-rule="evenodd" clip-rule="evenodd" d="M62.681,45.721c-1.681,0-3.049,1.322-3.049,2.946v2.967
				c-1.228,0.897-2.033,2.305-2.033,3.908c0,1.601,0.805,3.01,2.033,3.905v14.753c0,1.625,1.368,2.947,3.049,2.947
				c1.681,0,3.048-1.322,3.048-2.947V59.446c1.228-0.895,2.033-2.304,2.033-3.905c0-1.603-0.805-3.01-2.033-3.908v-2.967
				C65.729,47.042,64.362,45.721,62.681,45.721z
			M61.665,48.667c0-0.543,0.455-0.981,1.017-0.981c0.561,0,1.017,0.438,1.017,0.981
				v2.062c-0.329-0.064-0.669-0.098-1.017-0.098c-0.348,0-0.688,0.034-1.017,0.098V48.667z
			M63.698,74.199
				c0,0.543-0.456,0.983-1.017,0.983c-0.562,0-1.017-0.44-1.017-0.983V60.352c0.329,0.065,0.668,0.1,1.017,0.1
				c0.348,0,0.688-0.035,1.017-0.1V74.199z
			M65.593,56.366c-0.016,0.052-0.031,0.104-0.05,0.155c-0.096,0.258-0.22,0.504-0.384,0.723
				c-0.004,0.006-0.01,0.01-0.014,0.016c-0.176,0.234-0.387,0.441-0.626,0.615c-0.004,0.004-0.007,0.006-0.01,0.008
				c-0.246,0.178-0.518,0.322-0.812,0.422c-0.321,0.111-0.658,0.182-1.017,0.182s-0.696-0.07-1.017-0.182
				c-0.294-0.1-0.566-0.244-0.812-0.422c-0.003-0.002-0.006-0.004-0.01-0.008c-0.239-0.174-0.45-0.381-0.626-0.615
				c-0.004-0.005-0.01-0.009-0.014-0.016c-0.164-0.219-0.288-0.464-0.384-0.723c-0.019-0.051-0.034-0.104-0.049-0.155
				c-0.082-0.263-0.137-0.537-0.137-0.825c0-0.291,0.055-0.564,0.137-0.828c0.015-0.051,0.03-0.103,0.049-0.153
				c0.096-0.259,0.22-0.505,0.384-0.725c0.004-0.006,0.01-0.009,0.014-0.016c0.176-0.232,0.387-0.441,0.626-0.616
				c0.004-0.002,0.007-0.006,0.01-0.008c0.246-0.177,0.518-0.32,0.812-0.422c0.32-0.109,0.658-0.18,1.017-0.18
				s0.696,0.071,1.017,0.18c0.293,0.102,0.566,0.245,0.812,0.422c0.003,0.002,0.005,0.005,0.01,0.008
				c0.239,0.174,0.45,0.384,0.626,0.616c0.004,0.006,0.01,0.01,0.014,0.016c0.164,0.22,0.288,0.466,0.384,0.725
				c0.02,0.05,0.034,0.102,0.05,0.153c0.081,0.264,0.136,0.537,0.136,0.828C65.729,55.829,65.674,56.103,65.593,56.366z
			M40.322,77.146
				c1.682,0,3.05-1.322,3.05-2.947V59.446c1.228-0.895,2.032-2.304,2.032-3.905c0-1.603-0.804-3.01-2.032-3.908v-2.967
				c0-1.625-1.368-2.946-3.05-2.946c-1.681,0-3.048,1.322-3.048,2.946v2.967c-1.228,0.897-2.032,2.305-2.032,3.908
				c0,1.601,0.804,3.01,2.032,3.905v14.753C37.274,75.824,38.642,77.146,40.322,77.146z
			M41.339,74.199
				c0,0.543-0.455,0.983-1.017,0.983c-0.561,0-1.016-0.44-1.016-0.983V60.352c0.328,0.065,0.668,0.1,1.016,0.1
				c0.349,0,0.688-0.035,1.017-0.1V74.199z
			M39.307,48.667c0-0.543,0.455-0.981,1.016-0.981c0.562,0,1.017,0.438,1.017,0.981v2.062
				c-0.329-0.064-0.667-0.098-1.017-0.098c-0.348,0-0.688,0.034-1.016,0.098V48.667z
			M37.411,54.714
				c0.016-0.051,0.03-0.103,0.05-0.153c0.096-0.259,0.219-0.505,0.383-0.725c0.004-0.006,0.009-0.009,0.014-0.016
				c0.177-0.232,0.388-0.441,0.627-0.616c0.002-0.002,0.006-0.006,0.009-0.008c0.245-0.177,0.518-0.32,0.812-0.422
				c0.319-0.109,0.658-0.18,1.016-0.18c0.358,0,0.697,0.071,1.017,0.18c0.294,0.102,0.567,0.245,0.812,0.422
				c0.002,0.002,0.006,0.005,0.01,0.008c0.239,0.174,0.45,0.384,0.626,0.616c0.004,0.006,0.01,0.01,0.014,0.016
				c0.164,0.22,0.289,0.466,0.384,0.725c0.019,0.05,0.034,0.102,0.049,0.153c0.082,0.264,0.138,0.537,0.138,0.828
				c0,0.288-0.056,0.562-0.138,0.825c-0.015,0.052-0.031,0.104-0.049,0.155c-0.096,0.258-0.221,0.504-0.384,0.723
				c-0.004,0.006-0.01,0.01-0.014,0.016c-0.176,0.234-0.387,0.441-0.626,0.615c-0.004,0.004-0.007,0.006-0.01,0.008
				c-0.245,0.178-0.518,0.322-0.812,0.422c-0.319,0.111-0.658,0.182-1.017,0.182c-0.358,0-0.696-0.07-1.016-0.182
				c-0.294-0.1-0.567-0.244-0.812-0.422c-0.003-0.002-0.007-0.004-0.009-0.008c-0.24-0.174-0.451-0.381-0.627-0.615
				c-0.004-0.005-0.009-0.009-0.014-0.016c-0.164-0.219-0.288-0.464-0.383-0.723c-0.02-0.051-0.034-0.104-0.05-0.155
				c-0.081-0.263-0.137-0.537-0.137-0.825C37.274,55.251,37.33,54.978,37.411,54.714z
			M48.453,71.23v2.969
				c0,1.625,1.368,2.947,3.049,2.947s3.049-1.322,3.049-2.947V71.23c1.228-0.895,2.032-2.303,2.032-3.905s-0.804-3.009-2.032-3.907
				V48.667c0-1.625-1.368-2.946-3.049-2.946s-3.049,1.322-3.049,2.946v14.752c-1.228,0.897-2.032,2.305-2.032,3.907
				S47.225,70.335,48.453,71.23z
			M52.518,74.199c0,0.543-0.455,0.983-1.016,0.983s-1.017-0.44-1.017-0.983v-2.064
				c0.328,0.065,0.669,0.101,1.017,0.101c0.348,0,0.688-0.035,1.016-0.101V74.199z
			M50.485,48.667c0-0.543,0.455-0.981,1.017-0.981
				s1.016,0.438,1.016,0.981v13.846c-0.329-0.063-0.668-0.098-1.016-0.098c-0.348,0-0.689,0.035-1.017,0.098V48.667z
			M48.59,66.499
				c0.015-0.051,0.03-0.104,0.049-0.154c0.096-0.259,0.221-0.504,0.383-0.725c0.004-0.006,0.011-0.01,0.015-0.016
				c0.176-0.232,0.387-0.441,0.626-0.615c0.004-0.002,0.007-0.006,0.01-0.008c0.245-0.177,0.518-0.32,0.812-0.422
				c0.32-0.109,0.658-0.18,1.017-0.18c0.358,0,0.696,0.071,1.016,0.18c0.294,0.102,0.566,0.245,0.812,0.422
				c0.003,0.001,0.006,0.005,0.011,0.008c0.239,0.174,0.45,0.383,0.625,0.615c0.004,0.006,0.01,0.01,0.015,0.016
				c0.163,0.221,0.288,0.465,0.383,0.725c0.019,0.05,0.034,0.103,0.05,0.154c0.081,0.262,0.137,0.537,0.137,0.827
				c0,0.287-0.056,0.562-0.137,0.825c-0.016,0.052-0.031,0.104-0.05,0.155c-0.096,0.26-0.221,0.505-0.383,0.723
				c-0.004,0.006-0.011,0.01-0.015,0.016c-0.176,0.234-0.387,0.44-0.625,0.616c-0.004,0.003-0.007,0.005-0.011,0.008
				c-0.245,0.178-0.518,0.322-0.812,0.421c-0.32,0.111-0.658,0.183-1.016,0.183c-0.359,0-0.697-0.071-1.017-0.183
				c-0.294-0.1-0.566-0.243-0.812-0.421c-0.003-0.003-0.006-0.004-0.01-0.008c-0.239-0.176-0.45-0.382-0.626-0.616
				c-0.004-0.006-0.011-0.009-0.015-0.016c-0.163-0.218-0.288-0.463-0.383-0.723c-0.019-0.051-0.034-0.103-0.049-0.155
				c-0.082-0.263-0.138-0.538-0.138-0.825C48.453,67.036,48.508,66.761,48.59,66.499z"/>
		</g>
		<g id="arrow">
			<path fill-rule="evenodd" clip-rule="evenodd" d="M182.667,385.184l14.141-13.219l0.159,0.157l1.611-1.585l-15.931-15.682l-1.612,1.587l14.165,13.939l-14.141,13.221
				L182.667,385.184z"/>
		</g>
		<g id="camera">
			<path fill-rule="evenodd" clip-rule="evenodd" d="M117.278,401.174c3.59,0,6.5-2.982,6.5-6.665
				c0-3.679-2.91-6.663-6.5-6.663c-3.59,0-6.501,2.984-6.501,6.663C110.777,398.191,113.688,401.174,117.278,401.174z
			M117.278,390.808c1.994,0,3.611,1.658,3.611,3.701c0,2.047-1.617,3.705-3.611,3.705c-1.995,0-3.612-1.658-3.612-3.705
				C113.667,392.466,115.283,390.808,117.278,390.808z
			M105.722,407.1h23.112c1.995,0,3.611-1.658,3.611-3.703v-14.81
				c0-2.047-1.616-3.704-3.611-3.704h-1.588l-2.022-1.48c-0.678-1.453-2.738-2.962-4.333-2.962h-7.223
				c-1.596,0-3.476,1.141-4.334,2.962l-2.022,1.48h-1.589c-1.995,0-3.611,1.657-3.611,3.704v14.81
				C102.11,405.441,103.727,407.1,105.722,407.1z
			M104.999,390.067c0-0.966,0.607-1.914,1.445-2.222h2.888l2.889-2.963
				c0.587-1.095,2.091-1.48,2.89-1.48h4.333c0.797,0,2.347,0.433,2.889,1.48l2.889,2.963h2.888c0.838,0.308,1.445,1.256,1.445,2.222
				v11.849c0,1.227-0.97,2.22-2.167,2.22h-20.224c-1.196,0-2.167-0.993-2.167-2.22V390.067z"/>
		</g>
		<g id="add-selected_v2">
			<path fill-rule="evenodd" clip-rule="evenodd" d="M113.253,454.245
				c-7.971,0-14.432,6.462-14.432,14.434c0,7.973,6.461,14.434,14.432,14.434c7.97,0,14.431-6.461,14.431-14.434
				C127.685,460.707,121.223,454.245,113.253,454.245z
			M119.769,469.543c0,0.349-0.282,0.628-0.628,0.628h-4.399v4.397
				c0,0.347-0.28,0.628-0.628,0.628h-1.256c-0.348,0-0.629-0.281-0.629-0.628v-4.397h-4.398c-0.347,0-0.628-0.279-0.628-0.628v-1.256
				c0-0.346,0.282-0.63,0.628-0.63h4.398v-4.396c0-0.348,0.281-0.63,0.629-0.63h1.256c0.348,0,0.628,0.282,0.628,0.63v4.396h4.399
				c0.346,0,0.628,0.284,0.628,0.63V469.543z"/>
		</g>
		<g id="add-deselected_v2">
			<path fill-rule="evenodd" clip-rule="evenodd" d="M190.721,464.72h-5.542v-5.541
				c0-0.438-0.354-0.791-0.792-0.791h-1.583c-0.437,0-0.792,0.354-0.792,0.791v5.541h-5.542c-0.437,0-0.791,0.354-0.791,0.791v1.585
				c0,0.436,0.354,0.791,0.791,0.791h5.542v5.542c0,0.437,0.355,0.792,0.792,0.792h1.583c0.438,0,0.792-0.355,0.792-0.792v-5.542
				h5.542c0.438,0,0.792-0.355,0.792-0.791v-1.585C191.513,465.074,191.159,464.72,190.721,464.72z
			M183.596,452.054c-7.87,0-14.251,6.378-14.251,14.25c0,7.87,6.381,14.251,14.251,14.251s14.251-6.381,14.251-14.251
				C197.847,458.432,191.466,452.054,183.596,452.054z
			M183.596,478.972c-6.997,0-12.667-5.672-12.667-12.668
				c0-6.995,5.671-12.667,12.667-12.667c6.996,0,12.667,5.672,12.667,12.667C196.263,473.3,190.592,478.972,183.596,478.972z"/>
		</g>
		<g id="menu">
			<path fill-rule="evenodd" clip-rule="evenodd" d="M203.864,416.277h-0.972
				c-0.375-1.373-0.923-2.679-1.618-3.885l0.693-0.694c1.503-1.504,1.503-3.942,0-5.443l-0.654-0.655
				c-1.503-1.501-3.941-1.501-5.444,0l-0.677,0.68c-1.229-0.715-2.554-1.277-3.957-1.659v-0.97c0-2.126-1.723-3.85-3.85-3.85h-0.924
				c-2.126,0-3.85,1.724-3.85,3.85v0.929c-1.414,0.372-2.751,0.925-3.992,1.632l-0.664-0.666c-1.503-1.502-3.94-1.502-5.444,0
				l-0.653,0.654c-1.503,1.504-1.503,3.94,0,5.445l0.629,0.629c-0.727,1.24-1.299,2.585-1.686,4.004h-0.894
				c-2.126,0-3.851,1.723-3.851,3.851v0.923c0,2.126,1.724,3.852,3.851,3.852h0.852c0.383,1.456,0.958,2.837,1.699,4.109l-0.601,0.6
				c-1.503,1.504-1.503,3.94,0,5.443l0.653,0.655c1.504,1.503,3.941,1.503,5.444,0l0.615-0.615c1.253,0.721,2.609,1.284,4.041,1.659
				v0.853c0,2.126,1.724,3.85,3.85,3.85h0.924c2.127,0,3.85-1.724,3.85-3.85v-0.895c1.42-0.388,2.764-0.959,4.005-1.684l0.629,0.626
				c1.503,1.504,3.941,1.504,5.444,0l0.654-0.654c1.503-1.502,1.503-3.939,0-5.443l-0.664-0.666c0.707-1.238,1.26-2.578,1.63-3.988
				h0.931c2.126,0,3.849-1.726,3.849-3.852v-0.923C207.713,418,205.99,416.277,203.864,416.277z
			M205.371,421.622
				c0,0.569-0.463,1.033-1.034,1.033h-3.276c-0.364,2.436-1.336,4.662-2.756,6.542l2.349,2.352c0.404,0.404,0.404,1.059,0,1.46
				l-1.461,1.462c-0.404,0.404-1.058,0.404-1.461,0l-2.352-2.354c-1.888,1.397-4.105,2.379-6.54,2.729v3.311
				c0,0.569-0.463,1.032-1.033,1.032h-2.066c-0.571,0-1.034-0.463-1.034-1.032v-3.311c-2.434-0.35-4.652-1.331-6.539-2.729
				l-2.352,2.354c-0.404,0.404-1.058,0.404-1.462,0l-1.46-1.462c-0.404-0.401-0.404-1.056,0-1.46l2.349-2.352
				c-1.42-1.88-2.392-4.106-2.756-6.542h-3.276c-0.571,0-1.033-0.464-1.033-1.033v-2.067c0-0.569,0.462-1.034,1.033-1.034h3.276
				c0.364-2.435,1.336-4.662,2.756-6.543l-2.349-2.349c-0.404-0.405-0.404-1.06,0-1.462l1.46-1.462c0.404-0.403,1.058-0.403,1.462,0
				l2.352,2.353c1.887-1.396,4.105-2.378,6.539-2.728v-3.31c0-0.569,0.462-1.033,1.034-1.033h2.066c0.57,0,1.033,0.464,1.033,1.033
				v3.31c2.434,0.35,4.652,1.332,6.54,2.728l2.352-2.353c0.404-0.403,1.058-0.403,1.461,0l1.461,1.462
				c0.404,0.402,0.404,1.057,0,1.462l-2.349,2.349c1.419,1.881,2.392,4.108,2.756,6.543h3.276c0.57,0,1.034,0.465,1.034,1.034
				V421.622z
			M186.775,416.455
				c-2.283,0-4.132,1.85-4.132,4.133c0,2.282,1.849,4.135,4.132,4.135c2.282,0,4.132-1.853,4.132-4.135
				C190.907,418.305,189.057,416.455,186.775,416.455z
			M186.775,422.242c-0.913,0-1.653-0.741-1.653-1.654
				c0-0.914,0.74-1.653,1.653-1.653s1.653,0.739,1.653,1.653C188.428,421.501,187.688,422.242,186.775,422.242z"/>
		</g>
	</g>
</svg>
