<?xml version="1.0" encoding="utf-8"?>
<!-- Generator: Adobe Illustrator 16.0.0, SVG Export Plug-In . SVG Version: 6.00 Build 0)  -->
<!DOCTYPE svg PUBLIC "-//W3C//DTD SVG 1.1//EN" "http://www.w3.org/Graphics/SVG/1.1/DTD/svg11.dtd">
<svg width="51" height="21" xmlns="http://www.w3.org/2000/svg">
 <g>
  <title>Layer 1</title>
  <g id="svg_11">
   <g id="lufke">
    <path id="svg_12" style="fill:#444" d="m38.226997,11.81c-0.731003,-0.829 -1.584,-1.702 -1.767002,-1.875999c-0.580997,-0.555 -0.169003,-0.974001 -0.169003,-0.974001s4.052002,-5.469999 4.844002,-6.243999s0.789997,-1.255001 0.358002,-1.753c-0.431999,-0.5 -1.479996,-0.218001 -2.199997,0.36c-1.285004,1.032001 -3.212002,4.456 -4.059002,5.338c-0.845005,0.882999 -0.798,0.026001 -0.790005,-0.485001c0.008003,-0.511 -0.041,-1.122 0.044006,-2.674c0.084999,-1.552 -0.016006,-3.082 -1.395004,-3.103999c-2.282,-0.036 -1.552,3.230001 -1.649,6.728c-0.097,3.497 -0.137001,8.417999 -0.089001,9.827998c0.062,1.826004 -0.046997,2.483002 1.303003,2.976002c0.764,0.281002 1.362,-0.174999 1.507996,-0.287998c0.562,-0.434002 0.643005,-1.062002 0.431999,-1.818001c-0.093994,-0.341 -0.133999,-1.202999 -0.174995,-2.324c-0.042,-1.123001 -0.108002,-0.756001 -0.041,-2.387001c0.049995,-1.219999 0.795002,-0.931 0.968002,-0.535c0.172997,0.396 2.973,4.684001 3.950996,5.938003c0.979004,1.254995 1.385002,1.260996 2.494999,0.550999c1.111004,-0.709999 1.050007,-1.013 0.447002,-2.065002c-0.600998,-1.052999 -2.425995,-3.390998 -4.015999,-5.191998zm-15.791998,3.530001c0.041,2.163001 -0.278999,4.338 1.319,4.338c0.799999,0 1.439999,-0.300999 1.399998,-1.638c-0.039997,-1.335999 -0.045998,-1.77 -0.045998,-3.499999c0,-1.729 1.192001,-1.677 1.992001,-1.677s1.666,-0.466 1.666,-1.351002c0,-0.883999 -1.071003,-1.181999 -1.653,-1.244999c-1.163002,-0.124001 -2.058002,0.504 -2.058002,-1.717001c-0.000999,-2.220999 -0.007,-2.844999 -0.02,-3.879c-0.013,-1.035999 0.439003,-1.528 1.959,-1.389c1.784,0.171 2.211002,-0.715 2.211002,-1.561001c0,-0.846 -0.838001,-1.362999 -2.998001,-1.362999c-3.978001,0 -4.169998,0.151999 -4.050999,3.552c0.119999,3.4 0.238998,9.267 0.278999,11.43zm-14.541,2.652997c0,-0.627996 -0.493,-1.227999 -1.810001,-1.126997c-2.769999,0.472 -2.569998,-0.748001 -2.623999,-1.297002c-0.319,-3.407 -0.171999,-10.483 -0.093,-12.422001c0.08,-1.938999 -0.386,-2.541999 -1.664,-2.384999c-1.438,0.235001 -1.556999,2.202001 -1.583,3.354001c-0.025999,1.153 -0.119999,8.073999 -0.039999,12.396998c0.08,4.322001 2.436998,3.525003 4.005999,3.498003c1.571001,-0.026001 3.808001,0.025002 3.808001,-2.018003zm7.126999,1.733002c3.517002,-0.549997 4.316002,-5.324998 4.661999,-7.526c0.347,-2.201998 0.213001,-7.710999 0.267002,-8.706999s-0.080002,-2.097 -0.771999,-2.386001c-0.692001,-0.287999 -1.532001,0.145 -1.732002,2.190001c-0.198997,2.042999 -0.558998,7.054998 -0.799,9.807999c-0.239998,2.751999 -1.401001,3.770999 -2.604,3.742999c-1.262001,-0.029999 -2.738998,-1.448998 -2.870998,-4.253999c-0.132999,-2.805 -0.534,-10.058001 -0.586002,-10.635c-0.053997,-0.577 0.013,-1.324 -0.706997,-1.494c-1.957001,-0.465 -1.818001,3.016999 -1.559002,10.884c0.260002,7.863002 4.382999,8.651999 6.701,8.377zm32.491999,-16.722999c0.692001,-0.052 0.570004,-0.063 1.940006,0.002001c1.370995,0.066 1.742996,-0.439001 1.742996,-1.285c0,-0.846001 -0.652,-1.35 -2.794003,-1.284c-0.731998,0.013 -1.237995,-0.080001 -2.036999,-0.080001c-1.862999,0 -1.889999,0.586 -1.889999,1.337001c0,0.93 -0.251999,10.709 -0.251999,12.99c0,2.281001 -0.598999,4.706002 2.515999,4.706002c3.114006,0 0.704998,0.012995 2.129005,0.012995c1.422997,0 2.301994,-0.577 2.274994,-1.441996c0,-1.009001 -1.209999,-1.101 -3.073997,-1.101c-0.824997,0 -1.277004,-0.026001 -1.277004,-1.074002c0,-2.019001 -0.039997,-1.607 -0.039997,-2.413c0,-0.917 -0.079994,-1.336 0.532005,-1.427999c0.612999,-0.092001 1.299992,-0.141001 1.742992,-0.184c0.945,-0.092001 1.332005,-0.446001 1.332005,-1.52c0,-1.076 -1.305,-0.932001 -1.970001,-0.905001c-0.665005,0.025 -1.650002,0.039 -1.650002,-1.178999c0,-0.355001 0.013,-2.766001 0.013,-4.130001c-0.001003,-0.751999 0.067997,-0.969999 0.760998,-1.022999z" clip-rule="evenodd" fill-rule="evenodd"/>
   </g>
  </g>
 </g>
</svg>
