<?xml version="1.0" encoding="utf-8"?>
<!-- Generator: Adobe Illustrator 16.0.0, SVG Export Plug-In . SVG Version: 6.00 Build 0)  -->
<!DOCTYPE svg PUBLIC "-//W3C//DTD SVG 1.1//EN" "http://www.w3.org/Graphics/SVG/1.1/DTD/svg11.dtd">
<svg version="1.1" id="Capa_1" xmlns="http://www.w3.org/2000/svg" xmlns:xlink="http://www.w3.org/1999/xlink" x="0px" y="0px" width="800px" height="500px" viewBox="0 0 800 500" enable-background="new 0 0 800 500" xml:space="preserve">
	<g>
		<g id="lufke">
			<path fill-rule="evenodd" clip-rule="evenodd" d="M65.755,26.479c-0.731-0.829-1.584-1.702-1.767-1.876
				c-0.581-0.555-0.169-0.974-0.169-0.974s4.052-5.47,4.844-6.244s0.79-1.255,0.358-1.753c-0.432-0.5-1.48-0.218-2.2,0.36
				c-1.285,1.032-3.212,4.456-4.059,5.338c-0.845,0.883-0.798,0.026-0.79-0.485c0.008-0.511-0.041-1.122,0.044-2.674
				c0.085-1.552-0.016-3.082-1.395-3.104c-2.282-0.036-1.552,3.23-1.649,6.728c-0.097,3.497-0.137,8.418-0.089,9.828
				c0.062,1.826-0.047,2.483,1.303,2.976c0.764,0.281,1.362-0.175,1.508-0.288c0.562-0.434,0.643-1.062,0.432-1.818
				c-0.094-0.341-0.134-1.203-0.175-2.324c-0.042-1.123-0.108-0.756-0.041-2.387c0.05-1.22,0.795-0.931,0.968-0.535
				c0.173,0.396,2.973,4.684,3.951,5.938c0.979,1.255,1.385,1.261,2.495,0.551c1.111-0.71,1.05-1.013,0.447-2.065
				C69.17,30.618,67.345,28.28,65.755,26.479z
			M49.963,30.009c0.041,2.163-0.279,4.338,1.319,4.338c0.8,0,1.44-0.301,1.4-1.638
				c-0.04-1.336-0.046-1.77-0.046-3.5c0-1.729,1.192-1.677,1.992-1.677s1.666-0.466,1.666-1.351c0-0.884-1.071-1.182-1.653-1.245
				c-1.163-0.124-2.058,0.504-2.058-1.717c-0.001-2.221-0.007-2.845-0.02-3.879c-0.013-1.036,0.439-1.528,1.959-1.389
				c1.784,0.171,2.211-0.715,2.211-1.561c0-0.846-0.838-1.363-2.998-1.363c-3.978,0-4.17,0.152-4.051,3.552
				C49.804,21.979,49.923,27.846,49.963,30.009z
			M35.422,32.662c0-0.628-0.493-1.228-1.81-1.127c-2.77,0.472-2.57-0.748-2.624-1.297c-0.319-3.407-0.172-10.483-0.093-12.422
				c0.08-1.939-0.386-2.542-1.664-2.385c-1.438,0.235-1.557,2.202-1.583,3.354c-0.026,1.153-0.12,8.074-0.04,12.397
				c0.08,4.322,2.437,3.525,4.006,3.498C33.185,34.654,35.422,34.705,35.422,32.662z
			M42.549,34.395c3.517-0.55,4.316-5.325,4.662-7.526c0.347-2.202,0.213-7.711,0.267-8.707s-0.08-2.097-0.772-2.386
				c-0.692-0.288-1.532,0.145-1.732,2.19c-0.199,2.043-0.559,7.055-0.799,9.808c-0.24,2.752-1.401,3.771-2.604,3.743
				c-1.262-0.03-2.739-1.449-2.871-4.254c-0.133-2.805-0.534-10.058-0.586-10.635c-0.054-0.577,0.013-1.324-0.707-1.494
				c-1.957-0.465-1.818,3.017-1.559,10.884C36.108,33.881,40.231,34.67,42.549,34.395z
			M75.041,17.672
				c0.692-0.052,0.57-0.063,1.94,0.002c1.371,0.066,1.743-0.439,1.743-1.285c0-0.846-0.652-1.35-2.794-1.284
				c-0.732,0.013-1.238-0.08-2.037-0.08c-1.863,0-1.89,0.586-1.89,1.337c0,0.93-0.252,10.709-0.252,12.99
				c0,2.281-0.599,4.706,2.516,4.706c3.114,0,0.705,0.013,2.129,0.013c1.423,0,2.302-0.577,2.275-1.442
				c0-1.009-1.21-1.101-3.074-1.101c-0.825,0-1.277-0.026-1.277-1.074c0-2.019-0.04-1.607-0.04-2.413c0-0.917-0.08-1.336,0.532-1.428
				c0.613-0.092,1.3-0.141,1.743-0.184c0.945-0.092,1.332-0.446,1.332-1.52c0-1.076-1.305-0.932-1.97-0.905
				c-0.665,0.025-1.65,0.039-1.65-1.179c0-0.355,0.013-2.766,0.013-4.13C74.279,17.943,74.348,17.725,75.041,17.672z"/>
		</g>
	</g>
</svg>
