<?xml version="1.0" encoding="utf-8"?>
<!-- Generator: Adobe Illustrator 16.0.0, SVG Export Plug-In . SVG Version: 6.00 Build 0)  -->
<!DOCTYPE svg PUBLIC "-//W3C//DTD SVG 1.1//EN" "http://www.w3.org/Graphics/SVG/1.1/DTD/svg11.dtd">
<svg version="1.1" id="Capa_1" xmlns="http://www.w3.org/2000/svg" xmlns:xlink="http://www.w3.org/1999/xlink" x="0px" y="0px" width="800px" height="500px" viewBox="0 0 800 500" enable-background="new 0 0 800 500" xml:space="preserve">
	<g>
		<g id="mas">
			<path fill-rule="evenodd" clip-rule="evenodd" d="M118.736,285.06c8.374,0,15.163-6.788,15.163-15.161c0-8.376-6.789-15.166-15.163-15.166
				c-8.375,0-15.164,6.79-15.164,15.166C103.572,278.271,110.361,285.06,118.736,285.06z M112.422,269.556
				c0-0.363,0.294-0.662,0.658-0.662h4.601v-4.647c0-0.366,0.295-0.663,0.658-0.663h1.315c0.363,0,0.657,0.297,0.657,0.663v4.647
				h4.603c0.362,0,0.657,0.299,0.657,0.662v1.328c0,0.366-0.295,0.666-0.657,0.666h-4.603v4.646c0,0.365-0.294,0.664-0.657,0.664
				h-1.315c-0.363,0-0.658-0.299-0.658-0.664v-4.646h-4.601c-0.363,0-0.658-0.3-0.658-0.666V269.556z"/>
		</g>
	</g>
</svg>
