<?xml version="1.0" encoding="utf-8"?>
<!-- Generator: Adobe Illustrator 16.0.0, SVG Export Plug-In . SVG Version: 6.00 Build 0)  -->
<!DOCTYPE svg PUBLIC "-//W3C//DTD SVG 1.1//EN" "http://www.w3.org/Graphics/SVG/1.1/DTD/svg11.dtd">
<svg width="42" height="42" xmlns="http://www.w3.org/2000/svg">
	<g>
		<g id="svg_1">
			<g id="menu">
				<path id="svg_2" style="fill:#fff;" d="m37.808,16.47601h-0.972c-0.375,-1.37302 -0.923,-2.67902 -1.618,-3.88501l0.69299,-0.694c1.50301,-1.504 1.50301,-3.94199 0,-5.44299l-0.65399,-0.655c-1.50301,-1.50101 -3.94101,-1.50101 -5.444,0l-0.677,0.67999c-1.229,-0.715 -2.554,-1.27701 -3.957,-1.659v-0.97c0,-2.12601 -1.72301,-3.85001 -3.85001,-3.85001h-0.924c-2.12599,0 -3.85001,1.724 -3.85001,3.85001v0.92899c-1.41399,0.37201 -2.75099,0.92502 -3.99199,1.63202l-0.664,-0.66602c-1.50301,-1.50198 -3.94,-1.50198 -5.444,0l-0.653,0.65402c-1.50301,1.504 -1.50301,3.94 0,5.44498l0.629,0.629c-0.72701,1.24002 -1.299,2.58502 -1.686,4.00403h-0.894c-2.12599,0 -3.851,1.72299 -3.851,3.85098v0.923c0,2.12601 1.724,3.85199 3.851,3.85199h0.85201c0.383,1.45599 0.95799,2.83701 1.69899,4.10901l-0.601,0.60001c-1.50299,1.504 -1.50299,3.94 0,5.44299l0.653,0.655c1.50401,1.50299 3.94101,1.50299 5.444,0l0.61501,-0.61499c1.25301,0.72098 2.60899,1.284 4.041,1.659v0.853c0,2.12601 1.724,3.85001 3.85001,3.85001h0.924c2.127,0 3.84999,-1.724 3.84999,-3.85001v-0.89499c1.42001,-0.388 2.76401,-0.95901 4.005,-1.68402l0.629,0.62601c1.50301,1.504 3.94101,1.504 5.444,0l0.65401,-0.65399c1.50299,-1.50201 1.50299,-3.939 0,-5.44299l-0.664,-0.66602c0.707,-1.23801 1.25999,-2.578 1.63,-3.98801h0.931c2.12599,0 3.849,-1.72598 3.849,-3.85199v-0.923c0.00099,-2.129 -1.722,-3.85199 -3.84801,-3.85199zm1.507,5.345c0,0.569 -0.463,1.03299 -1.034,1.03299h-3.276c-0.364,2.436 -1.336,4.66199 -2.75601,6.54199l2.34901,2.35202c0.40399,0.40399 0.40399,1.05899 0,1.45999l-1.46101,1.46201c-0.40399,0.40399 -1.058,0.40399 -1.461,0l-2.35199,-2.354c-1.888,1.397 -4.10501,2.379 -6.54001,2.729v3.311c0,0.569 -0.463,1.03198 -1.03299,1.03198h-2.06601c-0.571,0 -1.034,-0.46298 -1.034,-1.03198v-3.311c-2.43401,-0.35001 -4.65201,-1.33099 -6.539,-2.729l-2.35201,2.354c-0.40399,0.40399 -1.058,0.40399 -1.46199,0l-1.46001,-1.46201c-0.40399,-0.401 -0.40399,-1.056 0,-1.45999l2.349,-2.35202c-1.42,-1.88 -2.392,-4.10599 -2.756,-6.54199h-3.276c-0.571,0 -1.033,-0.46399 -1.033,-1.03299v-2.06702c0,-0.569 0.46201,-1.034 1.033,-1.034h3.276c0.364,-2.435 1.336,-4.66199 2.756,-6.543l-2.349,-2.349c-0.40399,-0.405 -0.40399,-1.06 0,-1.46201l1.46001,-1.46201c0.40399,-0.40298 1.058,-0.40298 1.46199,0l2.35201,2.35303c1.88699,-1.39603 4.105,-2.37802 6.539,-2.72803v-3.31c0,-0.569 0.46201,-1.03299 1.034,-1.03299h2.06601c0.56999,0 1.03299,0.46399 1.03299,1.03299v3.31c2.43401,0.35001 4.65201,1.332 6.54001,2.72803l2.35199,-2.35303c0.40401,-0.40298 1.058,-0.40298 1.461,0l1.46101,1.46201c0.40399,0.40201 0.40399,1.05701 0,1.46201l-2.34901,2.349c1.41901,1.88101 2.39201,4.108 2.75601,6.543h3.276c0.56999,0 1.034,0.465 1.034,1.034v2.06702l0,0zm-18.59601,-5.16702c-2.28299,0 -4.13199,1.85001 -4.13199,4.13303c0,2.28198 1.849,4.13498 4.13199,4.13498c2.28201,0 4.132,-1.853 4.132,-4.13498c0,-2.28302 -1.84999,-4.13303 -4.132,-4.13303zm0,5.78702c-0.91299,0 -1.653,-0.741 -1.653,-1.65399c0,-0.914 0.74001,-1.65302 1.653,-1.65302s1.653,0.73901 1.653,1.65302c0,0.91299 -0.73999,1.65399 -1.653,1.65399z" clip-rule="evenodd" fill-rule="evenodd"/>
			</g>
		</g>
	</g>
</svg>