<?xml version="1.0" encoding="utf-8"?>
<!-- Generator: Adobe Illustrator 16.0.0, SVG Export Plug-In . SVG Version: 6.00 Build 0)  -->
<!DOCTYPE svg PUBLIC "-//W3C//DTD SVG 1.1//EN" "http://www.w3.org/Graphics/SVG/1.1/DTD/svg11.dtd">
<svg version="1.1" id="Capa_1" xmlns="http://www.w3.org/2000/svg" xmlns:xlink="http://www.w3.org/1999/xlink" x="0px" y="0px" width="800px" height="500px" viewBox="0 0 800 500" enable-background="new 0 0 800 500" xml:space="preserve">
	<g>
		<g id="menu">
			<path fill-rule="evenodd" clip-rule="evenodd" d="M203.864,416.277h-0.972
				c-0.375-1.373-0.923-2.679-1.618-3.885l0.693-0.694c1.503-1.504,1.503-3.942,0-5.443l-0.654-0.655
				c-1.503-1.501-3.941-1.501-5.444,0l-0.677,0.68c-1.229-0.715-2.554-1.277-3.957-1.659v-0.97c0-2.126-1.723-3.85-3.85-3.85h-0.924
				c-2.126,0-3.85,1.724-3.85,3.85v0.929c-1.414,0.372-2.751,0.925-3.992,1.632l-0.664-0.666c-1.503-1.502-3.94-1.502-5.444,0
				l-0.653,0.654c-1.503,1.504-1.503,3.94,0,5.445l0.629,0.629c-0.727,1.24-1.299,2.585-1.686,4.004h-0.894
				c-2.126,0-3.851,1.723-3.851,3.851v0.923c0,2.126,1.724,3.852,3.851,3.852h0.852c0.383,1.456,0.958,2.837,1.699,4.109l-0.601,0.6
				c-1.503,1.504-1.503,3.94,0,5.443l0.653,0.655c1.504,1.503,3.941,1.503,5.444,0l0.615-0.615c1.253,0.721,2.609,1.284,4.041,1.659
				v0.853c0,2.126,1.724,3.85,3.85,3.85h0.924c2.127,0,3.85-1.724,3.85-3.85v-0.895c1.42-0.388,2.764-0.959,4.005-1.684l0.629,0.626
				c1.503,1.504,3.941,1.504,5.444,0l0.654-0.654c1.503-1.502,1.503-3.939,0-5.443l-0.664-0.666c0.707-1.238,1.26-2.578,1.63-3.988
				h0.931c2.126,0,3.849-1.726,3.849-3.852v-0.923C207.713,418,205.99,416.277,203.864,416.277z
			M205.371,421.622
				c0,0.569-0.463,1.033-1.034,1.033h-3.276c-0.364,2.436-1.336,4.662-2.756,6.542l2.349,2.352c0.404,0.404,0.404,1.059,0,1.46
				l-1.461,1.462c-0.404,0.404-1.058,0.404-1.461,0l-2.352-2.354c-1.888,1.397-4.105,2.379-6.54,2.729v3.311
				c0,0.569-0.463,1.032-1.033,1.032h-2.066c-0.571,0-1.034-0.463-1.034-1.032v-3.311c-2.434-0.35-4.652-1.331-6.539-2.729
				l-2.352,2.354c-0.404,0.404-1.058,0.404-1.462,0l-1.46-1.462c-0.404-0.401-0.404-1.056,0-1.46l2.349-2.352
				c-1.42-1.88-2.392-4.106-2.756-6.542h-3.276c-0.571,0-1.033-0.464-1.033-1.033v-2.067c0-0.569,0.462-1.034,1.033-1.034h3.276
				c0.364-2.435,1.336-4.662,2.756-6.543l-2.349-2.349c-0.404-0.405-0.404-1.06,0-1.462l1.46-1.462c0.404-0.403,1.058-0.403,1.462,0
				l2.352,2.353c1.887-1.396,4.105-2.378,6.539-2.728v-3.31c0-0.569,0.462-1.033,1.034-1.033h2.066c0.57,0,1.033,0.464,1.033,1.033
				v3.31c2.434,0.35,4.652,1.332,6.54,2.728l2.352-2.353c0.404-0.403,1.058-0.403,1.461,0l1.461,1.462
				c0.404,0.402,0.404,1.057,0,1.462l-2.349,2.349c1.419,1.881,2.392,4.108,2.756,6.543h3.276c0.57,0,1.034,0.465,1.034,1.034
				V421.622z
			M186.775,416.455
				c-2.283,0-4.132,1.85-4.132,4.133c0,2.282,1.849,4.135,4.132,4.135c2.282,0,4.132-1.853,4.132-4.135
				C190.907,418.305,189.057,416.455,186.775,416.455z
			M186.775,422.242c-0.913,0-1.653-0.741-1.653-1.654
				c0-0.914,0.74-1.653,1.653-1.653s1.653,0.739,1.653,1.653C188.428,421.501,187.688,422.242,186.775,422.242z"/>
		</g>
	</g>
</svg>
