<?xml version="1.0" encoding="utf-8"?>
<!-- Generator: Adobe Illustrator 16.0.0, SVG Export Plug-In . SVG Version: 6.00 Build 0)  -->
<!DOCTYPE svg PUBLIC "-//W3C//DTD SVG 1.1//EN" "http://www.w3.org/Graphics/SVG/1.1/DTD/svg11.dtd">
<svg version="1.1" id="Capa_1" xmlns="http://www.w3.org/2000/svg" xmlns:xlink="http://www.w3.org/1999/xlink" x="0px" y="0px" width="800px" height="500px" viewBox="0 0 800 500" enable-background="new 0 0 800 500" xml:space="preserve">
	<g>
		<g id="montana">
			<path fill-rule="evenodd" clip-rule="evenodd" d="M131.218,203.948
				c2.483,0,4.496-2.011,4.496-4.494v-20.974c0-2.482-2.013-4.495-4.496-4.495h-20.974c-2.482,0-4.494,2.012-4.494,4.495v20.974
				c0,2.483,2.012,4.494,4.494,4.494H131.218z
			M108.747,179.978c0-1.655,1.341-2.997,2.997-2.997h17.978
				c1.654,0,2.996,1.342,2.996,2.997v2.284l-8.24,8.24l-5.724-5.724c-0.61-0.75-1.754-0.516-2.036,0l-7.971,7.972V179.978z
			M108.747,197.956v-0.786l8.989-8.989l9.469,9.468c0.305,0.307,0.8,0.307,1.106,0l1.104-1.105c0.306-0.304,0.306-0.799,0-1.104
				l-2.728-2.728l6.029-6.029v11.273c0,1.654-1.342,2.996-2.996,2.996h-17.978C110.088,200.952,108.747,199.61,108.747,197.956z
			M124.478,184.472c1.242,0,2.248-1.007,2.248-2.248s-1.005-2.247-2.248-2.247c-1.241,0-2.248,1.006-2.248,2.247
				S123.237,184.472,124.478,184.472z"/>
		</g>
	</g>
</svg>
