<?xml version="1.0" encoding="utf-8"?>
<!-- Generator: Adobe Illustrator 16.0.0, SVG Export Plug-In . SVG Version: 6.00 Build 0)  -->
<!DOCTYPE svg PUBLIC "-//W3C//DTD SVG 1.1//EN" "http://www.w3.org/Graphics/SVG/1.1/DTD/svg11.dtd">
<svg version="1.1" id="Capa_1" xmlns="http://www.w3.org/2000/svg" xmlns:xlink="http://www.w3.org/1999/xlink" x="0px" y="0px" width="800px" height="500px" viewBox="0 0 800 500" enable-background="new 0 0 800 500" xml:space="preserve">
	<g>
		<g id="ok">
			<path fill-rule="evenodd" clip-rule="evenodd" d="M118.006,327.083c8.577,0,15.53-6.95,15.53-15.53
				c0-8.575-6.954-15.528-15.53-15.528c-8.577,0-15.529,6.953-15.529,15.528C102.477,320.133,109.429,327.083,118.006,327.083z
			M109.005,309.897c0.441-0.461,1.157-0.461,1.598,0l5.067,5.289l9.154-9.77c0.437-0.465,1.153-0.475,1.599-0.017
				c0.446,0.454,0.453,1.203,0.018,1.668l-9.954,10.62c-0.211,0.226-0.5,0.354-0.802,0.355c-0.002,0-0.004,0-0.006,0
				c-0.299,0-0.587-0.125-0.799-0.346l-5.875-6.132C108.563,311.106,108.563,310.359,109.005,309.897z"/>
		</g>
	</g>
</svg>
