<?xml version="1.0" encoding="utf-8"?>
<!-- Generator: Adobe Illustrator 16.0.0, SVG Export Plug-In . SVG Version: 6.00 Build 0)  -->
<!DOCTYPE svg PUBLIC "-//W3C//DTD SVG 1.1//EN" "http://www.w3.org/Graphics/SVG/1.1/DTD/svg11.dtd">
<svg width="6" height="25" xmlns="http://www.w3.org/2000/svg">
 <g>
  <title>Layer 1</title>
  <g id="svg_22">
   <g id="opciones">
    <path id="svg_23" style="fill:#444" d="m2.923004,15.470999c1.614998,0 2.924004,-1.282 2.924004,-2.864c0,-1.583 -1.309006,-2.865999 -2.924004,-2.865999c-1.613998,0 -2.923004,1.282999 -2.923004,2.865999c0.000999,1.582001 1.308998,2.864 2.923004,2.864zm0,-9.740999c1.614998,0 2.924004,-1.282 2.924004,-2.865s-1.309006,-2.865 -2.924004,-2.865c-1.613998,0 -2.923004,1.282 -2.923004,2.865s1.308998,2.865 2.923004,2.865zm0,19.482998c1.614998,0 2.924004,-1.283001 2.924004,-2.864998c0,-1.582001 -1.309006,-2.866001 -2.924004,-2.866001c-1.613998,0 -2.923004,1.284 -2.923004,2.866001c0.000999,1.582001 1.308998,2.864998 2.923004,2.864998z" clip-rule="evenodd" fill-rule="evenodd"/>
   </g>
  </g>
 </g>
</svg>
