<?xml version="1.0" encoding="utf-8"?>
<!-- Generator: Adobe Illustrator 16.0.0, SVG Export Plug-In . SVG Version: 6.00 Build 0)  -->
<!DOCTYPE svg PUBLIC "-//W3C//DTD SVG 1.1//EN" "http://www.w3.org/Graphics/SVG/1.1/DTD/svg11.dtd">
<svg version="1.1" id="Capa_1" xmlns="http://www.w3.org/2000/svg" xmlns:xlink="http://www.w3.org/1999/xlink" x="0px" y="0px" width="800px" height="500px" viewBox="0 0 800 500" enable-background="new 0 0 800 500" xml:space="preserve">
	<g>
		<g id="opciones">
			<path fill-rule="evenodd" clip-rule="evenodd" d="M122.938,26.844
				c1.615,0,2.924-1.282,2.924-2.864c0-1.583-1.309-2.866-2.924-2.866c-1.614,0-2.923,1.283-2.923,2.866
				C120.016,25.562,121.324,26.844,122.938,26.844z M122.938,17.103c1.615,0,2.924-1.282,2.924-2.865s-1.309-2.865-2.924-2.865
				c-1.614,0-2.923,1.282-2.923,2.865S121.324,17.103,122.938,17.103z M122.938,36.586c1.615,0,2.924-1.283,2.924-2.865
				c0-1.582-1.309-2.866-2.924-2.866c-1.614,0-2.923,1.284-2.923,2.866C120.016,35.303,121.324,36.586,122.938,36.586z"/>
		</g>
	</g>
</svg>
