<?xml version="1.0" encoding="utf-8"?>
<!-- Generator: Adobe Illustrator 16.0.0, SVG Export Plug-In . SVG Version: 6.00 Build 0)  -->
<!DOCTYPE svg PUBLIC "-//W3C//DTD SVG 1.1//EN" "http://www.w3.org/Graphics/SVG/1.1/DTD/svg11.dtd">
<svg version="1.1" id="Capa_1" xmlns="http://www.w3.org/2000/svg" xmlns:xlink="http://www.w3.org/1999/xlink" x="0px" y="0px" width="800px" height="500px" viewBox="0 0 800 500" enable-background="new 0 0 800 500" xml:space="preserve">
	<g>
		<g id="persona_con_camara">
			<path fill-rule="evenodd" clip-rule="evenodd" d="M108.978,241.113h13.866v-1.86l-13.109,0.001c-1.843,0-3.563-2.016-3.563-2.921c0,0,0-1.169,0-2.804
				c0-1.635,4.438-4.138,10.205-4.777c-2.159-2.38-3.994-4.276-3.994-7.838c0-3.563,1.966-7.594,5.938-7.594
				c3.973,0,5.938,4.03,5.938,7.594c0,3.562-1.63,5.167-3.994,7.838c3.647,0.55,6.09,1.455,7.674,2.316h3.089
				c-1.164-1.228-3.332-2.66-7.348-3.473c1.495-1.706,2.438-4.104,2.438-6.78c0-5.174-3.488-9.368-7.791-9.368
				c-4.302,0-7.791,4.194-7.791,9.368c0,2.675,0.943,5.074,2.437,6.78c-8.014,1.624-8.67,5.713-8.67,5.713v3.123
				C104.303,238.155,107.256,241.113,108.978,241.113z
			M135.706,234.872
				h-0.654l-0.832-0.605c-0.278-0.592-1.126-1.208-1.782-1.208h-2.97c-0.656,0-1.429,0.465-1.782,1.208l-0.832,0.605H126.2
				c-0.821,0-1.485,0.677-1.485,1.512v6.046c0,0.835,0.665,1.511,1.485,1.511h9.506c0.82,0,1.484-0.676,1.484-1.511v-6.046
				C137.189,235.548,136.525,234.872,135.706,234.872z
			M136.002,241.824c0,0.501-0.4,0.908-0.891,0.908h-8.318
				c-0.492,0-0.891-0.406-0.891-0.908v-4.835c0-0.395,0.25-0.783,0.594-0.908h1.188l1.188-1.209c0.242-0.448,0.86-0.605,1.188-0.605
				h1.782c0.328,0,0.965,0.177,1.188,0.605l1.188,1.209h1.188c0.345,0.125,0.595,0.513,0.595,0.908V241.824z
			M130.952,236.081c-1.477,0-2.673,1.218-2.673,2.721s1.196,2.721,2.673,2.721
				s2.674-1.218,2.674-2.721S132.429,236.081,130.952,236.081z
			M130.952,240.313c-0.821,0-1.485-0.676-1.485-1.511
				c0-0.834,0.665-1.512,1.485-1.512c0.82,0,1.485,0.678,1.485,1.512C132.437,239.637,131.772,240.313,130.952,240.313z"/>
		</g>
	</g>
</svg>
