<?xml version="1.0" encoding="utf-8"?>
<!-- Generator: Adobe Illustrator 16.0.0, SVG Export Plug-In . SVG Version: 6.00 Build 0)  -->
<!DOCTYPE svg PUBLIC "-//W3C//DTD SVG 1.1//EN" "http://www.w3.org/Graphics/SVG/1.1/DTD/svg11.dtd">
<svg version="1.1" id="Capa_1" xmlns="http://www.w3.org/2000/svg" xmlns:xlink="http://www.w3.org/1999/xlink" x="0px" y="0px" width="800px" height="500px" viewBox="0 0 800 500" enable-background="new 0 0 800 500" xml:space="preserve">
	<g>
		<g id="camera">
			<path fill-rule="evenodd" clip-rule="evenodd" d="M117.278,401.174c3.59,0,6.5-2.982,6.5-6.665
				c0-3.679-2.91-6.663-6.5-6.663c-3.59,0-6.501,2.984-6.501,6.663C110.777,398.191,113.688,401.174,117.278,401.174z
			M117.278,390.808c1.994,0,3.611,1.658,3.611,3.701c0,2.047-1.617,3.705-3.611,3.705c-1.995,0-3.612-1.658-3.612-3.705
				C113.667,392.466,115.283,390.808,117.278,390.808z
			M105.722,407.1h23.112c1.995,0,3.611-1.658,3.611-3.703v-14.81
				c0-2.047-1.616-3.704-3.611-3.704h-1.588l-2.022-1.48c-0.678-1.453-2.738-2.962-4.333-2.962h-7.223
				c-1.596,0-3.476,1.141-4.334,2.962l-2.022,1.48h-1.589c-1.995,0-3.611,1.657-3.611,3.704v14.81
				C102.11,405.441,103.727,407.1,105.722,407.1z
			M104.999,390.067c0-0.966,0.607-1.914,1.445-2.222h2.888l2.889-2.963
				c0.587-1.095,2.091-1.48,2.89-1.48h4.333c0.797,0,2.347,0.433,2.889,1.48l2.889,2.963h2.888c0.838,0.308,1.445,1.256,1.445,2.222
				v11.849c0,1.227-0.97,2.22-2.167,2.22h-20.224c-1.196,0-2.167-0.993-2.167-2.22V390.067z"/>
		</g>
	</g>
</svg>
