<?xml version="1.0" encoding="UTF-8"?>
<!DOCTYPE svg PUBLIC "-//W3C//DTD SVG 1.1//EN" "http://www.w3.org/Graphics/SVG/1.1/DTD/svg11.dtd">
<!-- Creator: CorelDRAW X6 -->
<svg width="78" height="100" xmlns="http://www.w3.org/2000/svg">
 <g>
  <title>Layer 1</title>
  <g id="Layer_x0020_1">
   <metadata transform="translate(-10.571427345275879,-0.5714285969734192) translate(10.285714149475098,0.5714285969734192) translate(-2,0) translate(-823.9996948242188,-426.000244140625) translate(5347,7125) scale(0.8284589648246765,0.9240612983703613) translate(-5347,-7125) translate(6454.15185546875,7710.52734375) scale(1.0235347747802734,1.019479513168335) translate(-6454.15185546875,-7710.52734375) translate(971.74755859375,452.20001220703125) scale(0.45788198709487915,0.8220629692077637) translate(-971.74755859375,-452.20001220703125) translate(2122.266357421875,550.0795288085938) scale(0.8783196806907654,0.6426366567611694) translate(-2122.266357421875,-550.0795288085938) translate(2416.280029296875,855.9728393554688) scale(0.9692138433456421,0.6473580002784729) translate(-2416.280029296875,-855.9728393554688) translate(2.2737367544323206e-13,0) scale(0.5961430072784424,0.5250982046127319) translate(-2.2737367544323206e-13,0) translate(4.547473508864641e-13,4.547473508864641e-13) scale(0.8439581990242004,0.8570241332054138) translate(-4.547473508864641e-13,-4.547473508864641e-13) translate(-4.547473508864641e-13,0) scale(0.5636980533599854,0.5751697421073914) translate(4.547473508864641e-13,0) translate(0,-9.094947017729282e-13) scale(0.770000159740448,0.6475548148155212) translate(0,9.094947017729282e-13) translate(0,0) scale(0.576623797416687,0.5911458134651184) translate(0,0) translate(-48.05397415161133,0) scale(0.4684693515300751,0.44052863121032715) translate(48.05397415161133,0) translate(5231.42333984375,3.637978807091713e-12) scale(0.9752748012542725,1) translate(-5231.42333984375,-3.637978807091713e-12) translate(5364.05029296875,0) scale(1.002816915512085,1) translate(-5364.05029296875,0) translate(14.983023643493652,0) scale(0.9747191667556763,1) translate(-14.983023643493652,0) translate(15.371630668640137,0) scale(0.7867442965507507,1) translate(-15.371630668640137,0) " id="CorelCorpID_0Corel-Layer"/>
   <g id="_174754096">
    <path id="svg_1" d="m65.0003,43.74912l0,-18.74561c0,-13.78146 -11.65471,-25.00351 -26.00011,-25.00351c-14.33078,0 -26.00014,11.22205 -26.00014,25.00351l0,18.74561c-7.18,0 -13.00005,5.59696 -13.00005,12.50174l0,31.24737c0,6.90481 5.82005,12.50176 13.00005,12.50176l52.00024,0c7.18003,0 13.00006,-5.59695 13.00006,-12.50176l0,-31.24737c0,-6.90478 -5.82003,-12.50174 -13.00006,-12.50174zm-22.75375,30.29108l0,0l0,10.33611c0,1.72972 -1.44771,3.12193 -3.24635,3.12193c-1.79866,0 -3.24638,-1.3922 -3.24638,-3.12193l0,-10.33611c-1.90102,-1.08282 -3.24635,-3.00941 -3.24635,-5.28758c0,-3.45942 2.91002,-6.24384 6.49273,-6.24384c3.58269,0 6.49271,2.79848 6.49271,6.24384c0,2.29223 -1.34533,4.20476 -3.24636,5.28758zm9.7537,-30.29108l0,0l-26.00012,0l0,-18.74561c0,-6.89073 5.83466,-12.50176 13.00006,-12.50176c7.16538,0 13.00005,5.59697 13.00005,12.50176l0,18.74561z" class="fil0"/>
   </g>
  </g>
 </g>
</svg>