<?xml version="1.0" encoding="utf-8"?>
<!-- Generator: Adobe Illustrator 16.0.0, SVG Export Plug-In . SVG Version: 6.00 Build 0)  -->
<!DOCTYPE svg PUBLIC "-//W3C//DTD SVG 1.1//EN" "http://www.w3.org/Graphics/SVG/1.1/DTD/svg11.dtd">
<svg version="1.1" id="Capa_1" xmlns="http://www.w3.org/2000/svg" xmlns:xlink="http://www.w3.org/1999/xlink" x="0px" y="0px" width="800px" height="500px" viewBox="0 0 800 500" enable-background="new 0 0 800 500" xml:space="preserve">
	<g>
		<g id="reloj">
			<path fill-rule="evenodd" clip-rule="evenodd" d="M122.391,123.188c8.98,0,16.261-7.281,16.261-16.261s-7.281-16.261-16.261-16.261
				c-8.981,0-16.26,7.28-16.26,16.261S113.41,123.188,122.391,123.188z
			M122.391,93.919c7.185,0,13.008,5.824,13.008,13.008
				c0,7.185-5.824,13.009-13.008,13.009c-7.185,0-13.009-5.824-13.009-13.009C109.382,99.743,115.206,93.919,122.391,93.919z
			M122.391,110.179l5.255,3.034c0.39,0.225,1.997-0.206,2.222-0.594c0.225-0.389-0.207-1.997-0.596-2.222l-5.255-3.034v-8.567
				c0-0.449-1.178-1.626-1.626-1.626s-1.626,1.177-1.626,1.626v9.756C120.764,109.001,121.942,110.179,122.391,110.179z"/>
		</g>
	</g>
</svg>
