<?xml version="1.0" encoding="utf-8"?>
<!-- Generator: Adobe Illustrator 16.0.0, SVG Export Plug-In . SVG Version: 6.00 Build 0)  -->
<!DOCTYPE svg PUBLIC "-//W3C//DTD SVG 1.1//EN" "http://www.w3.org/Graphics/SVG/1.1/DTD/svg11.dtd">
<svg width="33" height="33" xmlns="http://www.w3.org/2000/svg">
	<g>
		<title>Layer 1</title>
		<g id="svg_21">
			<g id="reloj">
				<path id="svg_22" style="fill:#fff" d="m16.260002,32.522003c8.980003,0 16.260994,-7.280998 16.260994,-16.261002s-7.280991,-16.261002 -16.260994,-16.261002c-8.981003,0 -16.260002,7.280006 -16.260002,16.261002s7.279007,16.261002 16.260002,16.261002zm0,-29.269005c7.185005,0 13.008003,5.823997 13.008003,13.008003c0,7.184998 -5.824005,13.008995 -13.008003,13.008995c-7.184998,0 -13.009003,-5.823997 -13.009003,-13.008995c0.000008,-7.184006 5.824005,-13.008003 13.009003,-13.008003zm0,16.260002l5.254997,3.033997c0.389999,0.225006 1.997009,-0.205994 2.222,-0.593994c0.225006,-0.389 -0.207001,-1.997002 -0.595993,-2.222l-5.255005,-3.034004v-8.567001c0,-0.448997 -1.178001,-1.625999 -1.625999,-1.625999s-1.625999,1.177002 -1.625999,1.625999v9.756004c-0.000999,0.448997 1.177002,1.626999 1.625999,1.626999z" clip-rule="evenodd" fill-rule="evenodd"/>
			</g>
		</g>
	</g>
</svg>
