<?xml version="1.0" encoding="utf-8"?>
<!-- Generator: Adobe Illustrator 16.0.0, SVG Export Plug-In . SVG Version: 6.00 Build 0)  -->
<!DOCTYPE svg PUBLIC "-//W3C//DTD SVG 1.1//EN" "http://www.w3.org/Graphics/SVG/1.1/DTD/svg11.dtd">
<svg version="1.1" id="Capa_1" xmlns="http://www.w3.org/2000/svg" xmlns:xlink="http://www.w3.org/1999/xlink" x="0px" y="0px" width="800px" height="500px" viewBox="0 0 800 500" enable-background="new 0 0 800 500" xml:space="preserve">
	<g>
		<g id="search">
			<path fill-rule="evenodd" clip-rule="evenodd" d="M57.764,108.669c1.64-2.195,2.652-4.905,2.652-7.878c0-7.207-5.718-13.049-12.77-13.049
				c-7.054,0-12.771,5.842-12.771,13.049c0,7.206,5.717,13.048,12.771,13.048c2.911,0,5.562-1.034,7.71-2.709l10.477,10.706
				c0.333,0.34,0.872,0.34,1.205,0l1.204-1.231c0.333-0.339,0.333-0.89,0-1.229L57.764,108.669z
			M47.593,111.411
				c-5.89,0-10.665-4.781-10.665-10.679c0-5.898,4.775-10.68,10.665-10.68c5.89,0,10.666,4.782,10.666,10.68
				C58.258,106.63,53.483,111.411,47.593,111.411z"/>
		</g>
	</g>
</svg>
