<?xml version="1.0" encoding="utf-8"?>
<!-- Generator: Adobe Illustrator 16.0.0, SVG Export Plug-In . SVG Version: 6.00 Build 0)  -->
<!DOCTYPE svg PUBLIC "-//W3C//DTD SVG 1.1//EN" "http://www.w3.org/Graphics/SVG/1.1/DTD/svg11.dtd">
<svg width="34" height="34" xmlns="http://www.w3.org/2000/svg">
 <g>
  <title>Layer 1</title>
  <g id="svg_13">
   <g id="search">
    <path id="svg_14" style="fill:#444" d="m22.889,20.927002c1.639999,-2.195 2.652,-4.904999 2.652,-7.877998c0,-7.207001 -5.717999,-13.049004 -12.77,-13.049004c-7.054001,0 -12.771,5.842003 -12.771,13.049004c0,7.206001 5.716999,13.047997 12.771,13.047997c2.910999,0 5.562,-1.033997 7.709999,-2.709l10.477001,10.706001c0.333,0.340004 0.872002,0.340004 1.205002,0l1.203995,-1.231003c0.333,-0.338997 0.333,-0.889999 0,-1.228996l-10.477997,-10.707001zm-10.171001,2.742004c-5.889999,0 -10.665001,-4.780998 -10.665001,-10.679001c0,-5.898003 4.775002,-10.68 10.665001,-10.68c5.889999,0 10.666,4.781998 10.666,10.68c-0.000999,5.897995 -4.775997,10.679001 -10.666,10.679001z" clip-rule="evenodd" fill-rule="evenodd"/>
   </g>
  </g>
 </g>
</svg>
