<?xml version="1.0" encoding="UTF-8"?>
<!DOCTYPE svg PUBLIC "-//W3C//DTD SVG 1.1//EN" "http://www.w3.org/Graphics/SVG/1.1/DTD/svg11.dtd">
<!-- Creator: CorelDRAW X6 -->
<svg width="100" height="100" xmlns="http://www.w3.org/2000/svg">
 <g>
  <title>Layer 1</title>
  <g id="Layer_x0020_1">
   <metadata transform="translate(-28,-30) translate(57,-269) translate(-29,668) scale(0.5158045887947083,0.5301724076271057) translate(29,-668) translate(54.284122467041016,56.585365295410156) scale(0.23955431580543518,0.2249322533607483) translate(-54.284122467041016,-56.585365295410156) translate(226.6046600341797,251.56626892089844) scale(3.3255813121795654,2.7228915691375732) translate(-226.6046600341797,-251.56626892089844) translate(68.13986206054688,92.3893814086914) scale(0.440559446811676,0.5884955525398254) translate(-68.13986206054688,-92.3893814086914) translate(154.6666717529297,156.99249267578125) scale(1.047619104385376,1) translate(-154.6666717529297,-156.99249267578125) translate(0,0) scale(0.8863636255264282,0.8796992301940918) translate(0,0) translate(0,0) scale(0.9145299196243286,0.9059829115867615) translate(0,0) translate(-1.4210854715202004e-14,0) scale(0.9345794320106506,0.9622641801834106) translate(1.4210854715202004e-14,0) translate(696,0) scale(1.0399999618530273,1) translate(-696,0) translate(-26.769207000732422,0) scale(1,1.0098038911819458) translate(26.769207000732422,0) translate(-26.769207000732422,0) scale(1.0384615659713745,1) translate(26.769207000732422,0) translate(-25.777753829956055,696.0000610351562) scale(1,1.0388349294662476) translate(25.777753829956055,-696.0000610351562) translate(-25.777753829956055,-26.018678665161133) scale(1,1.028037428855896) translate(25.777753829956055,26.018678665161133) translate(-25.777753829956055,-25.3090763092041) scale(1,0.9818181991577148) translate(25.777753829956055,25.3090763092041) " id="CorelCorpID_0Corel-Layer"/>
   <g id="_168277448">
    <path id="svg_1" d="m84.75861,15.24139c-19.24136,-19.24138 -50.27585,-19.24138 -69.51723,0c-19.24138,19.24138 -19.24138,50.27587 0,69.51723c19.24138,19.24139 50.27587,19.24139 69.51723,0c19.24139,-19.24136 19.24139,-50.27586 0,-69.51723zm-28.24137,56.01723l0,0c0,3.56897 -2.7931,6.36206 -6.36207,6.36206c-3.56896,0 -6.36207,-2.79309 -6.36207,-6.36206l0,-25.60344c0,-3.56897 2.79311,-6.36208 6.36207,-6.36208c3.56897,0 6.36207,2.79311 6.36207,6.36208l0,25.60344zm-6.51724,-36.62068l0,0c-3.72414,0 -6.20689,-2.63793 -6.05172,-5.89655c0,-3.4138 2.32758,-5.89656 6.20689,-5.89656c3.72413,0 6.20689,2.48276 6.20689,5.89656c0,3.25862 -2.48275,5.89655 -6.36206,5.89655z" class="fil0"/>
   </g>
  </g>
 </g>
</svg>