<?xml version="1.0" encoding="utf-8"?>
<!-- Generator: Adobe Illustrator 16.0.0, SVG Export Plug-In . SVG Version: 6.00 Build 0)  -->
<!DOCTYPE svg PUBLIC "-//W3C//DTD SVG 1.1//EN" "http://www.w3.org/Graphics/SVG/1.1/DTD/svg11.dtd">
<svg version="1.1" id="Capa_1" xmlns="http://www.w3.org/2000/svg" xmlns:xlink="http://www.w3.org/1999/xlink" x="0px" y="0px" width="800px" height="500px" viewBox="0 0 800 500" enable-background="new 0 0 800 500" xml:space="preserve">
	<g>
		<g id="twitter">
			<path fill-rule="evenodd" clip-rule="evenodd" d="M205.574,70.2c-4.552,0-8.246,3.429-8.246,7.657
				c0,0.601,0.074,1.184,0.214,1.745c-6.854-0.319-12.93-3.367-16.997-8c-0.71,1.131-1.117,2.446-1.117,3.85
				c0,2.656,1.456,5,3.668,6.373c-1.352-0.04-2.624-0.383-3.735-0.958c-0.001,0.032-0.001,0.064-0.001,0.097
				c0,3.709,2.843,6.804,6.616,7.508c-0.693,0.174-1.421,0.268-2.173,0.268c-0.53,0-1.048-0.048-1.551-0.137
				c1.05,3.042,4.095,5.256,7.703,5.317c-2.821,2.054-6.378,3.278-10.241,3.278c-0.666,0-1.321-0.037-1.967-0.108
				c3.649,2.172,7.984,3.441,12.64,3.441c15.168,0,23.463-11.667,23.463-21.786c0-0.332-0.008-0.662-0.025-0.991
				c1.612-1.079,3.01-2.429,4.116-3.963c-1.479,0.608-3.068,1.02-4.736,1.205c1.702-0.947,3.01-2.448,3.625-4.236
				c-1.593,0.878-3.358,1.515-5.237,1.858C210.09,71.13,207.947,70.2,205.574,70.2z"/>
		</g>
	</g>
</svg>
