<svg width="24" height="29" xmlns="http://www.w3.org/2000/svg">
 <g>
  <title>Layer 1</title>
  <g id="svg_2">
   <g id="ubicacion">
    <path id="svg_3" fill=" red" d="m4.735,20.948l0.096,0.331l-0.088,-0.001c1.807,2.113 5.227,6.989 5.295,7.083c0.446,0.553 1.064,0.869 1.733,0.871c0.667,0 1.296,-0.317 1.754,-0.88c2.739,-3.497 3.386,-4.511 3.819,-5.18c0.321,-0.498 0.479,-0.748 1.47101,-1.889c0.506,-0.581 4.93799,-5.787 4.93799,-9.569c0,-6.458 -5.36899,-11.714 -11.966,-11.714c-6.597,0 -11.787,5.256 -11.787,11.714c0,2.93 2.873,7.134 4.735,9.232v0.002l0,0zm7.052,-13.736c2.037,0 3.696,1.624 3.696,3.619c0,1.996 -1.659,3.62 -3.696,3.62c-2.039,0 -3.698,-1.624 -3.698,-3.62c0,-1.995 1.659,-3.619 3.698,-3.619z" clip-rule="evenodd" fill-rule="evenodd"/>
   </g>
  </g>
 </g>
</svg>