<svg version="1.1" id="Capa_1" xmlns="http://www.w3.org/2000/svg" xmlns:xlink="http://www.w3.org/1999/xlink" x="0px" y="0px" width="800px" height="500px" viewBox="0 0 800 500" enable-background="new 0 0 800 500" xml:space="preserve">
	<g>
		<g id="ubicacion">
			<path fill-rule="evenodd" clip-rule="evenodd" d="M115.615,69.229l0.096,0.331l-0.088-0.001c1.807,2.113,5.227,6.989,5.295,7.083
				c0.446,0.553,1.064,0.869,1.733,0.871c0.667,0,1.296-0.317,1.754-0.88c2.739-3.497,3.386-4.511,3.819-5.18
				c0.321-0.498,0.479-0.748,1.471-1.889c0.506-0.581,4.938-5.787,4.938-9.569c0-6.458-5.369-11.714-11.966-11.714
				c-6.597,0-11.787,5.256-11.787,11.714c0,2.93,2.873,7.134,4.735,9.232V69.229z
			M122.667,55.493c2.037,0,3.696,1.624,3.696,3.619
				c0,1.996-1.659,3.62-3.696,3.62c-2.039,0-3.698-1.624-3.698-3.62C118.969,57.117,120.628,55.493,122.667,55.493z" style="fill: red"/>
		</g>
	</g>
</svg>
