<?xml version="1.0" encoding="utf-8"?>
<!-- Generator: Adobe Illustrator 16.0.0, SVG Export Plug-In . SVG Version: 6.00 Build 0)  -->
<!DOCTYPE svg PUBLIC "-//W3C//DTD SVG 1.1//EN" "http://www.w3.org/Graphics/SVG/1.1/DTD/svg11.dtd">
<svg version="1.1" id="Capa_1" xmlns="http://www.w3.org/2000/svg" xmlns:xlink="http://www.w3.org/1999/xlink" x="0px" y="0px" width="800px" height="500px" viewBox="0 0 800 500" enable-background="new 0 0 800 500" xml:space="preserve">
	<g>
		<g id="white-friend">
			<path fill-rule="evenodd" clip-rule="evenodd" d="M54.656,457.737
				c1.536-1.839,2.491-4.409,2.491-7.254c0-5.591-3.685-10.123-8.231-10.123c-4.546,0-8.23,4.532-8.23,10.123
				c0,2.854,0.962,5.435,2.509,7.274c-4.974,1.101-8.57,3.578-9.049,6.523v2.688c0.336,2.059,2.195,3.889,4.984,5.181h4.05h11.584
				h4.05c2.664-1.233,4.478-2.958,4.93-4.904v-3.355C63.082,461.049,59.518,458.792,54.656,457.737z
			M62.413,467.2
				c-0.693,1.397-2.161,2.738-4.138,3.667h-18.66c-1.926-0.902-3.424-2.483-4.139-3.836v-3.015c1.253-2.292,4.633-4.358,8.935-5.134
				c0.07-0.011,0.141-0.024,0.211-0.035c0.04-0.006,0.08-0.014,0.118-0.021c0.075-0.011,0.149-0.022,0.223-0.035
				c0.048-0.006,0.096-0.016,0.144-0.021c0.073-0.011,0.146-0.022,0.219-0.032c0.048-0.007,0.094-0.013,0.142-0.019
				c0.056-0.008,0.112-0.018,0.168-0.022c0.049-0.008,0.097-0.014,0.146-0.02c0.086-0.011,0.175-0.021,0.263-0.032
				c0.056-0.004,0.113-0.011,0.168-0.017c0.045-0.006,0.09-0.012,0.136-0.014c0.059-0.007,0.119-0.013,0.177-0.017
				c0.041-0.004,0.082-0.01,0.122-0.014c0.107-0.009,0.214-0.017,0.321-0.024c0.074-0.004,0.146-0.011,0.219-0.017
				c-2.975-0.953-5.171-4.276-5.171-8.228c0-4.696,3.103-8.506,6.929-8.506s6.927,3.81,6.927,8.506c0,3.955-2.2,7.279-5.18,8.231
				c0.075,0.005,0.149,0.011,0.224,0.017c0.105,0.008,0.21,0.018,0.313,0.026c0.04,0.004,0.081,0.008,0.121,0.01
				c0.061,0.008,0.121,0.013,0.181,0.017c0.041,0.006,0.082,0.012,0.124,0.016c0.061,0.006,0.12,0.013,0.18,0.021
				c0.04,0.002,0.077,0.008,0.116,0.012c0.106,0.013,0.214,0.026,0.32,0.041c0.038,0.006,0.076,0.01,0.113,0.016
				c0.06,0.008,0.121,0.017,0.181,0.024c0.038,0.006,0.077,0.012,0.115,0.017c0.202,0.03,0.403,0.062,0.602,0.097
				c0.038,0.006,0.076,0.016,0.113,0.021c4.38,0.784,7.813,2.67,9.018,5.02V467.2z"/>
		</g>
	</g>
</svg>
