<?xml version="1.0" encoding="utf-8"?>
<!-- Generator: Adobe Illustrator 16.0.0, SVG Export Plug-In . SVG Version: 6.00 Build 0)  -->
<!DOCTYPE svg PUBLIC "-//W3C//DTD SVG 1.1//EN" "http://www.w3.org/Graphics/SVG/1.1/DTD/svg11.dtd">
<svg version="1.1" id="Capa_1" xmlns="http://www.w3.org/2000/svg" xmlns:xlink="http://www.w3.org/1999/xlink" x="0px" y="0px" width="800px" height="500px" viewBox="0 0 800 500" enable-background="new 0 0 800 500" xml:space="preserve">
	<g>
		<g id="white-eye">
			<path fill-rule="evenodd" clip-rule="evenodd" d="M50.771,280.312
				c-9.182,0-16.627,8.688-16.627,10.777c0,2.183,7.445,10.781,16.627,10.781c9.183,0,16.626-8.599,16.626-10.781
				C67.397,288.911,59.954,280.312,50.771,280.312z
			M50.771,300.779c-8.542,0-15.466-7.751-15.466-9.718
				c0-1.884,6.924-9.717,15.466-9.717c8.542,0,15.466,7.753,15.466,9.717C66.237,293.028,59.313,300.779,50.771,300.779z
			M50.771,284.979c-3.464,0-6.273,2.71-6.273,6.055
				c0,3.346,2.809,6.058,6.273,6.058c3.464,0,6.272-2.712,6.272-6.058C57.043,287.688,54.235,284.979,50.771,284.979z
			M50.771,295.879c-2.772,0-5.019-2.17-5.019-4.846c0-2.675,2.247-4.845,5.019-4.845c2.771,0,5.019,2.17,5.019,4.845
				C55.79,293.709,53.542,295.879,50.771,295.879z"/>
		</g>
	</g>
</svg>
